<svg xmlns="http://www.w3.org/2000/svg" xmlns:xlink="http://www.w3.org/1999/xlink" width="500" zoomAndPan="magnify" viewBox="0 0 375 374.999991" height="500" preserveAspectRatio="xMidYMid meet" version="1.0"><defs><clipPath id="f765504525"><path d="M 47.636719 47.636719 L 327.363281 47.636719 L 327.363281 327.363281 L 47.636719 327.363281 Z M 47.636719 47.636719 " clip-rule="nonzero"/></clipPath><clipPath id="745afc11cc"><path d="M 187.5 47.636719 C 110.253906 47.636719 47.636719 110.253906 47.636719 187.5 C 47.636719 264.746094 110.253906 327.363281 187.5 327.363281 C 264.746094 327.363281 327.363281 264.746094 327.363281 187.5 C 327.363281 110.253906 264.746094 47.636719 187.5 47.636719 Z M 187.5 47.636719 " clip-rule="nonzero"/></clipPath><clipPath id="ed1a9bbfe7"><path d="M 86.472656 86.472656 L 288.222656 86.472656 L 288.222656 288.222656 L 86.472656 288.222656 Z M 86.472656 86.472656 " clip-rule="nonzero"/></clipPath></defs><g clip-path="url(#f765504525)"><g clip-path="url(#745afc11cc)"><path fill="#fff500" d="M 47.636719 47.636719 L 327.363281 47.636719 L 327.363281 327.363281 L 47.636719 327.363281 Z M 47.636719 47.636719 " fill-opacity="1" fill-rule="nonzero"/></g></g><g clip-path="url(#ed1a9bbfe7)"><path fill="#000000" d="M 187.347656 288.222656 C 131.726562 288.222656 86.472656 242.964844 86.472656 187.347656 C 86.472656 131.726562 131.726562 86.472656 187.347656 86.472656 C 242.964844 86.472656 288.222656 131.726562 288.222656 187.347656 C 288.222656 242.964844 242.964844 288.222656 187.347656 288.222656 Z M 187.347656 101.097656 C 139.777344 101.097656 101.085938 139.777344 101.085938 187.347656 C 101.085938 234.902344 139.777344 273.59375 187.347656 273.59375 C 234.902344 273.59375 273.605469 234.902344 273.605469 187.347656 C 273.605469 139.777344 234.902344 101.097656 187.347656 101.097656 Z M 187.347656 101.097656 " fill-opacity="1" fill-rule="nonzero"/></g><path fill="#000000" d="M 189.425781 239.695312 C 188.652344 239.398438 187.8125 238.917969 187.8125 236.886719 C 187.8125 236.050781 187.945312 235.078125 188.242188 233.894531 L 200.984375 172.125 C 201.265625 170.675781 201.410156 169.15625 201.410156 167.644531 C 201.410156 163.652344 200.183594 160.613281 197.753906 158.601562 C 192.3125 154.132812 182.792969 155.007812 166.957031 160.363281 L 165.417969 160.878906 L 164.789062 168.847656 L 167.449219 168.847656 C 175.511719 168.847656 177.460938 169.480469 177.863281 169.675781 C 178.40625 169.933594 178.703125 170.242188 178.703125 171.148438 C 178.703125 171.652344 178.640625 172.222656 178.507812 172.851562 C 178.347656 173.691406 178.160156 174.660156 177.976562 175.707031 L 166.300781 232.4375 C 165.757812 235.292969 165.476562 237.746094 165.476562 239.699219 C 165.476562 244.21875 166.78125 247.714844 169.328125 250.070312 C 171.824219 252.371094 175.246094 253.546875 179.496094 253.546875 C 184.472656 253.546875 191.148438 252.164062 199.898438 249.332031 L 201.460938 248.828125 L 202.09375 240.753906 L 199.449219 240.753906 C 193.46875 240.753906 190.707031 240.171875 189.425781 239.695312 Z M 189.425781 239.695312 " fill-opacity="1" fill-rule="nonzero"/><path fill="#000000" d="M 206.195312 124.609375 C 203.796875 122.320312 200.707031 121.148438 197.023438 121.148438 C 193.210938 121.148438 189.980469 122.402344 187.441406 124.867188 C 184.882812 127.34375 183.574219 130.679688 183.574219 134.789062 C 183.574219 138.574219 184.816406 141.710938 187.257812 144.144531 C 189.699219 146.597656 192.824219 147.839844 196.53125 147.839844 C 200.316406 147.839844 203.511719 146.523438 206.066406 143.949219 C 208.597656 141.378906 209.878906 138.039062 209.878906 134.015625 C 209.878906 130.085938 208.648438 126.921875 206.195312 124.609375 Z M 206.195312 124.609375 " fill-opacity="1" fill-rule="nonzero"/></svg>