<svg xmlns="http://www.w3.org/2000/svg" xmlns:xlink="http://www.w3.org/1999/xlink" width="500" zoomAndPan="magnify" viewBox="0 0 375 374.999991" height="500" preserveAspectRatio="xMidYMid meet" version="1.0"><defs><clipPath id="160e5b6a86"><path d="M 47.636719 47.636719 L 327.363281 47.636719 L 327.363281 327.363281 L 47.636719 327.363281 Z M 47.636719 47.636719 " clip-rule="nonzero"/></clipPath><clipPath id="ed78743d35"><path d="M 187.5 47.636719 C 110.253906 47.636719 47.636719 110.253906 47.636719 187.5 C 47.636719 264.746094 110.253906 327.363281 187.5 327.363281 C 264.746094 327.363281 327.363281 264.746094 327.363281 187.5 C 327.363281 110.253906 264.746094 47.636719 187.5 47.636719 Z M 187.5 47.636719 " clip-rule="nonzero"/></clipPath><clipPath id="badf2d2e18"><path d="M 140.609375 151 L 234.359375 151 L 234.359375 269 L 140.609375 269 Z M 140.609375 151 " clip-rule="nonzero"/></clipPath></defs><g clip-path="url(#160e5b6a86)"><g clip-path="url(#ed78743d35)"><path fill="#fff500" d="M 47.636719 47.636719 L 327.363281 47.636719 L 327.363281 327.363281 L 47.636719 327.363281 Z M 47.636719 47.636719 " fill-opacity="1" fill-rule="nonzero"/></g></g><g clip-path="url(#badf2d2e18)"><path fill="#000000" d="M 140.503906 157.765625 L 140.503906 167.578125 L 161.199219 174.210938 L 161.199219 222.128906 C 161.199219 250.273438 179.597656 273.089844 207.839844 267.226562 C 221.226562 264.058594 231.710938 248.511719 234.242188 234.773438 C 219.6875 243.234375 206.550781 239.464844 204.691406 229.007812 C 204.363281 227.175781 204.167969 225.3125 204.167969 223.449219 L 204.167969 151.132812 Z M 140.503906 157.765625 " fill-opacity="1" fill-rule="nonzero"/></g><path fill="#000000" d="M 203.832031 122.882812 C 203.832031 123.578125 203.796875 124.269531 203.730469 124.960938 C 203.664062 125.652344 203.5625 126.335938 203.425781 127.019531 C 203.289062 127.699219 203.121094 128.371094 202.921875 129.035156 C 202.71875 129.699219 202.484375 130.351562 202.21875 130.992188 C 201.953125 131.632812 201.65625 132.261719 201.332031 132.871094 C 201.003906 133.484375 200.648438 134.078125 200.261719 134.65625 C 199.875 135.234375 199.460938 135.789062 199.023438 136.328125 C 198.582031 136.863281 198.117188 137.375 197.625 137.867188 C 197.136719 138.359375 196.621094 138.824219 196.085938 139.265625 C 195.546875 139.703125 194.992188 140.117188 194.414062 140.503906 C 193.835938 140.886719 193.242188 141.246094 192.628906 141.570312 C 192.019531 141.898438 191.390625 142.195312 190.75 142.460938 C 190.109375 142.726562 189.457031 142.960938 188.792969 143.160156 C 188.128906 143.363281 187.457031 143.53125 186.777344 143.667969 C 186.09375 143.800781 185.410156 143.902344 184.71875 143.972656 C 184.027344 144.039062 183.335938 144.074219 182.640625 144.074219 C 181.949219 144.074219 181.253906 144.039062 180.5625 143.972656 C 179.875 143.902344 179.1875 143.800781 178.507812 143.667969 C 177.828125 143.53125 177.152344 143.363281 176.488281 143.160156 C 175.824219 142.960938 175.171875 142.726562 174.53125 142.460938 C 173.890625 142.195312 173.265625 141.898438 172.652344 141.570312 C 172.039062 141.246094 171.445312 140.886719 170.867188 140.503906 C 170.292969 140.117188 169.734375 139.703125 169.199219 139.265625 C 168.660156 138.824219 168.148438 138.359375 167.65625 137.867188 C 167.167969 137.375 166.699219 136.863281 166.261719 136.328125 C 165.820312 135.789062 165.40625 135.234375 165.023438 134.65625 C 164.636719 134.078125 164.28125 133.484375 163.953125 132.871094 C 163.625 132.261719 163.328125 131.632812 163.0625 130.992188 C 162.796875 130.351562 162.5625 129.699219 162.363281 129.035156 C 162.160156 128.371094 161.992188 127.699219 161.859375 127.019531 C 161.722656 126.335938 161.621094 125.652344 161.550781 124.960938 C 161.484375 124.269531 161.449219 123.578125 161.449219 122.882812 C 161.449219 122.191406 161.484375 121.5 161.550781 120.808594 C 161.621094 120.117188 161.722656 119.429688 161.859375 118.75 C 161.992188 118.070312 162.160156 117.398438 162.363281 116.734375 C 162.5625 116.070312 162.796875 115.417969 163.0625 114.777344 C 163.328125 114.132812 163.625 113.507812 163.953125 112.894531 C 164.28125 112.285156 164.636719 111.6875 165.023438 111.113281 C 165.40625 110.535156 165.820312 109.980469 166.261719 109.441406 C 166.699219 108.90625 167.167969 108.390625 167.65625 107.902344 C 168.148438 107.410156 168.660156 106.945312 169.199219 106.503906 C 169.734375 106.066406 170.292969 105.652344 170.867188 105.265625 C 171.445312 104.878906 172.039062 104.523438 172.652344 104.195312 C 173.265625 103.871094 173.890625 103.574219 174.53125 103.308594 C 175.171875 103.042969 175.824219 102.808594 176.488281 102.609375 C 177.152344 102.40625 177.828125 102.238281 178.507812 102.101562 C 179.1875 101.96875 179.875 101.867188 180.5625 101.796875 C 181.253906 101.730469 181.949219 101.695312 182.640625 101.695312 C 183.335938 101.695312 184.027344 101.730469 184.71875 101.796875 C 185.410156 101.867188 186.09375 101.96875 186.777344 102.101562 C 187.457031 102.238281 188.128906 102.40625 188.792969 102.609375 C 189.457031 102.808594 190.109375 103.042969 190.75 103.308594 C 191.390625 103.574219 192.019531 103.871094 192.628906 104.195312 C 193.242188 104.523438 193.835938 104.878906 194.414062 105.265625 C 194.992188 105.652344 195.546875 106.066406 196.085938 106.503906 C 196.621094 106.945312 197.136719 107.410156 197.625 107.902344 C 198.117188 108.390625 198.582031 108.90625 199.023438 109.441406 C 199.460938 109.980469 199.875 110.535156 200.261719 111.113281 C 200.648438 111.6875 201.003906 112.285156 201.332031 112.894531 C 201.65625 113.507812 201.953125 114.132812 202.21875 114.777344 C 202.484375 115.417969 202.71875 116.070312 202.921875 116.734375 C 203.121094 117.398438 203.289062 118.070312 203.425781 118.75 C 203.5625 119.429688 203.664062 120.117188 203.730469 120.808594 C 203.796875 121.5 203.832031 122.191406 203.832031 122.882812 Z M 203.832031 122.882812 " fill-opacity="1" fill-rule="nonzero"/></svg>