<svg xmlns="http://www.w3.org/2000/svg" xmlns:xlink="http://www.w3.org/1999/xlink" width="500" zoomAndPan="magnify" viewBox="0 0 375 374.999991" height="500" preserveAspectRatio="xMidYMid meet" version="1.0"><defs><clipPath id="de3f46ca8d"><path d="M 21.308594 21.308594 L 353.691406 21.308594 L 353.691406 353.691406 L 21.308594 353.691406 Z M 21.308594 21.308594 " clip-rule="nonzero"/></clipPath><clipPath id="db296d543c"><path d="M 187.5 21.308594 C 95.714844 21.308594 21.308594 95.714844 21.308594 187.5 C 21.308594 279.285156 95.714844 353.691406 187.5 353.691406 C 279.285156 353.691406 353.691406 279.285156 353.691406 187.5 C 353.691406 95.714844 279.285156 21.308594 187.5 21.308594 Z M 187.5 21.308594 " clip-rule="nonzero"/></clipPath><clipPath id="b6ddf0b2f1"><path d="M 81.976562 66.902344 L 292.726562 66.902344 L 292.726562 127 L 81.976562 127 Z M 81.976562 66.902344 " clip-rule="nonzero"/></clipPath><clipPath id="446d7c1415"><path d="M 97 142 L 279 142 L 279 308.402344 L 97 308.402344 Z M 97 142 " clip-rule="nonzero"/></clipPath></defs><g clip-path="url(#de3f46ca8d)"><g clip-path="url(#db296d543c)"><path fill="#ff3131" d="M 21.308594 21.308594 L 353.691406 21.308594 L 353.691406 353.691406 L 21.308594 353.691406 Z M 21.308594 21.308594 " fill-opacity="1" fill-rule="nonzero"/></g></g><g clip-path="url(#b6ddf0b2f1)"><path fill="#ffffff" d="M 285.480469 96.484375 L 232.722656 96.484375 L 232.722656 74.441406 C 232.722656 70.296875 229.328125 66.902344 225.183594 66.902344 L 149.8125 66.902344 C 145.667969 66.902344 142.277344 70.296875 142.277344 74.441406 L 142.277344 96.484375 L 89.519531 96.484375 C 85.375 96.484375 81.980469 99.878906 81.980469 104.023438 L 81.980469 119.097656 C 81.980469 123.242188 85.375 126.632812 89.519531 126.632812 L 285.480469 126.632812 C 289.625 126.632812 293.015625 123.242188 293.015625 119.097656 L 293.015625 104.023438 C 293.015625 99.878906 289.625 96.484375 285.480469 96.484375 Z M 285.480469 96.484375 " fill-opacity="1" fill-rule="nonzero"/></g><g clip-path="url(#446d7c1415)"><path fill="#ffffff" d="M 115.144531 301.492188 C 115.519531 305.261719 118.722656 308.085938 122.679688 308.085938 L 252.507812 308.085938 C 256.273438 308.085938 259.476562 305.261719 260.042969 301.492188 L 278.132812 142.460938 L 97.054688 142.460938 Z M 217.648438 276.996094 L 230.835938 171.667969 C 231.402344 167.523438 235.171875 164.695312 239.316406 165.074219 C 243.460938 165.636719 246.289062 169.40625 245.910156 173.550781 L 232.722656 278.882812 C 232.15625 282.648438 228.953125 285.476562 225.183594 285.476562 C 224.808594 285.476562 224.617188 285.476562 224.242188 285.476562 C 220.097656 284.910156 217.269531 281.140625 217.648438 276.996094 Z M 179.960938 172.609375 C 179.960938 168.464844 183.355469 165.074219 187.5 165.074219 C 191.644531 165.074219 195.035156 168.464844 195.035156 172.609375 L 195.035156 277.9375 C 195.035156 282.085938 191.644531 285.476562 187.5 285.476562 C 183.355469 285.476562 179.960938 282.085938 179.960938 277.9375 Z M 135.683594 165.074219 C 139.828125 164.507812 143.597656 167.523438 144.160156 171.667969 L 157.351562 276.996094 C 157.917969 281.140625 154.902344 284.910156 150.757812 285.476562 C 150.378906 285.476562 150.191406 285.476562 149.8125 285.476562 C 146.046875 285.476562 142.84375 282.648438 142.277344 278.882812 L 129.085938 173.550781 C 128.710938 169.40625 131.539062 165.636719 135.683594 165.074219 Z M 135.683594 165.074219 " fill-opacity="1" fill-rule="nonzero"/></g></svg>