<svg xmlns="http://www.w3.org/2000/svg" xmlns:xlink="http://www.w3.org/1999/xlink" width="500" zoomAndPan="magnify" viewBox="0 0 375 374.999991" height="500" preserveAspectRatio="xMidYMid meet" version="1.0"><defs><clipPath id="27245989b0"><path d="M 21.308594 21.308594 L 353.691406 21.308594 L 353.691406 353.691406 L 21.308594 353.691406 Z M 21.308594 21.308594 " clip-rule="nonzero"/></clipPath><clipPath id="4cac12d850"><path d="M 187.5 21.308594 C 95.714844 21.308594 21.308594 95.714844 21.308594 187.5 C 21.308594 279.285156 95.714844 353.691406 187.5 353.691406 C 279.285156 353.691406 353.691406 279.285156 353.691406 187.5 C 353.691406 95.714844 279.285156 21.308594 187.5 21.308594 Z M 187.5 21.308594 " clip-rule="nonzero"/></clipPath><clipPath id="84c05a69ec"><path d="M 81.976562 66.902344 L 292.726562 66.902344 L 292.726562 127 L 81.976562 127 Z M 81.976562 66.902344 " clip-rule="nonzero"/></clipPath><clipPath id="abffd974ea"><path d="M 97 142 L 278 142 L 278 308.402344 L 97 308.402344 Z M 97 142 " clip-rule="nonzero"/></clipPath></defs><g clip-path="url(#27245989b0)"><g clip-path="url(#4cac12d850)"><path fill="#ff3131" d="M 21.308594 21.308594 L 353.691406 21.308594 L 353.691406 353.691406 L 21.308594 353.691406 Z M 21.308594 21.308594 " fill-opacity="1" fill-rule="nonzero"/></g></g><g clip-path="url(#84c05a69ec)"><path fill="#000000" d="M 285.199219 96.523438 L 232.511719 96.523438 L 232.511719 74.449219 C 232.511719 70.300781 229.125 66.902344 224.984375 66.902344 L 149.71875 66.902344 C 145.582031 66.902344 142.195312 70.300781 142.195312 74.449219 L 142.195312 96.523438 L 89.507812 96.523438 C 85.367188 96.523438 81.980469 99.921875 81.980469 104.070312 L 81.980469 119.164062 C 81.980469 123.316406 85.367188 126.710938 89.507812 126.710938 L 285.199219 126.710938 C 289.335938 126.710938 292.722656 123.316406 292.722656 119.164062 L 292.722656 104.070312 C 292.722656 99.921875 289.335938 96.523438 285.199219 96.523438 Z M 285.199219 96.523438 " fill-opacity="1" fill-rule="nonzero"/></g><g clip-path="url(#abffd974ea)"><path fill="#000000" d="M 115.097656 301.800781 C 115.472656 305.574219 118.671875 308.402344 122.625 308.402344 L 252.269531 308.402344 C 256.03125 308.402344 259.230469 305.574219 259.796875 301.800781 L 277.859375 142.5625 L 97.035156 142.5625 Z M 217.460938 277.273438 L 230.628906 171.804688 C 231.195312 167.652344 234.957031 164.824219 239.097656 165.203125 C 243.238281 165.765625 246.058594 169.539062 245.683594 173.691406 L 232.511719 279.160156 C 231.949219 282.933594 228.75 285.761719 224.984375 285.761719 C 224.609375 285.761719 224.421875 285.761719 224.042969 285.761719 C 219.90625 285.195312 217.082031 281.421875 217.460938 277.273438 Z M 179.828125 172.75 C 179.828125 168.597656 183.214844 165.203125 187.351562 165.203125 C 191.492188 165.203125 194.878906 168.597656 194.878906 172.75 L 194.878906 278.214844 C 194.878906 282.367188 191.492188 285.761719 187.351562 285.761719 C 183.214844 285.761719 179.828125 282.367188 179.828125 278.214844 Z M 135.609375 165.203125 C 139.746094 164.636719 143.511719 167.652344 144.074219 171.804688 L 157.246094 277.273438 C 157.8125 281.421875 154.800781 285.195312 150.660156 285.761719 C 150.285156 285.761719 150.097656 285.761719 149.71875 285.761719 C 145.957031 285.761719 142.757812 282.933594 142.195312 279.160156 L 129.023438 173.691406 C 128.644531 169.539062 131.46875 165.765625 135.609375 165.203125 Z M 135.609375 165.203125 " fill-opacity="1" fill-rule="nonzero"/></g></svg>