<svg xmlns="http://www.w3.org/2000/svg" xmlns:xlink="http://www.w3.org/1999/xlink" width="500" zoomAndPan="magnify" viewBox="0 0 375 374.999991" height="500" preserveAspectRatio="xMidYMid meet" version="1.0"><defs><clipPath id="8fb8f57f49"><path d="M 21.308594 21.308594 L 353.691406 21.308594 L 353.691406 353.691406 L 21.308594 353.691406 Z M 21.308594 21.308594 " clip-rule="nonzero"/></clipPath><clipPath id="e66d1e7adc"><path d="M 187.5 21.308594 C 95.714844 21.308594 21.308594 95.714844 21.308594 187.5 C 21.308594 279.285156 95.714844 353.691406 187.5 353.691406 C 279.285156 353.691406 353.691406 279.285156 353.691406 187.5 C 353.691406 95.714844 279.285156 21.308594 187.5 21.308594 Z M 187.5 21.308594 " clip-rule="nonzero"/></clipPath><clipPath id="84e04b2dde"><path d="M 96.117188 97 L 278 97 L 278 279 L 96.117188 279 Z M 96.117188 97 " clip-rule="nonzero"/></clipPath></defs><g clip-path="url(#8fb8f57f49)"><g clip-path="url(#e66d1e7adc)"><path fill="#00bf63" d="M 21.308594 21.308594 L 353.691406 21.308594 L 353.691406 353.691406 L 21.308594 353.691406 Z M 21.308594 21.308594 " fill-opacity="1" fill-rule="nonzero"/></g></g><g clip-path="url(#84e04b2dde)"><path fill="#ffffff" d="M 96.117188 241.015625 L 96.117188 278.882812 L 133.980469 278.882812 L 245.710938 167.152344 L 207.84375 129.285156 Z M 274.890625 137.96875 C 278.832031 134.03125 278.832031 127.621094 274.890625 123.683594 L 251.316406 100.105469 C 247.375 96.164062 240.964844 96.164062 237.027344 100.105469 L 218.546875 118.582031 L 256.414062 156.449219 Z M 274.890625 137.96875 " fill-opacity="1" fill-rule="nonzero"/></g></svg>