<svg xmlns="http://www.w3.org/2000/svg" xmlns:xlink="http://www.w3.org/1999/xlink" width="500" zoomAndPan="magnify" viewBox="0 0 375 374.999991" height="500" preserveAspectRatio="xMidYMid meet" version="1.0"><defs><clipPath id="90b680fabe"><path d="M 21.308594 21.308594 L 353.691406 21.308594 L 353.691406 353.691406 L 21.308594 353.691406 Z M 21.308594 21.308594 " clip-rule="nonzero"/></clipPath><clipPath id="3ff7f5fd5c"><path d="M 187.5 21.308594 C 95.714844 21.308594 21.308594 95.714844 21.308594 187.5 C 21.308594 279.285156 95.714844 353.691406 187.5 353.691406 C 279.285156 353.691406 353.691406 279.285156 353.691406 187.5 C 353.691406 95.714844 279.285156 21.308594 187.5 21.308594 Z M 187.5 21.308594 " clip-rule="nonzero"/></clipPath><clipPath id="49c82912d4"><path d="M 96.117188 97 L 279 97 L 279 279.117188 L 96.117188 279.117188 Z M 96.117188 97 " clip-rule="nonzero"/></clipPath></defs><g clip-path="url(#90b680fabe)"><g clip-path="url(#3ff7f5fd5c)"><path fill="#00bf63" d="M 21.308594 21.308594 L 353.691406 21.308594 L 353.691406 353.691406 L 21.308594 353.691406 Z M 21.308594 21.308594 " fill-opacity="1" fill-rule="nonzero"/></g></g><g clip-path="url(#49c82912d4)"><path fill="#000000" d="M 96.117188 241.199219 L 96.117188 279.117188 L 134.03125 279.117188 L 245.902344 167.242188 L 207.988281 129.328125 Z M 275.121094 138.023438 C 279.066406 134.082031 279.066406 127.660156 275.121094 123.71875 L 251.515625 100.109375 C 247.570312 96.164062 241.152344 96.164062 237.207031 100.109375 L 218.707031 118.609375 L 256.621094 156.527344 Z M 275.121094 138.023438 " fill-opacity="1" fill-rule="nonzero"/></g></svg>