<svg xmlns="http://www.w3.org/2000/svg" xmlns:xlink="http://www.w3.org/1999/xlink" width="500" zoomAndPan="magnify" viewBox="0 0 375 374.999991" height="500" preserveAspectRatio="xMidYMid meet" version="1.0"><defs><clipPath id="fb540411d8"><path d="M 47.636719 47.636719 L 327.363281 47.636719 L 327.363281 327.363281 L 47.636719 327.363281 Z M 47.636719 47.636719 " clip-rule="nonzero"/></clipPath><clipPath id="b4d0aa1a06"><path d="M 187.5 47.636719 C 110.253906 47.636719 47.636719 110.253906 47.636719 187.5 C 47.636719 264.746094 110.253906 327.363281 187.5 327.363281 C 264.746094 327.363281 327.363281 264.746094 327.363281 187.5 C 327.363281 110.253906 264.746094 47.636719 187.5 47.636719 Z M 187.5 47.636719 " clip-rule="nonzero"/></clipPath><clipPath id="51fdf0cfd5"><path d="M 68.089844 68.089844 L 306.589844 68.089844 L 306.589844 306.589844 L 68.089844 306.589844 Z M 68.089844 68.089844 " clip-rule="nonzero"/></clipPath></defs><g clip-path="url(#fb540411d8)"><g clip-path="url(#b4d0aa1a06)"><path fill="#fff500" d="M 47.636719 47.636719 L 327.363281 47.636719 L 327.363281 327.363281 L 47.636719 327.363281 Z M 47.636719 47.636719 " fill-opacity="1" fill-rule="nonzero"/></g></g><g clip-path="url(#51fdf0cfd5)"><path fill="#000000" d="M 187.339844 68.089844 C 185.386719 68.089844 183.4375 68.136719 181.488281 68.234375 C 179.539062 68.328125 177.59375 68.472656 175.652344 68.664062 C 173.707031 68.855469 171.773438 69.09375 169.84375 69.378906 C 167.910156 69.667969 165.988281 70 164.074219 70.382812 C 162.160156 70.761719 160.257812 71.1875 158.363281 71.664062 C 156.472656 72.136719 154.589844 72.65625 152.722656 73.222656 C 150.855469 73.792969 149.003906 74.402344 147.164062 75.058594 C 145.328125 75.71875 143.507812 76.421875 141.703125 77.167969 C 139.902344 77.914062 138.117188 78.703125 136.355469 79.539062 C 134.589844 80.375 132.847656 81.25 131.125 82.171875 C 129.40625 83.089844 127.707031 84.050781 126.03125 85.054688 C 124.359375 86.058594 122.710938 87.101562 121.089844 88.1875 C 119.464844 89.269531 117.871094 90.394531 116.300781 91.558594 C 114.734375 92.71875 113.195312 93.921875 111.6875 95.15625 C 110.179688 96.394531 108.703125 97.671875 107.257812 98.980469 C 105.808594 100.292969 104.398438 101.636719 103.015625 103.015625 C 101.636719 104.398438 100.292969 105.808594 98.980469 107.257812 C 97.671875 108.703125 96.394531 110.179688 95.15625 111.6875 C 93.921875 113.195312 92.71875 114.734375 91.558594 116.300781 C 90.394531 117.871094 89.269531 119.464844 88.1875 121.089844 C 87.101562 122.710938 86.058594 124.359375 85.054688 126.03125 C 84.050781 127.707031 83.089844 129.40625 82.171875 131.125 C 81.25 132.847656 80.375 134.589844 79.539062 136.355469 C 78.703125 138.117188 77.914062 139.902344 77.167969 141.703125 C 76.421875 143.507812 75.71875 145.328125 75.0625 147.164062 C 74.402344 149.003906 73.792969 150.855469 73.222656 152.722656 C 72.65625 154.589844 72.136719 156.472656 71.664062 158.363281 C 71.1875 160.257812 70.761719 162.160156 70.382812 164.074219 C 70 165.988281 69.667969 167.910156 69.378906 169.84375 C 69.09375 171.773438 68.855469 173.707031 68.664062 175.652344 C 68.472656 177.59375 68.328125 179.539062 68.234375 181.488281 C 68.136719 183.4375 68.089844 185.386719 68.089844 187.339844 C 68.089844 189.292969 68.136719 191.242188 68.234375 193.191406 C 68.328125 195.140625 68.472656 197.085938 68.664062 199.027344 C 68.855469 200.96875 69.09375 202.90625 69.378906 204.835938 C 69.667969 206.769531 70 208.691406 70.382812 210.605469 C 70.761719 212.519531 71.1875 214.421875 71.664062 216.316406 C 72.136719 218.207031 72.65625 220.089844 73.222656 221.957031 C 73.792969 223.824219 74.402344 225.675781 75.0625 227.515625 C 75.71875 229.351562 76.421875 231.171875 77.167969 232.976562 C 77.914062 234.777344 78.703125 236.5625 79.539062 238.324219 C 80.375 240.089844 81.25 241.832031 82.171875 243.554688 C 83.089844 245.273438 84.050781 246.972656 85.054688 248.644531 C 86.058594 250.320312 87.101562 251.96875 88.1875 253.589844 C 89.269531 255.214844 90.394531 256.808594 91.558594 258.375 C 92.71875 259.945312 93.921875 261.484375 95.15625 262.992188 C 96.394531 264.5 97.671875 265.976562 98.980469 267.421875 C 100.292969 268.867188 101.636719 270.28125 103.015625 271.664062 C 104.398438 273.042969 105.808594 274.386719 107.257812 275.699219 C 108.703125 277.007812 110.179688 278.28125 111.6875 279.519531 C 113.195312 280.757812 114.734375 281.960938 116.300781 283.121094 C 117.871094 284.285156 119.464844 285.40625 121.089844 286.492188 C 122.710938 287.578125 124.359375 288.621094 126.03125 289.625 C 127.707031 290.628906 129.40625 291.589844 131.125 292.507812 C 132.847656 293.429688 134.589844 294.304688 136.355469 295.140625 C 138.117188 295.976562 139.902344 296.765625 141.703125 297.511719 C 143.507812 298.257812 145.328125 298.960938 147.164062 299.617188 C 149.003906 300.277344 150.855469 300.886719 152.722656 301.453125 C 154.589844 302.019531 156.472656 302.542969 158.363281 303.015625 C 160.257812 303.488281 162.160156 303.917969 164.074219 304.296875 C 165.988281 304.679688 167.910156 305.011719 169.84375 305.300781 C 171.773438 305.585938 173.707031 305.824219 175.652344 306.015625 C 177.59375 306.207031 179.539062 306.351562 181.488281 306.445312 C 183.4375 306.542969 185.386719 306.589844 187.339844 306.589844 C 189.292969 306.589844 191.242188 306.542969 193.191406 306.445312 C 195.140625 306.351562 197.085938 306.207031 199.027344 306.015625 C 200.96875 305.824219 202.90625 305.585938 204.835938 305.300781 C 206.769531 305.011719 208.691406 304.679688 210.605469 304.296875 C 212.519531 303.917969 214.421875 303.488281 216.316406 303.015625 C 218.207031 302.542969 220.089844 302.019531 221.957031 301.453125 C 223.824219 300.886719 225.675781 300.277344 227.515625 299.617188 C 229.351562 298.960938 231.171875 298.257812 232.976562 297.511719 C 234.777344 296.765625 236.5625 295.976562 238.324219 295.140625 C 240.089844 294.304688 241.832031 293.429688 243.554688 292.507812 C 245.273438 291.589844 246.972656 290.628906 248.644531 289.625 C 250.320312 288.621094 251.96875 287.578125 253.589844 286.492188 C 255.214844 285.40625 256.808594 284.285156 258.375 283.121094 C 259.945312 281.960938 261.484375 280.757812 262.992188 279.519531 C 264.5 278.28125 265.976562 277.007812 267.421875 275.699219 C 268.867188 274.386719 270.28125 273.042969 271.664062 271.664062 C 273.042969 270.28125 274.386719 268.867188 275.699219 267.421875 C 277.007812 265.976562 278.28125 264.5 279.519531 262.992188 C 280.757812 261.484375 281.960938 259.945312 283.121094 258.375 C 284.285156 256.808594 285.40625 255.214844 286.492188 253.589844 C 287.578125 251.96875 288.621094 250.320312 289.625 248.644531 C 290.628906 246.972656 291.589844 245.273438 292.507812 243.554688 C 293.429688 241.832031 294.304688 240.089844 295.140625 238.324219 C 295.976562 236.5625 296.765625 234.777344 297.511719 232.976562 C 298.257812 231.171875 298.960938 229.351562 299.617188 227.515625 C 300.277344 225.675781 300.886719 223.824219 301.453125 221.957031 C 302.019531 220.089844 302.542969 218.207031 303.015625 216.316406 C 303.488281 214.421875 303.917969 212.519531 304.296875 210.605469 C 304.679688 208.691406 305.011719 206.769531 305.300781 204.835938 C 305.585938 202.90625 305.824219 200.96875 306.015625 199.027344 C 306.207031 197.085938 306.351562 195.140625 306.445312 193.191406 C 306.542969 191.242188 306.589844 189.292969 306.589844 187.339844 C 306.589844 185.386719 306.542969 183.4375 306.445312 181.488281 C 306.347656 179.539062 306.207031 177.59375 306.015625 175.652344 C 305.824219 173.710938 305.582031 171.773438 305.296875 169.84375 C 305.011719 167.914062 304.675781 165.988281 304.296875 164.078125 C 303.914062 162.164062 303.488281 160.257812 303.011719 158.367188 C 302.539062 156.472656 302.019531 154.59375 301.453125 152.726562 C 300.886719 150.855469 300.273438 149.003906 299.613281 147.167969 C 298.957031 145.332031 298.253906 143.511719 297.507812 141.707031 C 296.761719 139.902344 295.96875 138.121094 295.136719 136.355469 C 294.300781 134.59375 293.425781 132.851562 292.503906 131.128906 C 291.585938 129.40625 290.621094 127.710938 289.621094 126.035156 C 288.617188 124.363281 287.570312 122.714844 286.488281 121.089844 C 285.402344 119.46875 284.28125 117.875 283.117188 116.304688 C 281.953125 114.738281 280.753906 113.199219 279.515625 111.691406 C 278.277344 110.183594 277.003906 108.707031 275.695312 107.261719 C 274.382812 105.816406 273.039062 104.402344 271.65625 103.023438 C 270.277344 101.640625 268.863281 100.296875 267.417969 98.984375 C 265.972656 97.675781 264.496094 96.402344 262.988281 95.164062 C 261.476562 93.925781 259.941406 92.722656 258.371094 91.5625 C 256.804688 90.398438 255.210938 89.277344 253.585938 88.191406 C 251.964844 87.105469 250.316406 86.0625 248.644531 85.058594 C 246.96875 84.058594 245.273438 83.09375 243.550781 82.175781 C 241.828125 81.253906 240.085938 80.378906 238.324219 79.542969 C 236.558594 78.707031 234.773438 77.917969 232.972656 77.171875 C 231.167969 76.425781 229.347656 75.722656 227.511719 75.0625 C 225.675781 74.40625 223.820312 73.792969 221.953125 73.226562 C 220.085938 72.660156 218.207031 72.140625 216.3125 71.667969 C 214.421875 71.191406 212.515625 70.765625 210.601562 70.382812 C 208.6875 70.003906 206.765625 69.667969 204.835938 69.382812 C 202.90625 69.097656 200.96875 68.855469 199.027344 68.664062 C 197.085938 68.472656 195.140625 68.328125 193.191406 68.234375 C 191.242188 68.136719 189.292969 68.089844 187.339844 68.089844 Z M 261.535156 168.371094 C 261.328125 169.046875 261.015625 169.671875 260.605469 170.246094 C 260.195312 170.820312 259.703125 171.316406 259.132812 171.730469 C 258.5625 172.148438 257.941406 172.464844 257.269531 172.679688 C 256.597656 172.894531 255.90625 173 255.199219 172.992188 L 248.566406 172.992188 L 248.566406 240.035156 C 248.566406 240.699219 248.53125 241.363281 248.46875 242.023438 C 248.402344 242.683594 248.304688 243.339844 248.171875 243.992188 C 248.042969 244.644531 247.878906 245.289062 247.6875 245.925781 C 247.492188 246.5625 247.269531 247.1875 247.015625 247.800781 C 246.761719 248.417969 246.476562 249.015625 246.160156 249.601562 C 245.847656 250.1875 245.507812 250.757812 245.136719 251.3125 C 244.765625 251.863281 244.371094 252.398438 243.949219 252.910156 C 243.527344 253.425781 243.082031 253.917969 242.613281 254.386719 C 242.140625 254.859375 241.648438 255.304688 241.136719 255.726562 C 240.621094 256.148438 240.089844 256.542969 239.535156 256.914062 C 238.984375 257.28125 238.414062 257.625 237.828125 257.9375 C 237.242188 258.25 236.640625 258.535156 236.027344 258.789062 C 235.410156 259.046875 234.785156 259.269531 234.148438 259.464844 C 233.515625 259.65625 232.871094 259.820312 232.21875 259.949219 C 231.566406 260.078125 230.910156 260.175781 230.246094 260.242188 C 229.585938 260.308594 228.921875 260.34375 228.257812 260.34375 L 208.246094 260.34375 C 207.726562 260.339844 207.222656 260.234375 206.746094 260.035156 C 206.265625 259.832031 205.839844 259.542969 205.476562 259.175781 C 205.109375 258.804688 204.824219 258.378906 204.628906 257.898438 C 204.429688 257.414062 204.332031 256.914062 204.332031 256.394531 L 204.332031 221.324219 C 204.332031 220.726562 204.273438 220.132812 204.15625 219.546875 C 204.039062 218.957031 203.863281 218.386719 203.632812 217.835938 C 203.402344 217.28125 203.121094 216.753906 202.789062 216.257812 C 202.457031 215.757812 202.078125 215.296875 201.65625 214.875 C 201.230469 214.449219 200.769531 214.070312 200.273438 213.738281 C 199.773438 213.40625 199.246094 213.125 198.695312 212.894531 C 198.140625 212.664062 197.570312 212.492188 196.984375 212.375 C 196.394531 212.257812 195.800781 212.195312 195.203125 212.195312 L 179.476562 212.195312 C 178.878906 212.195312 178.285156 212.257812 177.695312 212.375 C 177.109375 212.492188 176.539062 212.664062 175.984375 212.894531 C 175.429688 213.125 174.90625 213.40625 174.40625 213.738281 C 173.910156 214.070312 173.449219 214.449219 173.023438 214.875 C 172.601562 215.296875 172.222656 215.757812 171.890625 216.257812 C 171.558594 216.753906 171.273438 217.28125 171.046875 217.835938 C 170.816406 218.386719 170.640625 218.957031 170.523438 219.546875 C 170.40625 220.132812 170.347656 220.726562 170.347656 221.324219 L 170.347656 256.394531 C 170.347656 256.914062 170.25 257.414062 170.050781 257.898438 C 169.851562 258.378906 169.570312 258.804688 169.203125 259.175781 C 168.839844 259.542969 168.414062 259.832031 167.933594 260.035156 C 167.453125 260.234375 166.953125 260.339844 166.433594 260.34375 L 146.421875 260.34375 C 145.757812 260.34375 145.09375 260.308594 144.433594 260.242188 C 143.769531 260.175781 143.113281 260.078125 142.460938 259.949219 C 141.808594 259.820312 141.164062 259.65625 140.527344 259.464844 C 139.894531 259.269531 139.269531 259.046875 138.652344 258.789062 C 138.039062 258.535156 137.4375 258.25 136.851562 257.9375 C 136.265625 257.625 135.695312 257.28125 135.144531 256.914062 C 134.589844 256.542969 134.058594 256.148438 133.542969 255.726562 C 133.03125 255.304688 132.539062 254.859375 132.066406 254.386719 C 131.597656 253.917969 131.152344 253.425781 130.730469 252.910156 C 130.308594 252.398438 129.910156 251.863281 129.542969 251.3125 C 129.171875 250.757812 128.832031 250.1875 128.515625 249.601562 C 128.203125 249.015625 127.917969 248.414062 127.664062 247.800781 C 127.410156 247.1875 127.183594 246.5625 126.992188 245.925781 C 126.796875 245.289062 126.636719 244.644531 126.507812 243.992188 C 126.375 243.339844 126.277344 242.683594 126.210938 242.023438 C 126.144531 241.363281 126.113281 240.699219 126.113281 240.035156 L 126.113281 172.992188 L 119.480469 172.992188 C 118.777344 172.992188 118.089844 172.886719 117.421875 172.667969 C 116.75 172.453125 116.132812 172.136719 115.5625 171.722656 C 114.996094 171.308594 114.503906 170.816406 114.089844 170.246094 C 113.679688 169.675781 113.363281 169.058594 113.148438 168.386719 C 112.933594 167.71875 112.828125 167.03125 112.828125 166.328125 C 112.832031 165.625 112.945312 164.941406 113.164062 164.273438 C 113.386719 163.605469 113.703125 162.988281 114.121094 162.417969 C 114.539062 161.851562 115.03125 161.363281 115.601562 160.957031 L 175.5625 118.136719 C 176.417969 117.527344 177.3125 116.988281 178.25 116.515625 C 179.1875 116.046875 180.15625 115.652344 181.15625 115.332031 C 182.15625 115.011719 183.175781 114.769531 184.210938 114.605469 C 185.246094 114.445312 186.289062 114.363281 187.339844 114.363281 C 188.390625 114.363281 189.433594 114.445312 190.46875 114.605469 C 191.503906 114.769531 192.523438 115.011719 193.523438 115.332031 C 194.523438 115.652344 195.488281 116.046875 196.429688 116.515625 C 197.367188 116.988281 198.261719 117.527344 199.117188 118.136719 L 259.074219 160.957031 C 259.648438 161.363281 260.144531 161.847656 260.5625 162.414062 C 260.980469 162.976562 261.300781 163.59375 261.523438 164.261719 C 261.742188 164.925781 261.855469 165.613281 261.859375 166.316406 C 261.859375 167.015625 261.753906 167.703125 261.535156 168.371094 Z M 261.535156 168.371094 " fill-opacity="1" fill-rule="nonzero"/></g></svg>