<svg xmlns="http://www.w3.org/2000/svg" xmlns:xlink="http://www.w3.org/1999/xlink" width="500" zoomAndPan="magnify" viewBox="0 0 375 374.999991" height="500" preserveAspectRatio="xMidYMid meet" version="1.0"><defs><clipPath id="d540c7fa89"><path d="M 47.636719 47.636719 L 327.363281 47.636719 L 327.363281 327.363281 L 47.636719 327.363281 Z M 47.636719 47.636719 " clip-rule="nonzero"/></clipPath><clipPath id="e79af2c85e"><path d="M 187.5 47.636719 C 110.253906 47.636719 47.636719 110.253906 47.636719 187.5 C 47.636719 264.746094 110.253906 327.363281 187.5 327.363281 C 264.746094 327.363281 327.363281 264.746094 327.363281 187.5 C 327.363281 110.253906 264.746094 47.636719 187.5 47.636719 Z M 187.5 47.636719 " clip-rule="nonzero"/></clipPath><clipPath id="457494c229"><path d="M 184 94 L 281.632812 94 L 281.632812 186 L 184 186 Z M 184 94 " clip-rule="nonzero"/></clipPath><clipPath id="c0b6d69882"><path d="M 93.382812 94 L 185 94 L 185 192 L 93.382812 192 Z M 93.382812 94 " clip-rule="nonzero"/></clipPath></defs><g clip-path="url(#d540c7fa89)"><g clip-path="url(#e79af2c85e)"><path fill="#fff500" d="M 47.636719 47.636719 L 327.363281 47.636719 L 327.363281 327.363281 L 47.636719 327.363281 Z M 47.636719 47.636719 " fill-opacity="1" fill-rule="nonzero"/></g></g><path fill="#000000" d="M 116.152344 276.59375 C 114.429688 269.507812 113.527344 262.421875 112.914062 255.339844 C 112.304688 248.253906 111.980469 241.171875 111.988281 234.085938 C 111.96875 227 112.296875 219.917969 112.902344 212.832031 C 113.511719 205.75 114.417969 198.664062 116.152344 191.578125 C 117.886719 198.664062 118.792969 205.75 119.402344 212.832031 C 120.007812 219.917969 120.339844 227 120.316406 234.085938 C 120.324219 241.171875 120 248.253906 119.390625 255.339844 C 118.777344 262.421875 117.875 269.507812 116.152344 276.59375 Z M 116.152344 276.59375 " fill-opacity="1" fill-rule="nonzero"/><path fill="#000000" d="M 163.214844 276.59375 C 159.292969 278.328125 155.371094 279.191406 151.449219 279.855469 C 147.527344 280.464844 143.605469 280.75 139.683594 280.753906 C 135.761719 280.761719 131.839844 280.476562 127.917969 279.867188 C 123.996094 279.207031 120.074219 278.335938 116.152344 276.59375 C 120.074219 274.847656 123.996094 273.976562 127.917969 273.316406 C 131.839844 272.707031 135.761719 272.421875 139.683594 272.429688 C 143.605469 272.433594 147.527344 272.71875 151.449219 273.328125 C 155.371094 273.992188 159.292969 274.855469 163.214844 276.59375 Z M 163.214844 276.59375 " fill-opacity="1" fill-rule="nonzero"/><path fill="#000000" d="M 211.792969 276.59375 C 210.066406 263.65625 209.167969 250.71875 208.554688 237.78125 C 208.425781 226.207031 198.429688 216.675781 187.507812 216.996094 C 176.574219 216.679688 166.625 226.234375 166.464844 237.78125 C 165.851562 250.71875 164.945312 263.65625 163.214844 276.59375 C 161.480469 263.65625 160.574219 250.71875 159.964844 237.78125 C 159.402344 230.621094 162.167969 222.898438 167.28125 217.4375 C 172.398438 211.917969 179.9375 208.691406 187.507812 208.671875 C 195.089844 208.710938 202.589844 211.921875 207.734375 217.4375 C 212.828125 222.914062 215.621094 230.609375 215.027344 237.78125 C 214.417969 250.71875 213.515625 263.65625 211.792969 276.59375 Z M 211.792969 276.59375 " fill-opacity="1" fill-rule="nonzero"/><path fill="#000000" d="M 258.851562 276.59375 C 254.929688 278.328125 251.007812 279.191406 247.085938 279.855469 C 243.164062 280.464844 239.242188 280.75 235.320312 280.753906 C 231.398438 280.761719 227.476562 280.476562 223.554688 279.867188 C 219.636719 279.207031 215.714844 278.335938 211.792969 276.59375 C 215.714844 274.847656 219.636719 273.976562 223.554688 273.316406 C 227.476562 272.707031 231.398438 272.421875 235.320312 272.429688 C 239.242188 272.433594 243.164062 272.71875 247.085938 273.328125 C 251.007812 273.992188 254.929688 274.855469 258.851562 276.59375 Z M 258.851562 276.59375 " fill-opacity="1" fill-rule="nonzero"/><path fill="#000000" d="M 258.851562 191.578125 C 260.574219 198.664062 261.476562 205.75 262.089844 212.832031 C 262.699219 219.917969 263.023438 227 263.015625 234.085938 C 263.039062 241.171875 262.707031 248.253906 262.101562 255.339844 C 261.492188 262.421875 260.585938 269.507812 258.851562 276.59375 C 257.117188 269.507812 256.210938 262.421875 255.601562 255.339844 C 254.996094 248.253906 254.667969 241.171875 254.6875 234.085938 C 254.679688 227 255.003906 219.917969 255.613281 212.832031 C 256.226562 205.75 257.128906 198.664062 258.851562 191.578125 Z M 258.851562 191.578125 " fill-opacity="1" fill-rule="nonzero"/><path fill="#000000" d="M 116.152344 191.578125 C 128.042969 189.855469 139.9375 188.953125 151.828125 188.34375 C 163.71875 187.675781 175.609375 187.5 187.503906 187.417969 C 199.394531 187.488281 211.285156 187.667969 223.175781 188.328125 C 235.070312 188.941406 246.960938 189.847656 258.851562 191.578125 C 246.960938 193.3125 235.070312 194.21875 223.175781 194.828125 C 211.285156 195.492188 199.394531 195.667969 187.503906 195.742188 C 175.609375 195.660156 163.71875 195.480469 151.828125 194.816406 C 139.9375 194.203125 128.042969 193.304688 116.152344 191.578125 Z M 116.152344 191.578125 " fill-opacity="1" fill-rule="nonzero"/><g clip-path="url(#457494c229)"><path fill="#000000" d="M 184.464844 94.421875 C 193.742188 100.753906 202.453125 107.6875 210.96875 114.832031 C 219.519531 121.9375 227.738281 129.398438 235.890625 136.929688 C 243.9375 144.570312 251.914062 152.292969 259.558594 160.363281 C 267.234375 168.402344 274.710938 176.652344 281.625 185.507812 C 272.339844 179.183594 263.625 172.253906 255.109375 165.105469 C 246.5625 158 238.34375 150.539062 230.199219 143 C 222.15625 135.351562 214.183594 127.628906 206.542969 119.554688 C 198.863281 111.519531 191.382812 103.269531 184.464844 94.421875 Z M 184.464844 94.421875 " fill-opacity="1" fill-rule="nonzero"/></g><g clip-path="url(#c0b6d69882)"><path fill="#000000" d="M 93.382812 191.578125 C 99.714844 182.304688 106.648438 173.589844 113.789062 165.074219 C 120.894531 156.523438 128.355469 148.308594 135.886719 140.152344 C 143.53125 132.109375 151.25 124.132812 159.324219 116.488281 C 167.359375 108.808594 175.609375 101.332031 184.464844 94.421875 C 178.140625 103.703125 171.210938 112.421875 164.066406 120.933594 C 156.957031 129.484375 149.496094 137.703125 141.960938 145.847656 C 134.308594 153.886719 126.589844 161.863281 118.515625 169.503906 C 110.476562 177.183594 102.230469 184.660156 93.382812 191.578125 Z M 93.382812 191.578125 " fill-opacity="1" fill-rule="nonzero"/></g><path fill="#000000" d="M 152.585938 100.496094 C 150.054688 102.230469 147.527344 103.460938 144.996094 104.703125 C 142.464844 104.617188 139.9375 104.679688 137.40625 104.660156 L 122.226562 104.660156 L 126.390625 100.496094 L 126.390625 123.265625 C 125.125 125.796875 123.894531 128.328125 122.226562 130.855469 C 120.554688 128.328125 119.324219 125.796875 118.058594 123.265625 L 118.058594 96.328125 L 137.40625 96.328125 C 139.9375 96.3125 142.464844 96.371094 144.996094 96.289062 C 147.527344 97.53125 150.054688 98.757812 152.585938 100.496094 Z M 152.585938 100.496094 " fill-opacity="1" fill-rule="nonzero"/></svg>