<svg xmlns="http://www.w3.org/2000/svg" xmlns:xlink="http://www.w3.org/1999/xlink" width="500" zoomAndPan="magnify" viewBox="0 0 375 374.999991" height="500" preserveAspectRatio="xMidYMid meet" version="1.0"><defs><clipPath id="581ada64e7"><path d="M 47.636719 47.636719 L 327.363281 47.636719 L 327.363281 327.363281 L 47.636719 327.363281 Z M 47.636719 47.636719 " clip-rule="nonzero"/></clipPath><clipPath id="37bc77cc88"><path d="M 187.5 47.636719 C 110.253906 47.636719 47.636719 110.253906 47.636719 187.5 C 47.636719 264.746094 110.253906 327.363281 187.5 327.363281 C 264.746094 327.363281 327.363281 264.746094 327.363281 187.5 C 327.363281 110.253906 264.746094 47.636719 187.5 47.636719 Z M 187.5 47.636719 " clip-rule="nonzero"/></clipPath><clipPath id="2c59723164"><path d="M 102 87 L 272.878906 87 L 272.878906 175 L 102 175 Z M 102 87 " clip-rule="nonzero"/></clipPath><clipPath id="eaee7e48a0"><path d="M 117 193 L 258 193 L 258 271.203125 L 117 271.203125 Z M 117 193 " clip-rule="nonzero"/></clipPath></defs><g clip-path="url(#581ada64e7)"><g clip-path="url(#37bc77cc88)"><path fill="#fff500" d="M 47.636719 47.636719 L 327.363281 47.636719 L 327.363281 327.363281 L 47.636719 327.363281 Z M 47.636719 47.636719 " fill-opacity="1" fill-rule="nonzero"/></g></g><g clip-path="url(#2c59723164)"><path fill="#000000" d="M 271.292969 167.171875 L 190.308594 88.296875 C 188.753906 86.78125 186.273438 86.78125 184.71875 88.296875 L 103.730469 167.171875 C 102.144531 168.71875 102.113281 171.257812 103.652344 172.84375 C 105.199219 174.4375 107.738281 174.464844 109.320312 172.921875 L 187.511719 96.765625 L 265.710938 172.921875 C 266.488281 173.679688 267.496094 174.058594 268.503906 174.058594 C 269.546875 174.058594 270.589844 173.65625 271.378906 172.84375 C 272.914062 171.257812 272.882812 168.71875 271.292969 167.171875 Z M 271.292969 167.171875 " fill-opacity="1" fill-rule="nonzero"/></g><g clip-path="url(#eaee7e48a0)"><path fill="#000000" d="M 253.667969 193.445312 C 251.457031 193.445312 249.660156 195.242188 249.660156 197.453125 L 249.660156 255.90625 C 249.660156 259.960938 246.367188 263.257812 242.316406 263.257812 L 132.707031 263.257812 C 128.65625 263.257812 125.367188 259.960938 125.367188 255.90625 L 125.367188 197.453125 C 125.367188 195.242188 123.570312 193.445312 121.359375 193.445312 C 119.144531 193.445312 117.351562 195.242188 117.351562 197.453125 L 117.351562 255.90625 C 117.351562 264.382812 124.238281 271.277344 132.707031 271.277344 L 242.3125 271.277344 C 250.785156 271.277344 257.671875 264.382812 257.671875 255.90625 L 257.671875 197.453125 C 257.675781 195.242188 255.878906 193.445312 253.667969 193.445312 Z M 253.667969 193.445312 " fill-opacity="1" fill-rule="nonzero"/></g></svg>