<svg xmlns="http://www.w3.org/2000/svg" xmlns:xlink="http://www.w3.org/1999/xlink" width="500" zoomAndPan="magnify" viewBox="0 0 375 374.999991" height="500" preserveAspectRatio="xMidYMid meet" version="1.0"><defs><clipPath id="fc7794402c"><path d="M 47.636719 47.636719 L 327.363281 47.636719 L 327.363281 327.363281 L 47.636719 327.363281 Z M 47.636719 47.636719 " clip-rule="nonzero"/></clipPath><clipPath id="65dc488cf1"><path d="M 187.5 47.636719 C 110.253906 47.636719 47.636719 110.253906 47.636719 187.5 C 47.636719 264.746094 110.253906 327.363281 187.5 327.363281 C 264.746094 327.363281 327.363281 264.746094 327.363281 187.5 C 327.363281 110.253906 264.746094 47.636719 187.5 47.636719 Z M 187.5 47.636719 " clip-rule="nonzero"/></clipPath><clipPath id="fe410b82eb"><path d="M 113.675781 98.679688 L 261.425781 98.679688 L 261.425781 262.929688 L 113.675781 262.929688 Z M 113.675781 98.679688 " clip-rule="nonzero"/></clipPath></defs><g clip-path="url(#fc7794402c)"><g clip-path="url(#65dc488cf1)"><path fill="#fff500" d="M 47.636719 47.636719 L 327.363281 47.636719 L 327.363281 327.363281 L 47.636719 327.363281 Z M 47.636719 47.636719 " fill-opacity="1" fill-rule="nonzero"/></g></g><g clip-path="url(#fe410b82eb)"><path fill="#000000" d="M 220.382812 122.785156 C 245.121094 135.066406 261.421875 160.488281 261.421875 189.015625 C 261.421875 229.835938 228.351562 262.929688 187.554688 262.929688 C 146.753906 262.929688 113.683594 229.835938 113.683594 189.015625 C 113.683594 160.488281 129.984375 135.066406 154.722656 122.785156 L 154.722656 152.277344 C 144.539062 161.398438 138.304688 174.617188 138.304688 189.015625 C 138.304688 216.230469 160.355469 238.292969 187.554688 238.292969 C 214.75 238.292969 236.800781 216.230469 236.800781 189.015625 C 236.800781 174.617188 230.566406 161.398438 220.382812 152.277344 Z M 199.863281 180.804688 L 175.242188 180.804688 L 175.242188 98.679688 L 199.863281 98.679688 Z M 199.863281 180.804688 " fill-opacity="1" fill-rule="nonzero"/></g></svg>