<svg xmlns="http://www.w3.org/2000/svg" xmlns:xlink="http://www.w3.org/1999/xlink" width="500" zoomAndPan="magnify" viewBox="0 0 375 374.999991" height="500" preserveAspectRatio="xMidYMid meet" version="1.0"><defs><g/><clipPath id="61836be2eb"><path d="M 98.015625 146 L 270.769531 146 L 270.769531 325.792969 L 98.015625 325.792969 Z M 98.015625 146 " clip-rule="nonzero"/></clipPath><clipPath id="e43f0eff3a"><path d="M 144.171875 165.46875 L 282.25 165.46875 L 282.25 286 L 144.171875 286 Z M 144.171875 165.46875 " clip-rule="nonzero"/></clipPath><clipPath id="7ac8f7e81e"><path d="M 149 49.074219 L 231 49.074219 L 231 109 L 149 109 Z M 149 49.074219 " clip-rule="nonzero"/></clipPath><clipPath id="a0e4774919"><path d="M 92.507812 171 L 144 171 L 144 239 L 92.507812 239 Z M 92.507812 171 " clip-rule="nonzero"/></clipPath><clipPath id="622e3c2887"><path d="M 143.585938 224.035156 L 155.601562 224.035156 L 155.601562 237.277344 L 143.585938 237.277344 Z M 143.585938 224.035156 " clip-rule="nonzero"/></clipPath><clipPath id="a1cce3addd"><path d="M 152.925781 228.148438 C 147.226562 236.101562 145.648438 234.300781 145.5 233.398438 C 145.351562 232.648438 146.023438 231.976562 146.550781 231.074219 C 147.601562 229.425781 149.925781 225.601562 151.425781 224.699219 C 152.175781 224.175781 153 224.101562 153.675781 224.175781 C 154.199219 224.324219 154.726562 224.773438 155.023438 225.226562 C 155.324219 225.675781 155.476562 226.199219 155.398438 226.949219 C 155.25 228.375 154.125 232.199219 153 233.023438 C 152.398438 233.476562 151.351562 233.398438 150.75 233.101562 C 150.074219 232.800781 149.398438 231.898438 149.324219 231.226562 C 149.25 230.550781 149.625 229.5 150.074219 229.050781 C 150.601562 228.601562 151.648438 228.300781 152.324219 228.449219 C 153 228.601562 153.824219 229.351562 154.125 229.949219 C 154.351562 230.625 154.199219 231.75 153.824219 232.273438 C 153.449219 232.875 152.476562 233.398438 151.726562 233.324219 C 150.976562 233.25 149.699219 232.425781 149.398438 231.523438 C 148.949219 230.175781 149.851562 226.875 150.75 225.601562 C 151.273438 224.773438 152.324219 224.101562 153.074219 224.101562 C 153.824219 224.175781 155.023438 225.074219 155.25 225.75 C 155.550781 226.5 155.175781 227.476562 154.648438 228.523438 C 153.675781 230.476562 150.375 234.375 148.726562 235.800781 C 147.75 236.625 147 237.226562 146.175781 237.226562 C 145.351562 237.226562 144.300781 236.625 143.925781 236.023438 C 143.625 235.425781 143.851562 234.675781 144.148438 233.699219 C 144.824219 231.675781 147.976562 225.976562 149.773438 225.074219 C 150.675781 224.625 151.800781 224.851562 152.324219 225.226562 C 152.851562 225.449219 153.074219 226.050781 153.226562 226.574219 C 153.300781 227.101562 152.925781 228.148438 152.925781 228.148438 " clip-rule="nonzero"/></clipPath><clipPath id="876b24b2b1"><path d="M 140 206.046875 L 157.503906 206.046875 L 157.503906 243.398438 L 140 243.398438 Z M 140 206.046875 " clip-rule="nonzero"/></clipPath><clipPath id="523caee8a6"><path d="M 143.398438 232.648438 C 148.050781 228.148438 148.125 223.425781 149.324219 222.148438 C 149.925781 221.476562 150.824219 221.324219 151.5 221.324219 C 152.023438 221.398438 152.699219 221.773438 153 222.148438 C 153.375 222.601562 153.675781 222.976562 153.675781 223.800781 C 153.523438 226.648438 148.125 239.324219 145.425781 241.800781 C 144.226562 242.925781 142.800781 243.375 141.976562 243.148438 C 141.226562 242.925781 140.625 242.175781 140.398438 241.273438 C 139.875 239.699219 140.550781 236.25 141.300781 233.851562 C 142.050781 231.148438 143.699219 227.023438 145.125 225.898438 C 145.875 225.300781 146.851562 225.148438 147.523438 225.449219 C 148.273438 225.675781 149.023438 226.574219 149.324219 227.699219 C 149.851562 229.574219 148.726562 235.949219 147.824219 236.175781 C 147.375 236.324219 146.023438 234.898438 145.949219 234 C 145.800781 232.648438 147.898438 229.726562 148.949219 228.824219 C 149.476562 228.300781 150.074219 228.074219 150.601562 228.074219 C 151.199219 228 151.949219 228.226562 152.398438 228.601562 C 152.851562 228.976562 153.300781 229.574219 153.375 230.175781 C 153.449219 231.148438 152.550781 233.625 151.949219 233.773438 C 151.425781 233.851562 150.824219 232.050781 150.148438 231.976562 C 149.398438 231.824219 147.675781 233.398438 147.449219 233.175781 C 147.226562 232.875 149.625 230.699219 150.148438 229.199219 C 150.75 227.625 150.074219 225.148438 150.601562 223.875 C 150.976562 223.050781 151.648438 222.300781 152.324219 222 C 152.851562 221.773438 153.675781 221.773438 154.199219 222 C 154.875 222.300781 155.550781 223.050781 155.925781 223.875 C 156.375 225.148438 156.148438 227.476562 155.851562 229.199219 C 155.550781 230.925781 154.800781 232.875 154.273438 234.226562 C 153.898438 235.273438 153.898438 236.175781 153.148438 236.773438 C 152.101562 237.601562 148.875 238.648438 148.125 238.050781 C 147.523438 237.675781 147.601562 235.949219 147.898438 234.976562 C 148.273438 233.699219 150 232.648438 150.675781 231.300781 C 151.425781 229.726562 151.800781 228.375 152.023438 226.050781 C 152.476562 221.925781 150.375 210.675781 151.125 208.050781 C 151.425781 207.300781 151.726562 207 152.175781 206.625 C 152.625 206.324219 153.300781 206.101562 153.898438 206.101562 C 154.425781 206.175781 155.101562 206.324219 155.550781 206.699219 C 156.074219 207.226562 156.601562 208.351562 156.523438 209.101562 C 156.523438 209.851562 155.851562 210.898438 155.175781 211.273438 C 154.5 211.648438 153.226562 211.726562 152.550781 211.351562 C 151.875 211.050781 151.199219 210 151.050781 209.25 C 150.976562 208.5 151.351562 207.375 151.949219 206.851562 C 152.550781 206.324219 153.75 206.101562 154.5 206.175781 C 155.023438 206.324219 155.625 206.699219 155.925781 207.148438 C 156.300781 207.601562 156.375 207.976562 156.523438 208.800781 C 157.050781 211.125 157.425781 218.324219 157.199219 222.375 C 157.050781 225.75 156.449219 229.199219 155.699219 231.675781 C 155.175781 233.476562 154.574219 235.125 153.75 236.175781 C 153.226562 236.925781 152.324219 237.898438 152.023438 237.75 C 151.800781 237.601562 152.773438 235.574219 152.324219 234.976562 C 151.800781 234.226562 148.800781 234.675781 148.5 234 C 148.273438 233.398438 149.550781 232.648438 149.851562 231.601562 C 150.449219 229.800781 150.074219 225.449219 150.601562 223.875 C 150.898438 223.125 151.125 222.601562 151.726562 222.300781 C 152.476562 221.925781 154.125 221.851562 154.800781 222.300781 C 155.476562 222.675781 155.851562 223.574219 156 224.550781 C 156.226562 226.050781 155.398438 228.675781 154.875 230.476562 C 154.351562 232.050781 153.675781 233.625 153 234.75 C 152.476562 235.574219 152.023438 236.25 151.273438 236.625 C 150.375 237 148.574219 237.148438 147.824219 236.625 C 147.148438 236.023438 147 234.226562 147.148438 233.023438 C 147.226562 231.75 147.898438 230.175781 148.5 229.351562 C 148.949219 228.75 149.398438 228.300781 150 228.148438 C 150.75 228 152.324219 228.523438 152.851562 229.050781 C 153.300781 229.5 153.449219 230.25 153.375 230.851562 C 153.375 231.375 153.148438 231.75 152.699219 232.425781 C 151.726562 233.925781 148.273438 238.351562 146.476562 239.023438 C 145.5 239.324219 144.449219 239.175781 143.773438 238.648438 C 143.101562 238.199219 142.648438 237.300781 142.574219 236.101562 C 142.351562 233.851562 144.074219 226.574219 145.648438 225.523438 C 146.476562 225.074219 147.976562 225.449219 148.574219 226.050781 C 149.175781 226.574219 149.25 227.699219 149.101562 228.898438 C 148.949219 231 146.773438 235.726562 145.574219 237.523438 C 144.976562 238.425781 144.449219 239.023438 143.699219 239.398438 C 143.023438 239.773438 141.523438 240.226562 141.148438 239.699219 C 140.175781 238.351562 146.925781 225.074219 148.949219 222.675781 C 149.699219 221.773438 150.226562 221.398438 150.898438 221.324219 C 151.574219 221.25 152.550781 221.699219 153 222.148438 C 153.449219 222.601562 153.601562 223.050781 153.675781 223.800781 C 153.675781 225.449219 152.101562 229.574219 151.199219 231.300781 C 150.75 232.351562 150.449219 232.800781 149.699219 233.550781 C 148.648438 234.601562 146.699219 236.476562 145.425781 236.625 C 144.523438 236.773438 143.398438 236.175781 143.023438 235.648438 C 142.648438 235.273438 142.574219 234.601562 142.648438 234.074219 C 142.726562 233.550781 143.398438 232.648438 143.398438 232.648438 " clip-rule="nonzero"/></clipPath></defs><g clip-path="url(#61836be2eb)"><path fill="#fab685" d="M 269.265625 248.792969 C 269.449219 248.875 269.636719 249.035156 269.816406 249.023438 C 270.59375 248.972656 270.703125 249.023438 270.71875 249.792969 C 270.738281 250.730469 270.722656 251.667969 270.691406 252.609375 C 270.640625 254.050781 270.511719 255.492188 270.507812 256.9375 C 270.496094 263.273438 270.492188 269.609375 270.53125 275.949219 C 270.558594 281.109375 270.695312 286.265625 270.699219 291.425781 C 270.699219 295.019531 270.488281 298.613281 270.503906 302.207031 C 270.511719 304.542969 267.613281 316.445312 266.027344 319.132812 C 264.425781 321.851562 261.964844 323.523438 258.90625 324.285156 C 256.449219 324.898438 253.96875 325.339844 251.429688 325.546875 C 246.859375 325.910156 242.289062 325.796875 237.726562 325.671875 C 235.089844 325.601562 232.460938 325.152344 229.835938 324.832031 C 227.402344 324.53125 224.972656 324.195312 222.542969 323.839844 C 219.039062 323.328125 215.539062 322.769531 212.035156 322.253906 C 208.683594 321.757812 205.328125 321.300781 201.980469 320.796875 C 198.628906 320.292969 195.277344 319.808594 191.941406 319.210938 C 185.042969 317.972656 178.152344 316.679688 171.265625 315.375 C 168.207031 314.792969 165.167969 314.082031 162.109375 313.488281 C 158.363281 312.757812 154.609375 312.066406 150.851562 311.394531 C 148.59375 310.992188 146.328125 310.597656 144.050781 310.308594 C 141.75 310.019531 139.441406 310.160156 137.195312 310.761719 C 132.894531 311.914062 128.648438 313.230469 124.652344 315.25 C 124.132812 315.515625 123.632812 315.828125 123.113281 316.09375 C 121.902344 316.710938 120.660156 316.738281 119.359375 316.371094 C 116.878906 315.667969 115.039062 314.238281 114.035156 311.832031 C 113.773438 311.207031 113.351562 310.820312 112.765625 310.527344 C 111.9375 310.109375 111.121094 309.660156 110.316406 309.195312 C 110.128906 309.085938 109.957031 308.882812 109.859375 308.683594 C 109.175781 307.320312 108.820312 305.929688 109.296875 304.386719 C 109.558594 303.542969 109.632812 302.636719 109.792969 301.757812 C 111.164062 302.496094 112.566406 303.179688 113.898438 303.988281 C 115.449219 304.929688 117.09375 305.636719 118.820312 306.140625 C 120.671875 306.679688 122.570312 307 124.425781 306.15625 C 125.492188 305.671875 126.578125 305.183594 127.535156 304.523438 C 131.394531 301.851562 134.980469 298.847656 138.234375 295.449219 C 140.101562 293.496094 141.441406 291.242188 142.265625 288.664062 C 142.824219 286.917969 143.5 285.203125 144.117188 283.476562 C 144.414062 282.652344 144.304688 282.136719 143.808594 281.949219 C 143.300781 281.761719 142.925781 282.058594 142.617188 282.921875 C 141.871094 284.980469 141.125 287.035156 140.402344 289.097656 C 139.75 290.976562 138.753906 292.640625 137.332031 294.023438 C 135.710938 295.605469 134.125 297.234375 132.402344 298.699219 C 130.441406 300.363281 128.394531 301.9375 126.289062 303.410156 C 124.816406 304.4375 123.175781 305.269531 121.269531 305.042969 C 119.515625 304.835938 117.839844 304.355469 116.285156 303.46875 C 114.453125 302.421875 112.613281 301.390625 110.753906 300.398438 C 109.773438 299.875 109.523438 300.023438 109.214844 301.121094 C 106.707031 299.425781 104.566406 297.335938 102.648438 295.007812 C 100.707031 292.648438 99.273438 290.019531 98.65625 287.015625 C 98.34375 285.496094 98.097656 283.933594 98.089844 282.386719 C 98.070312 278.914062 98.128906 275.433594 98.324219 271.964844 C 98.488281 269.011719 98.804688 266.0625 99.191406 263.128906 C 99.742188 259 100.410156 254.886719 101.042969 250.769531 C 101.675781 246.648438 102.3125 242.53125 102.996094 238.417969 C 103.179688 237.3125 103.410156 236.21875 103.265625 235.089844 C 103.609375 235.136719 103.960938 235.15625 104.296875 235.234375 C 108.082031 236.128906 111.867188 237.03125 115.65625 237.929688 C 115.5625 238.265625 115.5 238.613281 115.371094 238.933594 C 114.453125 241.210938 113.433594 243.449219 112.617188 245.761719 C 111.09375 250.058594 109.855469 254.445312 108.921875 258.914062 C 108.753906 259.710938 108.578125 260.507812 108.4375 261.3125 C 108.351562 261.820312 108.550781 262.25 109.027344 262.472656 C 109.390625 262.640625 109.796875 262.304688 110.019531 261.703125 C 110.097656 261.484375 110.171875 261.257812 110.210938 261.03125 C 111.070312 256.066406 112.5 251.246094 114.097656 246.484375 C 115.027344 243.71875 116.226562 241.042969 117.304688 238.328125 C 117.648438 237.722656 118.015625 237.128906 118.332031 236.511719 C 122.6875 227.941406 127.035156 219.371094 131.386719 210.796875 C 133.984375 205.675781 136.523438 200.519531 139.199219 195.441406 C 140.699219 192.589844 141.953125 189.65625 142.921875 186.597656 C 143.519531 184.71875 143.722656 182.796875 143.632812 180.816406 C 143.488281 177.777344 142.554688 174.90625 141.949219 171.964844 C 141.921875 171.824219 141.792969 171.703125 141.710938 171.574219 C 141.515625 170.070312 141.359375 168.5625 141.117188 167.066406 C 140.492188 163.203125 140.355469 159.308594 140.546875 155.414062 C 140.65625 153.179688 141.585938 151.273438 143.492188 149.953125 C 144.449219 149.289062 145.402344 148.617188 146.359375 147.949219 C 146.75 148.214844 147.101562 148.382812 147.644531 148.226562 C 149.777344 147.613281 151.945312 147.113281 154.078125 146.507812 C 155.21875 146.179688 156.328125 145.902344 157.511719 146.296875 C 158.136719 146.503906 158.800781 146.597656 159.429688 146.808594 C 160.976562 147.332031 162.523438 147.871094 164.050781 148.449219 C 164.953125 148.789062 165.527344 149.445312 165.652344 150.445312 C 165.691406 150.75 165.800781 151.050781 165.855469 151.355469 C 166.390625 154.382812 166.929688 157.410156 167.453125 160.441406 C 167.601562 161.304688 167.523438 162.132812 167.054688 162.929688 C 166.242188 164.308594 165.5 165.726562 164.710938 167.121094 C 164.335938 167.792969 163.925781 168.445312 163.542969 169.089844 C 161.382812 168.195312 160.601562 166.722656 161.117188 164.601562 C 161.316406 163.769531 161.5625 162.949219 161.804688 162.125 C 162.097656 161.113281 162.425781 160.109375 162.710938 159.097656 C 162.921875 158.339844 162.808594 158.191406 162.171875 157.78125 C 161.824219 157.558594 161.511719 157.246094 161.273438 156.914062 C 160.296875 155.546875 159.359375 154.152344 158.402344 152.773438 C 158.246094 152.550781 158.109375 152.261719 157.890625 152.15625 C 157.644531 152.039062 157.238281 151.976562 157.046875 152.105469 C 156.855469 152.234375 156.722656 152.65625 156.78125 152.898438 C 156.863281 153.261719 157.136719 153.582031 157.332031 153.921875 C 157.617188 154.414062 157.90625 154.902344 158.199219 155.40625 C 156.71875 156.363281 155.34375 157.246094 153.980469 158.144531 C 153.460938 158.484375 152.976562 158.886719 152.460938 159.234375 C 151.996094 159.546875 151.859375 159.957031 152.089844 160.445312 C 152.277344 160.84375 152.710938 160.847656 153.289062 160.472656 C 154.140625 159.921875 154.96875 159.335938 155.832031 158.800781 C 156.914062 158.125 158.015625 157.484375 159.171875 156.789062 C 159.675781 157.492188 160.066406 158.121094 160.546875 158.671875 C 160.9375 159.121094 160.957031 159.523438 160.78125 160.0625 C 160.3125 161.511719 159.890625 162.972656 159.472656 164.4375 C 158.597656 167.511719 160.683594 169.699219 162.65625 170.628906 C 163.664062 171.101562 164.328125 170.894531 164.949219 169.949219 C 165.480469 169.128906 165.949219 168.269531 166.441406 167.429688 C 167.71875 165.242188 168.738281 162.90625 170.296875 160.882812 C 170.726562 160.320312 171.132812 159.78125 171.972656 159.761719 C 172.046875 159.992188 172.144531 160.167969 172.160156 160.351562 C 172.335938 162.371094 172.496094 164.390625 172.671875 166.410156 C 172.757812 167.417969 172.875 168.425781 172.976562 169.433594 C 173.101562 170.632812 173.3125 171.832031 173.328125 173.035156 C 173.371094 176.136719 172.582031 179.0625 171.214844 181.828125 C 170.316406 183.648438 169.351562 185.4375 168.390625 187.230469 C 168.085938 187.800781 167.890625 188.371094 167.984375 189.019531 C 166.585938 191.183594 165.320312 193.453125 163.75 195.488281 C 161.710938 198.136719 160.496094 201.0625 159.953125 204.320312 C 159.625 206.289062 159.242188 208.242188 158.910156 210.207031 C 157.78125 216.875 156.671875 223.546875 155.539062 230.214844 C 154.070312 238.847656 152.261719 247.414062 150.242188 255.933594 C 148.300781 264.148438 145.910156 272.257812 144.40625 280.574219 C 144.335938 280.976562 144.28125 281.382812 144.203125 281.890625 C 145.683594 281.96875 147.007812 282.015625 148.332031 282.105469 C 153.632812 282.460938 158.933594 282.820312 164.230469 283.195312 C 167.816406 283.445312 171.410156 283.621094 174.980469 284.007812 C 181.046875 284.664062 187.117188 285.164062 193.214844 285.28125 C 199.9375 285.414062 206.660156 285.417969 213.378906 285.53125 C 216.660156 285.585938 219.941406 285.820312 223.222656 285.894531 C 226.933594 285.972656 230.644531 285.964844 234.355469 285.992188 C 234.570312 286.527344 234.964844 286.734375 235.539062 286.777344 C 236.503906 286.847656 237.476562 286.945312 238.425781 287.136719 C 239.914062 287.429688 241.402344 287.75 242.859375 288.164062 C 245.589844 288.945312 248.300781 289.796875 251.023438 290.617188 C 251.207031 290.671875 251.417969 290.777344 251.582031 290.730469 C 251.855469 290.648438 252.230469 290.527344 252.324219 290.3125 C 252.425781 290.09375 252.3125 289.703125 252.160156 289.472656 C 252.03125 289.273438 251.730469 289.144531 251.480469 289.0625 C 249.105469 288.308594 246.75 287.488281 244.34375 286.84375 C 241.226562 286.007812 238.085938 285.207031 234.808594 285.332031 C 234.296875 275.214844 234.082031 265.097656 235.320312 254.808594 C 235.480469 254.773438 235.832031 254.667969 236.191406 254.625 C 237.625 254.46875 239.074219 254.390625 240.5 254.171875 C 244.207031 253.617188 247.910156 253.023438 251.609375 252.402344 C 255.5 251.753906 259.394531 251.109375 263.265625 250.351562 C 265.289062 249.953125 267.265625 249.320312 269.265625 248.792969 " fill-opacity="1" fill-rule="nonzero"/></g><g clip-path="url(#e43f0eff3a)"><path fill="#1f3a40" d="M 233.191406 233.898438 C 233.152344 233.902344 233.117188 233.902344 233.082031 233.902344 C 233.195312 236.394531 233.292969 238.882812 233.421875 241.371094 C 233.566406 244.203125 233.710938 247.039062 233.910156 249.867188 C 233.988281 250.988281 234.214844 252.09375 234.371094 253.207031 C 234.425781 253.613281 234.644531 253.847656 235.0625 253.847656 C 235.550781 253.847656 235.757812 253.558594 235.769531 253.101562 C 235.777344 252.828125 235.796875 252.550781 235.765625 252.28125 C 235.625 251.050781 235.417969 249.824219 235.320312 248.585938 C 235.128906 246.1875 234.933594 243.785156 234.851562 241.378906 C 234.71875 237.523438 234.679688 233.664062 234.601562 229.808594 C 234.589844 229.183594 234.601562 228.558594 234.597656 227.933594 C 234.59375 227.738281 234.640625 227.5 234.542969 227.359375 C 234.40625 227.160156 234.148438 226.898438 233.960938 226.910156 C 233.710938 226.929688 233.394531 227.136719 233.257812 227.355469 C 233.132812 227.558594 233.191406 227.886719 233.191406 228.160156 C 233.1875 230.070312 233.191406 231.984375 233.191406 233.898438 Z M 233.429688 216.699219 C 233.429688 217.679688 233.417969 218.65625 233.433594 219.632812 C 233.441406 219.9375 233.445312 220.289062 233.589844 220.535156 C 233.742188 220.800781 234.148438 221.195312 234.285156 221.140625 C 234.59375 221.019531 234.863281 220.683594 235.03125 220.371094 C 235.144531 220.160156 235.066406 219.835938 235.066406 219.5625 C 235.070312 217.765625 235.035156 215.96875 235.078125 214.167969 C 235.109375 212.886719 235.167969 211.597656 235.339844 210.332031 C 235.578125 208.5625 235.90625 206.804688 236.25 205.058594 C 236.949219 201.496094 237.960938 198.011719 239.332031 194.660156 C 240.527344 191.738281 241.945312 188.910156 243.265625 186.039062 C 243.394531 185.757812 243.597656 185.488281 243.648438 185.191406 C 243.683594 184.96875 243.59375 184.613281 243.433594 184.5 C 243.253906 184.378906 242.914062 184.40625 242.675781 184.476562 C 242.523438 184.519531 242.40625 184.742188 242.308594 184.90625 C 241.992188 185.441406 241.675781 185.976562 241.382812 186.527344 C 238.957031 191.082031 236.945312 195.804688 235.636719 200.8125 C 234.28125 206.027344 233.382812 211.296875 233.429688 216.699219 Z M 234.355469 285.992188 C 230.644531 285.964844 226.933594 285.972656 223.222656 285.894531 C 219.941406 285.820312 216.660156 285.585938 213.378906 285.53125 C 206.660156 285.417969 199.9375 285.414062 193.214844 285.28125 C 187.117188 285.164062 181.046875 284.664062 174.980469 284.007812 C 171.410156 283.621094 167.816406 283.445312 164.230469 283.195312 C 158.933594 282.820312 153.632812 282.460938 148.332031 282.105469 C 147.007812 282.015625 145.683594 281.96875 144.203125 281.890625 C 144.28125 281.382812 144.335938 280.976562 144.40625 280.574219 C 145.910156 272.257812 148.300781 264.148438 150.242188 255.933594 C 152.261719 247.414062 154.070312 238.847656 155.539062 230.214844 C 156.671875 223.546875 157.78125 216.875 158.910156 210.207031 C 159.242188 208.242188 159.625 206.289062 159.953125 204.320312 C 160.496094 201.0625 161.710938 198.136719 163.75 195.488281 C 165.320312 193.453125 166.585938 191.183594 167.984375 189.019531 C 168.84375 189.195312 169.46875 188.921875 169.804688 188.078125 C 169.839844 187.988281 169.976562 187.9375 170.0625 187.867188 C 171.476562 189.160156 172.832031 190.523438 174.320312 191.722656 C 176.640625 193.601562 177.710938 193.628906 180.25 192.09375 C 182.15625 190.9375 184.070312 189.792969 185.929688 188.566406 C 197.214844 181.101562 208.484375 173.617188 219.757812 166.136719 C 219.882812 166.054688 219.980469 165.929688 220.09375 165.824219 C 220.460938 165.527344 220.851562 165.488281 221.277344 165.699219 C 221.863281 165.980469 222.441406 166.28125 223.042969 166.523438 C 225.648438 167.582031 228.265625 168.605469 230.863281 169.675781 C 235.554688 171.609375 240.257812 173.519531 244.914062 175.535156 C 247.886719 176.824219 250.8125 178.226562 253.703125 179.6875 C 260.542969 183.152344 265.230469 188.675781 268.414062 195.539062 C 270.578125 200.199219 271.9375 205.136719 273.082031 210.136719 C 273.941406 213.90625 274.679688 217.714844 275.789062 221.414062 C 277.078125 225.710938 278.683594 229.917969 280.222656 234.132812 C 281.113281 236.570312 281.621094 239.09375 282.164062 241.613281 C 282.222656 241.878906 282.234375 242.15625 282.242188 242.429688 C 282.308594 243.972656 281.96875 244.578125 280.496094 245.082031 C 277.136719 246.242188 273.757812 247.335938 270.386719 248.453125 C 270.019531 248.574219 269.640625 248.679688 269.265625 248.792969 C 267.265625 249.320312 265.289062 249.953125 263.265625 250.351562 C 259.394531 251.109375 255.5 251.753906 251.609375 252.402344 C 247.910156 253.023438 244.207031 253.617188 240.5 254.171875 C 239.074219 254.390625 237.625 254.46875 236.191406 254.625 C 235.832031 254.667969 235.480469 254.773438 235.320312 254.808594 C 234.082031 265.097656 234.296875 275.214844 234.808594 285.332031 C 234.65625 285.550781 234.507812 285.773438 234.355469 285.992188 " fill-opacity="1" fill-rule="nonzero"/></g><path fill="#fab583" d="M 218.515625 112.242188 C 219.265625 111.101562 220.0625 110.636719 221.117188 110.617188 C 221.648438 110.605469 222.035156 110.382812 222.113281 109.828125 C 222.171875 109.386719 221.703125 109.011719 221.054688 108.976562 C 219.601562 108.886719 218.488281 109.570312 217.613281 110.644531 C 216.53125 111.96875 215.929688 113.542969 215.640625 115.210938 C 215.515625 115.933594 215.585938 116.695312 215.605469 117.433594 C 215.617188 117.832031 215.859375 118.089844 216.28125 118.097656 C 216.699219 118.109375 216.929688 117.871094 216.988281 117.472656 C 217.011719 117.316406 216.996094 117.160156 217.015625 117.003906 C 217.09375 116.308594 217.144531 115.605469 217.277344 114.921875 C 217.429688 114.136719 217.640625 114.003906 218.460938 113.898438 C 219 113.832031 219.546875 113.765625 220.066406 113.621094 C 220.460938 113.515625 220.773438 113.226562 220.6875 112.757812 C 220.613281 112.332031 220.257812 112.246094 219.882812 112.242188 C 219.507812 112.238281 219.136719 112.242188 218.515625 112.242188 Z M 192.175781 132.796875 C 192.1875 132.152344 191.652344 131.726562 190.859375 131.851562 C 189.75 132.027344 188.632812 132.226562 187.542969 132.5 C 183.960938 133.410156 180.597656 134.808594 177.664062 137.113281 C 177.449219 137.28125 177.152344 137.441406 177.078125 137.664062 C 176.96875 138 176.898438 138.445312 177.035156 138.738281 C 177.226562 139.140625 177.679688 139.105469 178.066406 138.917969 C 178.207031 138.847656 178.34375 138.769531 178.460938 138.671875 C 181.152344 136.472656 184.335938 135.332031 187.625 134.453125 C 188.824219 134.132812 190.054688 133.914062 191.277344 133.679688 C 191.796875 133.578125 192.15625 133.378906 192.175781 132.796875 Z M 176.882812 114.777344 C 176.882812 114.269531 176.898438 113.761719 176.878906 113.253906 C 176.863281 112.804688 176.640625 112.503906 176.160156 112.511719 C 175.671875 112.519531 175.492188 112.832031 175.460938 113.28125 C 175.390625 114.210938 175.351562 115.148438 175.230469 116.070312 C 174.929688 118.28125 174.5625 120.472656 173.277344 122.382812 C 173.019531 122.765625 172.847656 123.210938 172.660156 123.640625 C 172.167969 124.742188 172.441406 125.746094 173.25 126.542969 C 174.828125 128.101562 176.84375 128.84375 178.941406 129.371094 C 179.386719 129.484375 179.824219 129.347656 179.925781 128.796875 C 180.007812 128.335938 179.90625 127.933594 179.386719 127.773438 C 179.089844 127.683594 178.769531 127.640625 178.492188 127.511719 C 177.335938 126.96875 176.15625 126.453125 175.046875 125.820312 C 173.855469 125.144531 173.90625 124.554688 174.597656 123.492188 C 176.332031 120.820312 176.640625 117.816406 176.882812 114.777344 Z M 159.824219 97.480469 C 159.824219 97.488281 159.824219 97.496094 159.824219 97.503906 C 159.355469 97.503906 158.886719 97.460938 158.421875 97.511719 C 157.546875 97.601562 157.089844 98.066406 157.148438 98.738281 C 157.199219 99.355469 157.679688 99.710938 158.5 99.746094 C 160.484375 99.824219 162.472656 99.980469 164.457031 99.964844 C 165.890625 99.957031 167.347656 99.839844 168.742188 99.546875 C 170.328125 99.207031 171.554688 97.492188 171.53125 96.035156 C 171.523438 95.503906 171.320312 95.109375 170.792969 94.984375 C 170.253906 94.851562 169.894531 95.136719 169.671875 95.605469 C 169.589844 95.78125 169.5625 95.976562 169.507812 96.167969 C 169.234375 97.101562 168.597656 97.621094 167.644531 97.683594 C 166.597656 97.75 165.546875 97.792969 164.5 97.761719 C 162.941406 97.707031 161.382812 97.578125 159.824219 97.480469 Z M 158.882812 117.347656 C 157.695312 117.273438 156.652344 117.648438 155.628906 118.179688 C 154.925781 118.542969 154.386719 119.019531 154.371094 119.855469 C 154.351562 120.683594 154.84375 121.261719 155.519531 121.628906 C 157.179688 122.527344 158.933594 122.824219 160.8125 122.445312 C 161.671875 122.269531 162.347656 121.898438 162.863281 121.222656 C 163.296875 120.65625 163.457031 120.015625 163.058594 119.371094 C 162.558594 118.566406 161.945312 117.855469 160.945312 117.664062 C 160.265625 117.535156 159.574219 117.453125 158.882812 117.347656 Z M 197.746094 121.277344 C 198.910156 121.136719 199.875 121.160156 200.746094 120.878906 C 201.722656 120.5625 202.726562 120.113281 203.511719 119.472656 C 204.492188 118.667969 204.277344 117.34375 203.160156 116.75 C 202.488281 116.394531 201.707031 116.242188 200.972656 116.011719 C 199.78125 115.636719 198.578125 115.878906 197.402344 116.046875 C 196.132812 116.226562 194.886719 116.597656 193.953125 117.589844 C 193.074219 118.523438 193.113281 119.375 194.097656 120.1875 C 194.363281 120.40625 194.683594 120.601562 195.011719 120.683594 C 195.980469 120.929688 196.96875 121.113281 197.746094 121.277344 Z M 158.449219 141.90625 C 156.414062 139.269531 154.558594 136.527344 153.515625 133.324219 C 152.738281 130.941406 152.269531 128.5 152.21875 125.984375 C 152.164062 123.058594 152.042969 120.132812 152.046875 117.207031 C 152.054688 114.515625 152.179688 111.824219 152.273438 109.136719 C 152.335938 107.34375 152.433594 105.550781 152.511719 103.761719 C 152.570312 103.421875 152.652344 103.078125 152.679688 102.738281 C 152.949219 99.347656 153.214844 95.953125 153.464844 92.5625 C 153.5 92.089844 153.652344 91.796875 154.09375 91.550781 C 154.835938 91.128906 155.546875 90.636719 156.214844 90.109375 C 158.71875 88.125 160.785156 85.730469 162.640625 83.144531 C 162.878906 82.808594 163.179688 82.515625 163.375 82.289062 C 164.46875 82.566406 165.40625 82.796875 166.339844 83.050781 C 169.433594 83.886719 172.519531 84.738281 175.613281 85.570312 C 176.035156 85.683594 176.476562 85.734375 176.910156 85.8125 C 176.953125 85.738281 176.996094 85.664062 177.039062 85.585938 C 176.671875 85 176.308594 84.410156 175.945312 83.820312 C 175.71875 83.457031 175.445312 83.109375 175.289062 82.71875 C 175.203125 82.5 175.21875 82.089844 175.359375 81.972656 C 175.554688 81.804688 175.9375 81.734375 176.195312 81.800781 C 176.5625 81.894531 176.882812 82.15625 177.230469 82.339844 C 179.230469 83.394531 181.203125 84.511719 183.246094 85.480469 C 184.6875 86.171875 186.21875 86.675781 187.71875 87.234375 C 191.632812 88.691406 195.550781 90.132812 199.46875 91.578125 C 199.53125 92.078125 199.117188 92 198.847656 92.074219 C 196.59375 92.679688 194.550781 93.714844 192.671875 95.089844 C 192.195312 95.4375 191.726562 95.785156 191.242188 96.113281 C 188.960938 97.660156 186.636719 97.878906 184.246094 96.355469 C 183.640625 95.96875 183.121094 96.03125 182.78125 96.480469 C 182.445312 96.925781 182.488281 97.472656 183.074219 97.914062 C 183.6875 98.378906 184.367188 98.84375 185.089844 99.050781 C 187.742188 99.820312 190.273438 99.542969 192.570312 97.886719 C 193.171875 97.453125 193.769531 97.011719 194.378906 96.589844 C 195.964844 95.488281 197.679688 94.660156 199.558594 94.1875 C 200.945312 93.839844 201.050781 93.695312 201.03125 92.273438 C 203.855469 93.402344 206.664062 94.582031 209.664062 95.179688 C 210.136719 95.277344 210.632812 95.269531 211.332031 95.328125 C 211.015625 94.488281 210.75 93.859375 210.535156 93.207031 C 210.386719 92.757812 210.3125 92.269531 210.730469 91.902344 C 211.097656 91.574219 211.535156 91.617188 211.941406 91.792969 C 213.867188 92.632812 215.78125 93.488281 217.703125 94.335938 C 217.617188 95.785156 217.550781 97.066406 217.460938 98.351562 C 217.265625 101.191406 217.101562 104.035156 216.320312 106.804688 C 216.167969 107.351562 216.152344 107.941406 216.074219 108.511719 C 216.039062 108.539062 216 108.5625 215.960938 108.585938 C 215.984375 108.585938 216.019531 108.59375 216.027344 108.582031 C 216.042969 108.558594 216.046875 108.523438 216.054688 108.492188 C 216.3125 108.335938 216.574219 108.1875 216.824219 108.019531 C 217.503906 107.566406 218.144531 107.03125 218.867188 106.65625 C 220.457031 105.835938 222.101562 105.484375 223.796875 106.402344 C 223.925781 106.472656 224.101562 106.449219 224.253906 106.46875 C 224.484375 106.777344 224.691406 107.105469 224.945312 107.386719 C 225.574219 108.085938 225.871094 108.902344 225.941406 109.828125 C 226.074219 111.550781 225.691406 113.167969 224.976562 114.710938 C 223.492188 117.917969 221.722656 120.9375 219.25 123.492188 C 218.847656 123.90625 218.371094 124.269531 217.878906 124.578125 C 216.398438 125.511719 214.742188 125.335938 213.476562 124.132812 C 213.140625 123.8125 212.871094 123.425781 212.472656 122.953125 C 212.273438 123.339844 212.144531 123.515625 212.089844 123.710938 C 210.910156 128.003906 209.601562 132.25 207.808594 136.335938 C 207.597656 136.816406 207.507812 137.347656 207.359375 137.859375 C 207.128906 138.09375 206.839844 138.300781 206.675781 138.574219 C 204.238281 142.613281 201.332031 146.238281 197.492188 149.039062 C 194.222656 151.425781 190.738281 153.359375 186.722656 154.195312 C 184.441406 154.667969 182.140625 154.621094 179.855469 154.46875 C 178.6875 154.394531 177.546875 153.894531 176.390625 153.589844 C 176.773438 152.738281 177.203125 151.902344 177.523438 151.027344 C 178.035156 149.636719 178.019531 148.273438 177.039062 147.046875 C 176.167969 145.957031 175.324219 144.832031 174.394531 143.789062 C 172.949219 142.164062 171.597656 140.460938 169.964844 139 C 168.363281 137.558594 166.546875 137.632812 164.753906 139.125 C 164.5625 139.285156 164.316406 139.394531 164.074219 139.472656 C 163.417969 139.691406 162.722656 139.808594 162.101562 140.089844 C 160.863281 140.652344 159.664062 141.296875 158.449219 141.90625 " fill-opacity="1" fill-rule="nonzero"/><g clip-path="url(#7ac8f7e81e)"><path fill="#1d1513" d="M 216.074219 108.511719 C 216.152344 107.941406 216.167969 107.351562 216.320312 106.804688 C 217.101562 104.035156 217.265625 101.191406 217.460938 98.351562 C 217.550781 97.066406 217.617188 95.785156 217.703125 94.335938 C 215.78125 93.488281 213.867188 92.632812 211.941406 91.792969 C 211.535156 91.617188 211.097656 91.574219 210.730469 91.902344 C 210.3125 92.269531 210.386719 92.757812 210.535156 93.207031 C 210.75 93.859375 211.015625 94.488281 211.332031 95.328125 C 210.632812 95.269531 210.136719 95.277344 209.664062 95.179688 C 206.664062 94.582031 203.855469 93.402344 201.03125 92.273438 C 200.511719 92.039062 199.988281 91.808594 199.46875 91.578125 C 195.550781 90.132812 191.632812 88.691406 187.71875 87.234375 C 186.21875 86.675781 184.6875 86.171875 183.246094 85.480469 C 181.203125 84.511719 179.230469 83.394531 177.230469 82.339844 C 176.882812 82.15625 176.5625 81.894531 176.195312 81.800781 C 175.9375 81.734375 175.554688 81.804688 175.359375 81.972656 C 175.21875 82.089844 175.203125 82.5 175.289062 82.71875 C 175.445312 83.109375 175.71875 83.457031 175.945312 83.820312 C 176.308594 84.410156 176.671875 85 177.039062 85.585938 C 176.996094 85.664062 176.953125 85.738281 176.910156 85.8125 C 176.476562 85.734375 176.035156 85.683594 175.613281 85.570312 C 172.519531 84.738281 169.433594 83.886719 166.339844 83.050781 C 165.40625 82.796875 164.46875 82.566406 163.375 82.289062 C 163.179688 82.515625 162.878906 82.808594 162.640625 83.144531 C 160.785156 85.730469 158.71875 88.125 156.214844 90.109375 C 155.546875 90.636719 154.835938 91.128906 154.09375 91.550781 C 153.652344 91.796875 153.5 92.089844 153.464844 92.5625 C 153.214844 95.953125 152.949219 99.347656 152.679688 102.738281 C 152.652344 103.078125 152.570312 103.421875 152.511719 103.761719 C 150.84375 101.097656 149.863281 98.160156 149.464844 95.085938 C 148.367188 86.617188 149.863281 78.570312 153.832031 71.015625 C 154.609375 69.535156 155.636719 68.191406 156.617188 66.675781 C 156.324219 66.738281 156.058594 66.78125 155.804688 66.855469 C 155.054688 67.074219 154.3125 67.324219 153.5625 67.527344 C 153.035156 67.667969 152.523438 67.566406 152.179688 67.125 C 151.824219 66.671875 151.9375 66.167969 152.191406 65.691406 C 152.242188 65.585938 152.289062 65.476562 152.355469 65.382812 C 154.882812 61.847656 158.03125 59.140625 162.304688 57.976562 C 163.167969 57.742188 163.964844 57.53125 164.664062 56.898438 C 165.230469 56.382812 165.972656 56.046875 166.671875 55.707031 C 172.460938 52.859375 178.515625 50.832031 184.929688 50.007812 C 187.527344 49.675781 190.128906 49.386719 192.738281 49.203125 C 194.132812 49.105469 195.550781 49.230469 196.949219 49.355469 C 197.550781 49.40625 198.175781 49.636719 198.710938 49.933594 C 199.585938 50.421875 199.613281 51.210938 198.808594 51.808594 C 198.285156 52.199219 197.6875 52.488281 196.9375 52.933594 C 198.257812 53.144531 199.382812 53.308594 200.507812 53.503906 C 207.335938 54.675781 213.554688 57.335938 219.0625 61.5 C 223.703125 65 227.363281 69.421875 230.128906 74.558594 C 230.367188 75 230.570312 75.484375 230.65625 75.976562 C 230.703125 76.269531 230.574219 76.738281 230.359375 76.882812 C 230.148438 77.027344 229.683594 76.957031 229.410156 76.816406 C 228.820312 76.515625 228.289062 76.105469 227.722656 75.761719 C 227.578125 75.671875 227.390625 75.652344 227.070312 75.550781 C 228.902344 78.84375 229.121094 82.308594 229.199219 85.777344 C 229.328125 91.464844 228.628906 97.027344 226.398438 102.308594 C 225.792969 103.742188 224.976562 105.082031 224.253906 106.46875 C 224.101562 106.449219 223.925781 106.472656 223.796875 106.402344 C 222.101562 105.484375 220.457031 105.835938 218.867188 106.65625 C 218.144531 107.03125 217.503906 107.566406 216.824219 108.019531 C 216.574219 108.1875 216.3125 108.335938 216.054688 108.492188 L 216.074219 108.511719 " fill-opacity="1" fill-rule="nonzero"/></g><g clip-path="url(#a0e4774919)"><path fill="#203b40" d="M 141.710938 171.574219 C 141.792969 171.703125 141.921875 171.824219 141.949219 171.964844 C 142.554688 174.90625 143.488281 177.777344 143.632812 180.816406 C 143.722656 182.796875 143.519531 184.71875 142.921875 186.597656 C 141.953125 189.65625 140.699219 192.589844 139.199219 195.441406 C 136.523438 200.519531 133.984375 205.675781 131.386719 210.796875 C 127.035156 219.371094 122.6875 227.941406 118.332031 236.511719 C 118.015625 237.128906 117.648438 237.722656 117.304688 238.328125 C 117.324219 237.9375 117.320312 237.558594 116.890625 237.355469 C 116.433594 237.136719 116.191406 237.449219 115.925781 237.726562 C 115.847656 237.804688 115.746094 237.863281 115.65625 237.929688 C 111.867188 237.03125 108.082031 236.128906 104.296875 235.234375 C 103.960938 235.15625 103.609375 235.136719 103.265625 235.089844 C 100.9375 234.304688 98.605469 233.53125 96.285156 232.714844 C 95.625 232.488281 94.976562 232.191406 94.382812 231.824219 C 93.136719 231.058594 92.503906 229.929688 92.824219 228.453125 C 93.082031 227.234375 93.421875 226.027344 93.796875 224.835938 C 95.984375 217.910156 98.105469 210.957031 100.417969 204.070312 C 102.230469 198.664062 104.308594 193.347656 106.96875 188.28125 C 108.351562 185.640625 109.925781 183.125 111.902344 180.886719 C 114.269531 178.203125 117.089844 176.28125 120.664062 175.59375 C 126.988281 174.378906 133.308594 173.144531 139.632812 171.921875 C 140.324219 171.789062 141.019531 171.6875 141.710938 171.574219 " fill-opacity="1" fill-rule="nonzero"/></g><path fill="#fab583" d="M 220.09375 165.824219 C 219.980469 165.929688 219.882812 166.054688 219.757812 166.136719 C 208.484375 173.617188 197.214844 181.101562 185.929688 188.566406 C 184.070312 189.792969 182.15625 190.9375 180.25 192.09375 C 177.710938 193.628906 176.640625 193.601562 174.320312 191.722656 C 172.832031 190.523438 171.476562 189.160156 170.0625 187.867188 C 170.226562 187.472656 170.363281 187.066406 170.550781 186.683594 C 171.484375 184.796875 172.496094 182.945312 173.355469 181.023438 C 174.320312 178.875 174.960938 176.589844 174.953125 174.238281 C 174.945312 171.867188 174.660156 169.5 174.453125 167.132812 C 174.269531 165.039062 174.023438 162.953125 173.804688 160.863281 C 174.117188 160.878906 174.429688 160.878906 174.742188 160.910156 C 176.128906 161.050781 177.515625 161.277344 178.90625 161.324219 C 181.785156 161.421875 184.65625 161.167969 187.523438 160.90625 C 189.191406 160.757812 190.742188 160.382812 192.183594 159.550781 C 192.726562 159.238281 193.273438 158.9375 193.808594 158.621094 C 195.988281 157.324219 198.105469 155.949219 199.921875 154.148438 C 201.265625 152.8125 202.253906 151.226562 203.222656 149.628906 C 205.113281 146.5 206.578125 143.210938 206.9375 139.515625 C 206.957031 139.335938 207.183594 139.171875 207.3125 139.003906 C 207.265625 139.933594 207.191406 140.863281 207.175781 141.792969 C 207.152344 143.589844 207.078125 145.394531 207.183594 147.183594 C 207.390625 150.777344 207.921875 154.3125 209.578125 157.585938 C 211.050781 160.488281 213.363281 162.496094 216.21875 163.9375 C 217.503906 164.582031 218.800781 165.195312 220.09375 165.824219 " fill-opacity="1" fill-rule="nonzero"/><path fill="#da654b" d="M 175.445312 151.800781 C 175.65625 151.210938 175.847656 150.664062 176.042969 150.121094 C 176.300781 149.40625 176.210938 148.742188 175.761719 148.128906 C 175.53125 147.816406 175.324219 147.484375 175.074219 147.1875 C 173.617188 145.417969 172.175781 143.625 170.667969 141.898438 C 170.007812 141.144531 169.238281 140.464844 168.441406 139.847656 C 167.691406 139.265625 167.242188 139.351562 166.363281 140.019531 C 170.277344 143.210938 173.195312 147.160156 175.445312 151.800781 Z M 168.953125 159.660156 C 169.191406 159.472656 169.339844 159.40625 169.417969 159.289062 C 170.597656 157.59375 171.789062 155.902344 172.9375 154.1875 C 173.882812 152.769531 173.640625 151.375 172.726562 150.039062 C 171.890625 148.8125 171.105469 147.546875 170.195312 146.378906 C 168.953125 144.78125 167.695312 143.191406 166.074219 141.929688 C 164.953125 141.058594 163.851562 140.925781 162.601562 141.601562 C 161.09375 142.421875 159.554688 143.1875 158.035156 143.992188 C 157.824219 144.101562 157.652344 144.285156 157.363281 144.511719 C 157.664062 144.597656 157.808594 144.640625 157.953125 144.679688 C 160.277344 145.34375 162.636719 145.878906 164.828125 146.957031 C 166.144531 147.605469 167.019531 148.566406 167.285156 150.027344 C 167.597656 151.753906 167.894531 153.476562 168.191406 155.203125 C 168.441406 156.644531 168.683594 158.089844 168.953125 159.660156 Z M 173.804688 160.863281 C 174.023438 162.953125 174.269531 165.039062 174.453125 167.132812 C 174.660156 169.5 174.945312 171.867188 174.953125 174.238281 C 174.960938 176.589844 174.320312 178.875 173.355469 181.023438 C 172.496094 182.945312 171.484375 184.796875 170.550781 186.683594 C 170.363281 187.066406 170.226562 187.472656 170.0625 187.867188 C 169.976562 187.9375 169.839844 187.988281 169.804688 188.078125 C 169.46875 188.921875 168.84375 189.195312 167.984375 189.019531 C 167.890625 188.371094 168.085938 187.800781 168.390625 187.230469 C 169.351562 185.4375 170.316406 183.648438 171.214844 181.828125 C 172.582031 179.0625 173.371094 176.136719 173.328125 173.035156 C 173.3125 171.832031 173.101562 170.632812 172.976562 169.433594 C 172.875 168.425781 172.757812 167.417969 172.671875 166.410156 C 172.496094 164.390625 172.335938 162.371094 172.160156 160.351562 C 172.144531 160.167969 172.046875 159.992188 171.972656 159.761719 C 171.132812 159.78125 170.726562 160.320312 170.296875 160.882812 C 168.738281 162.90625 167.71875 165.242188 166.441406 167.429688 C 165.949219 168.269531 165.480469 169.128906 164.949219 169.949219 C 164.328125 170.894531 163.664062 171.101562 162.65625 170.628906 C 160.683594 169.699219 158.597656 167.511719 159.472656 164.4375 C 159.890625 162.972656 160.3125 161.511719 160.78125 160.0625 C 160.957031 159.523438 160.9375 159.121094 160.546875 158.671875 C 160.066406 158.121094 159.675781 157.492188 159.171875 156.789062 C 158.015625 157.484375 156.914062 158.125 155.832031 158.800781 C 154.96875 159.335938 154.140625 159.921875 153.289062 160.472656 C 152.710938 160.847656 152.277344 160.84375 152.089844 160.445312 C 151.859375 159.957031 151.996094 159.546875 152.460938 159.234375 C 152.976562 158.886719 153.460938 158.484375 153.980469 158.144531 C 155.34375 157.246094 156.71875 156.363281 158.199219 155.40625 C 157.90625 154.902344 157.617188 154.414062 157.332031 153.921875 C 157.136719 153.582031 156.863281 153.261719 156.78125 152.898438 C 156.722656 152.65625 156.855469 152.234375 157.046875 152.105469 C 157.238281 151.976562 157.644531 152.039062 157.890625 152.15625 C 158.109375 152.261719 158.246094 152.550781 158.402344 152.773438 C 159.359375 154.152344 160.296875 155.546875 161.273438 156.914062 C 161.511719 157.246094 161.824219 157.558594 162.171875 157.78125 C 162.808594 158.191406 162.921875 158.339844 162.710938 159.097656 C 162.425781 160.109375 162.097656 161.113281 161.804688 162.125 C 161.5625 162.949219 161.316406 163.769531 161.117188 164.601562 C 160.601562 166.722656 161.382812 168.195312 163.542969 169.089844 C 163.925781 168.445312 164.335938 167.792969 164.710938 167.121094 C 165.5 165.726562 166.242188 164.308594 167.054688 162.929688 C 167.523438 162.132812 167.601562 161.304688 167.453125 160.441406 C 166.929688 157.410156 166.390625 154.382812 165.855469 151.355469 C 165.800781 151.050781 165.691406 150.75 165.652344 150.445312 C 165.527344 149.445312 164.953125 148.789062 164.050781 148.449219 C 162.523438 147.871094 160.976562 147.332031 159.429688 146.808594 C 158.800781 146.597656 158.136719 146.503906 157.511719 146.296875 C 156.328125 145.902344 155.21875 146.179688 154.078125 146.507812 C 151.945312 147.113281 149.777344 147.613281 147.644531 148.226562 C 147.101562 148.382812 146.75 148.214844 146.359375 147.949219 C 146.257812 147.195312 146.609375 146.707031 147.324219 146.59375 C 149.929688 146.175781 152.105469 144.757812 154.410156 143.636719 C 155.527344 143.09375 156.566406 142.367188 157.859375 142.261719 C 158.066406 142.242188 158.253906 142.027344 158.449219 141.90625 C 159.664062 141.296875 160.863281 140.652344 162.101562 140.089844 C 162.722656 139.808594 163.417969 139.691406 164.074219 139.472656 C 164.316406 139.394531 164.5625 139.285156 164.753906 139.125 C 166.546875 137.632812 168.363281 137.558594 169.964844 139 C 171.597656 140.460938 172.949219 142.164062 174.394531 143.789062 C 175.324219 144.832031 176.167969 145.957031 177.039062 147.046875 C 178.019531 148.273438 178.035156 149.636719 177.523438 151.027344 C 177.203125 151.902344 176.773438 152.738281 176.390625 153.589844 C 175.703125 154.667969 175.097656 155.808594 174.304688 156.804688 C 173.277344 158.097656 173.507812 159.457031 173.804688 160.863281 " fill-opacity="1" fill-rule="nonzero"/><path fill="#f57964" d="M 173.804688 160.863281 C 173.507812 159.457031 173.277344 158.097656 174.304688 156.804688 C 175.097656 155.808594 175.703125 154.667969 176.390625 153.589844 C 177.546875 153.894531 178.6875 154.394531 179.855469 154.46875 C 182.140625 154.621094 184.441406 154.667969 186.722656 154.195312 C 190.738281 153.359375 194.222656 151.425781 197.492188 149.039062 C 201.332031 146.238281 204.238281 142.613281 206.675781 138.574219 C 206.839844 138.300781 207.128906 138.09375 207.359375 137.859375 C 207.34375 138.242188 207.328125 138.621094 207.3125 139.003906 C 207.183594 139.171875 206.957031 139.335938 206.9375 139.515625 C 206.578125 143.210938 205.113281 146.5 203.222656 149.628906 C 202.253906 151.226562 201.265625 152.8125 199.921875 154.148438 C 198.105469 155.949219 195.988281 157.324219 193.808594 158.621094 C 193.273438 158.9375 192.726562 159.238281 192.183594 159.550781 C 190.742188 160.382812 189.191406 160.757812 187.523438 160.90625 C 184.65625 161.167969 181.785156 161.421875 178.90625 161.324219 C 177.515625 161.277344 176.128906 161.050781 174.742188 160.910156 C 174.429688 160.878906 174.117188 160.878906 173.804688 160.863281 " fill-opacity="1" fill-rule="nonzero"/><path fill="#da654b" d="M 109.214844 301.121094 C 109.523438 300.023438 109.773438 299.875 110.753906 300.398438 C 112.613281 301.390625 114.453125 302.421875 116.285156 303.46875 C 117.839844 304.355469 119.515625 304.835938 121.269531 305.042969 C 123.175781 305.269531 124.816406 304.4375 126.289062 303.410156 C 128.394531 301.9375 130.441406 300.363281 132.402344 298.699219 C 134.125 297.234375 135.710938 295.605469 137.332031 294.023438 C 138.753906 292.640625 139.75 290.976562 140.402344 289.097656 C 141.125 287.035156 141.871094 284.980469 142.617188 282.921875 C 142.925781 282.058594 143.300781 281.761719 143.808594 281.949219 C 144.304688 282.136719 144.414062 282.652344 144.117188 283.476562 C 143.5 285.203125 142.824219 286.917969 142.265625 288.664062 C 141.441406 291.242188 140.101562 293.496094 138.234375 295.449219 C 134.980469 298.847656 131.394531 301.851562 127.535156 304.523438 C 126.578125 305.183594 125.492188 305.671875 124.425781 306.15625 C 122.570312 307 120.671875 306.679688 118.820312 306.140625 C 117.09375 305.636719 115.449219 304.929688 113.898438 303.988281 C 112.566406 303.179688 111.164062 302.496094 109.792969 301.757812 C 109.597656 301.546875 109.40625 301.335938 109.214844 301.121094 " fill-opacity="1" fill-rule="nonzero"/><path fill="#d9644b" d="M 115.65625 237.929688 C 115.746094 237.863281 115.847656 237.804688 115.925781 237.726562 C 116.191406 237.449219 116.433594 237.136719 116.890625 237.355469 C 117.320312 237.558594 117.324219 237.9375 117.304688 238.328125 C 116.226562 241.042969 115.027344 243.71875 114.097656 246.484375 C 112.5 251.246094 111.070312 256.066406 110.210938 261.03125 C 110.171875 261.257812 110.097656 261.484375 110.019531 261.703125 C 109.796875 262.304688 109.390625 262.640625 109.027344 262.472656 C 108.550781 262.25 108.351562 261.820312 108.4375 261.3125 C 108.578125 260.507812 108.753906 259.710938 108.921875 258.914062 C 109.855469 254.445312 111.09375 250.058594 112.617188 245.761719 C 113.433594 243.449219 114.453125 241.210938 115.371094 238.933594 C 115.5 238.613281 115.5625 238.265625 115.65625 237.929688 " fill-opacity="1" fill-rule="nonzero"/><path fill="#da654b" d="M 234.355469 285.992188 C 234.507812 285.773438 234.65625 285.550781 234.808594 285.332031 C 238.085938 285.207031 241.226562 286.007812 244.34375 286.84375 C 246.75 287.488281 249.105469 288.308594 251.480469 289.0625 C 251.730469 289.144531 252.03125 289.273438 252.160156 289.472656 C 252.3125 289.703125 252.425781 290.09375 252.324219 290.3125 C 252.230469 290.527344 251.855469 290.648438 251.582031 290.730469 C 251.417969 290.777344 251.207031 290.671875 251.023438 290.617188 C 248.300781 289.796875 245.589844 288.945312 242.859375 288.164062 C 241.402344 287.75 239.914062 287.429688 238.425781 287.136719 C 237.476562 286.945312 236.503906 286.847656 235.539062 286.777344 C 234.964844 286.734375 234.570312 286.527344 234.355469 285.992188 " fill-opacity="1" fill-rule="nonzero"/><path fill="#172022" d="M 233.429688 216.699219 C 233.382812 211.296875 234.28125 206.027344 235.636719 200.8125 C 236.945312 195.804688 238.957031 191.082031 241.382812 186.527344 C 241.675781 185.976562 241.992188 185.441406 242.308594 184.90625 C 242.40625 184.742188 242.523438 184.519531 242.675781 184.476562 C 242.914062 184.40625 243.253906 184.378906 243.433594 184.5 C 243.59375 184.613281 243.683594 184.96875 243.648438 185.191406 C 243.597656 185.488281 243.394531 185.757812 243.265625 186.039062 C 241.945312 188.910156 240.527344 191.738281 239.332031 194.660156 C 237.960938 198.011719 236.949219 201.496094 236.25 205.058594 C 235.90625 206.804688 235.578125 208.5625 235.339844 210.332031 C 235.167969 211.597656 235.109375 212.886719 235.078125 214.167969 C 235.035156 215.96875 235.070312 217.765625 235.066406 219.5625 C 235.066406 219.835938 235.144531 220.160156 235.03125 220.371094 C 234.863281 220.683594 234.59375 221.019531 234.285156 221.140625 C 234.148438 221.195312 233.742188 220.800781 233.589844 220.535156 C 233.445312 220.289062 233.441406 219.9375 233.433594 219.632812 C 233.417969 218.65625 233.429688 217.679688 233.429688 216.699219 " fill-opacity="1" fill-rule="nonzero"/><path fill="#172022" d="M 233.191406 233.898438 C 233.191406 231.984375 233.1875 230.070312 233.191406 228.160156 C 233.191406 227.886719 233.132812 227.558594 233.257812 227.355469 C 233.394531 227.136719 233.710938 226.929688 233.960938 226.910156 C 234.148438 226.898438 234.40625 227.160156 234.542969 227.359375 C 234.640625 227.5 234.59375 227.738281 234.597656 227.933594 C 234.601562 228.558594 234.589844 229.183594 234.601562 229.808594 C 234.679688 233.664062 234.71875 237.523438 234.851562 241.378906 C 234.933594 243.785156 235.128906 246.1875 235.320312 248.585938 C 235.417969 249.824219 235.625 251.050781 235.765625 252.28125 C 235.796875 252.550781 235.777344 252.828125 235.769531 253.101562 C 235.757812 253.558594 235.550781 253.847656 235.0625 253.847656 C 234.644531 253.847656 234.425781 253.613281 234.371094 253.207031 C 234.214844 252.09375 233.988281 250.988281 233.910156 249.867188 C 233.710938 247.039062 233.566406 244.203125 233.421875 241.371094 C 233.292969 238.882812 233.195312 236.394531 233.082031 233.902344 C 233.117188 233.902344 233.152344 233.902344 233.191406 233.898438 " fill-opacity="1" fill-rule="nonzero"/><path fill="#12100e" d="M 190.558594 104.367188 C 192.292969 107.09375 192.4375 109.890625 191.578125 112.777344 C 191.386719 113.421875 191.023438 114.0625 190.589844 114.582031 C 189.273438 116.152344 187.273438 116.21875 185.769531 114.800781 C 184.726562 113.820312 184.304688 112.546875 184.160156 111.179688 C 183.921875 108.914062 184.527344 106.835938 185.660156 104.902344 C 186.238281 103.914062 187.097656 103.269531 188.230469 103.019531 C 189.78125 102.675781 191.28125 102.773438 192.675781 103.582031 C 193.039062 103.796875 193.347656 104.132812 193.621094 104.464844 C 193.878906 104.773438 193.886719 105.15625 193.546875 105.441406 C 193.210938 105.726562 192.847656 105.648438 192.578125 105.339844 C 192.078125 104.753906 191.457031 104.449219 190.558594 104.367188 " fill-opacity="1" fill-rule="nonzero"/><path fill="#f5785f" d="M 197.746094 121.277344 C 196.96875 121.113281 195.980469 120.929688 195.011719 120.683594 C 194.683594 120.601562 194.363281 120.40625 194.097656 120.1875 C 193.113281 119.375 193.074219 118.523438 193.953125 117.589844 C 194.886719 116.597656 196.132812 116.226562 197.402344 116.046875 C 198.578125 115.878906 199.78125 115.636719 200.972656 116.011719 C 201.707031 116.242188 202.488281 116.394531 203.160156 116.75 C 204.277344 117.34375 204.492188 118.667969 203.511719 119.472656 C 202.726562 120.113281 201.722656 120.5625 200.746094 120.878906 C 199.875 121.160156 198.910156 121.136719 197.746094 121.277344 " fill-opacity="1" fill-rule="nonzero"/><path fill="#141210" d="M 199.46875 91.578125 C 199.988281 91.808594 200.511719 92.039062 201.03125 92.273438 C 201.050781 93.695312 200.945312 93.839844 199.558594 94.1875 C 197.679688 94.660156 195.964844 95.488281 194.378906 96.589844 C 193.769531 97.011719 193.171875 97.453125 192.570312 97.886719 C 190.273438 99.542969 187.742188 99.820312 185.089844 99.050781 C 184.367188 98.84375 183.6875 98.378906 183.074219 97.914062 C 182.488281 97.472656 182.445312 96.925781 182.78125 96.480469 C 183.121094 96.03125 183.640625 95.96875 184.246094 96.355469 C 186.636719 97.878906 188.960938 97.660156 191.242188 96.113281 C 191.726562 95.785156 192.195312 95.4375 192.671875 95.089844 C 194.550781 93.714844 196.59375 92.679688 198.847656 92.074219 C 199.117188 92 199.53125 92.078125 199.46875 91.578125 " fill-opacity="1" fill-rule="nonzero"/><path fill="#f5785f" d="M 158.882812 117.347656 C 159.574219 117.453125 160.265625 117.535156 160.945312 117.664062 C 161.945312 117.855469 162.558594 118.566406 163.058594 119.371094 C 163.457031 120.015625 163.296875 120.65625 162.863281 121.222656 C 162.347656 121.898438 161.671875 122.269531 160.8125 122.445312 C 158.933594 122.824219 157.179688 122.527344 155.519531 121.628906 C 154.84375 121.261719 154.351562 120.683594 154.371094 119.855469 C 154.386719 119.019531 154.925781 118.542969 155.628906 118.179688 C 156.652344 117.648438 157.695312 117.273438 158.882812 117.347656 " fill-opacity="1" fill-rule="nonzero"/><path fill="#151311" d="M 159.824219 97.480469 C 161.382812 97.578125 162.941406 97.707031 164.5 97.761719 C 165.546875 97.792969 166.597656 97.75 167.644531 97.683594 C 168.597656 97.621094 169.234375 97.101562 169.507812 96.167969 C 169.5625 95.976562 169.589844 95.78125 169.671875 95.605469 C 169.894531 95.136719 170.253906 94.851562 170.792969 94.984375 C 171.320312 95.109375 171.523438 95.503906 171.53125 96.035156 C 171.554688 97.492188 170.328125 99.207031 168.742188 99.546875 C 167.347656 99.839844 165.890625 99.957031 164.457031 99.964844 C 162.472656 99.980469 160.484375 99.824219 158.5 99.746094 C 157.679688 99.710938 157.199219 99.355469 157.148438 98.738281 C 157.089844 98.066406 157.546875 97.601562 158.421875 97.511719 C 158.886719 97.460938 159.355469 97.503906 159.824219 97.503906 C 159.824219 97.496094 159.824219 97.488281 159.824219 97.480469 " fill-opacity="1" fill-rule="nonzero"/><path fill="#da644a" d="M 176.882812 114.777344 C 176.640625 117.816406 176.332031 120.820312 174.597656 123.492188 C 173.90625 124.554688 173.855469 125.144531 175.046875 125.820312 C 176.15625 126.453125 177.335938 126.96875 178.492188 127.511719 C 178.769531 127.640625 179.089844 127.683594 179.386719 127.773438 C 179.90625 127.933594 180.007812 128.335938 179.925781 128.796875 C 179.824219 129.347656 179.386719 129.484375 178.941406 129.371094 C 176.84375 128.84375 174.828125 128.101562 173.25 126.542969 C 172.441406 125.746094 172.167969 124.742188 172.660156 123.640625 C 172.847656 123.210938 173.019531 122.765625 173.277344 122.382812 C 174.5625 120.472656 174.929688 118.28125 175.230469 116.070312 C 175.351562 115.148438 175.390625 114.210938 175.460938 113.28125 C 175.492188 112.832031 175.671875 112.519531 176.160156 112.511719 C 176.640625 112.503906 176.863281 112.804688 176.878906 113.253906 C 176.898438 113.761719 176.882812 114.269531 176.882812 114.777344 " fill-opacity="1" fill-rule="nonzero"/><path fill="#b44535" d="M 192.175781 132.796875 C 192.15625 133.378906 191.796875 133.578125 191.277344 133.679688 C 190.054688 133.914062 188.824219 134.132812 187.625 134.453125 C 184.335938 135.332031 181.152344 136.472656 178.460938 138.671875 C 178.34375 138.769531 178.207031 138.847656 178.066406 138.917969 C 177.679688 139.105469 177.226562 139.140625 177.035156 138.738281 C 176.898438 138.445312 176.96875 138 177.078125 137.664062 C 177.152344 137.441406 177.449219 137.28125 177.664062 137.113281 C 180.597656 134.808594 183.960938 133.410156 187.542969 132.5 C 188.632812 132.226562 189.75 132.027344 190.859375 131.851562 C 191.652344 131.726562 192.1875 132.152344 192.175781 132.796875 " fill-opacity="1" fill-rule="nonzero"/><path fill="#da644b" d="M 218.515625 112.242188 C 219.136719 112.242188 219.507812 112.238281 219.882812 112.242188 C 220.257812 112.246094 220.613281 112.332031 220.6875 112.757812 C 220.773438 113.226562 220.460938 113.515625 220.066406 113.621094 C 219.546875 113.765625 219 113.832031 218.460938 113.898438 C 217.640625 114.003906 217.429688 114.136719 217.277344 114.921875 C 217.144531 115.605469 217.09375 116.308594 217.015625 117.003906 C 216.996094 117.160156 217.011719 117.316406 216.988281 117.472656 C 216.929688 117.871094 216.699219 118.109375 216.28125 118.097656 C 215.859375 118.089844 215.617188 117.832031 215.605469 117.433594 C 215.585938 116.695312 215.515625 115.933594 215.640625 115.210938 C 215.929688 113.542969 216.53125 111.96875 217.613281 110.644531 C 218.488281 109.570312 219.601562 108.886719 221.054688 108.976562 C 221.703125 109.011719 222.171875 109.386719 222.113281 109.828125 C 222.035156 110.382812 221.648438 110.605469 221.117188 110.617188 C 220.0625 110.636719 219.265625 111.101562 218.515625 112.242188 " fill-opacity="1" fill-rule="nonzero"/><path fill="#1d1513" d="M 216.054688 108.492188 C 216.046875 108.523438 216.042969 108.558594 216.027344 108.582031 C 216.019531 108.59375 215.984375 108.585938 215.960938 108.585938 C 216 108.5625 216.039062 108.539062 216.074219 108.511719 L 216.054688 108.492188 " fill-opacity="1" fill-rule="nonzero"/><path fill="#f9b382" d="M 168.953125 159.660156 C 168.683594 158.089844 168.441406 156.644531 168.191406 155.203125 C 167.894531 153.476562 167.597656 151.753906 167.285156 150.027344 C 167.019531 148.566406 166.144531 147.605469 164.828125 146.957031 C 162.636719 145.878906 160.277344 145.34375 157.953125 144.679688 C 157.808594 144.640625 157.664062 144.597656 157.363281 144.511719 C 157.652344 144.285156 157.824219 144.101562 158.035156 143.992188 C 159.554688 143.1875 161.09375 142.421875 162.601562 141.601562 C 163.851562 140.925781 164.953125 141.058594 166.074219 141.929688 C 167.695312 143.191406 168.953125 144.78125 170.195312 146.378906 C 171.105469 147.546875 171.890625 148.8125 172.726562 150.039062 C 173.640625 151.375 173.882812 152.769531 172.9375 154.1875 C 171.789062 155.902344 170.597656 157.59375 169.417969 159.289062 C 169.339844 159.40625 169.191406 159.472656 168.953125 159.660156 " fill-opacity="1" fill-rule="nonzero"/><path fill="#f9b080" d="M 175.445312 151.800781 C 173.195312 147.160156 170.277344 143.210938 166.363281 140.019531 C 167.242188 139.351562 167.691406 139.265625 168.441406 139.847656 C 169.238281 140.464844 170.007812 141.144531 170.667969 141.898438 C 172.175781 143.625 173.617188 145.417969 175.074219 147.1875 C 175.324219 147.484375 175.53125 147.816406 175.761719 148.128906 C 176.210938 148.742188 176.300781 149.40625 176.042969 150.121094 C 175.847656 150.664062 175.65625 151.210938 175.445312 151.800781 " fill-opacity="1" fill-rule="nonzero"/><path fill="#fab583" d="M 160.640625 106.011719 C 160.613281 106.058594 160.585938 106.105469 160.5625 106.152344 C 160.539062 106.125 160.492188 106.097656 160.496094 106.078125 C 160.507812 106.03125 160.539062 105.984375 160.5625 105.9375 C 160.589844 105.960938 160.613281 105.984375 160.640625 106.011719 " fill-opacity="1" fill-rule="nonzero"/><path fill="#12100e" d="M 164.039062 104.277344 C 162.046875 106.726562 161.589844 109.425781 162.09375 112.324219 C 162.207031 112.972656 162.488281 113.636719 162.851562 114.1875 C 163.949219 115.863281 165.878906 116.152344 167.503906 114.949219 C 168.625 114.117188 169.179688 112.929688 169.472656 111.617188 C 169.960938 109.449219 169.613281 107.363281 168.734375 105.355469 C 168.285156 104.332031 167.523438 103.609375 166.453125 103.238281 C 164.988281 102.726562 163.519531 102.652344 162.078125 103.277344 C 161.699219 103.441406 161.359375 103.734375 161.058594 104.027344 C 160.773438 104.296875 160.722656 104.667969 161.019531 104.980469 C 161.316406 105.296875 161.675781 105.265625 161.96875 104.992188 C 162.523438 104.480469 163.160156 104.257812 164.039062 104.277344 " fill-opacity="1" fill-rule="nonzero"/><g fill="#f2e8d5" fill-opacity="1"><g transform="translate(148.861955, 228.611686)"><g><path d="M 5.78125 0 L 4.34375 0 L 1.953125 -3.625 L 1.953125 0 L 0.515625 0 L 0.515625 -5.875 L 1.953125 -5.875 L 4.34375 -2.234375 L 4.34375 -5.875 L 5.78125 -5.875 Z M 5.78125 0 "/></g></g></g><g fill="#f2e8d5" fill-opacity="1"><g transform="translate(155.152853, 228.611686)"><g><path d="M 3.296875 0.0625 C 2.742188 0.0625 2.238281 -0.0664062 1.78125 -0.328125 C 1.320312 -0.585938 0.957031 -0.945312 0.6875 -1.40625 C 0.414062 -1.863281 0.28125 -2.378906 0.28125 -2.953125 C 0.28125 -3.523438 0.414062 -4.039062 0.6875 -4.5 C 0.957031 -4.957031 1.320312 -5.316406 1.78125 -5.578125 C 2.238281 -5.835938 2.742188 -5.96875 3.296875 -5.96875 C 3.847656 -5.96875 4.351562 -5.835938 4.8125 -5.578125 C 5.28125 -5.316406 5.644531 -4.957031 5.90625 -4.5 C 6.175781 -4.039062 6.3125 -3.523438 6.3125 -2.953125 C 6.3125 -2.378906 6.175781 -1.863281 5.90625 -1.40625 C 5.632812 -0.945312 5.269531 -0.585938 4.8125 -0.328125 C 4.351562 -0.0664062 3.847656 0.0625 3.296875 0.0625 Z M 3.296875 -1.25 C 3.765625 -1.25 4.140625 -1.40625 4.421875 -1.71875 C 4.703125 -2.03125 4.84375 -2.441406 4.84375 -2.953125 C 4.84375 -3.472656 4.703125 -3.890625 4.421875 -4.203125 C 4.140625 -4.515625 3.765625 -4.671875 3.296875 -4.671875 C 2.828125 -4.671875 2.445312 -4.515625 2.15625 -4.203125 C 1.875 -3.898438 1.734375 -3.484375 1.734375 -2.953125 C 1.734375 -2.429688 1.875 -2.015625 2.15625 -1.703125 C 2.445312 -1.398438 2.828125 -1.25 3.296875 -1.25 Z M 3.296875 -1.25 "/></g></g></g><g fill="#f2e8d5" fill-opacity="1"><g transform="translate(161.728178, 228.611686)"><g><path d="M 4.75 -5.875 L 4.75 -4.734375 L 3.1875 -4.734375 L 3.1875 0 L 1.765625 0 L 1.765625 -4.734375 L 0.203125 -4.734375 L 0.203125 -5.875 Z M 4.75 -5.875 "/></g></g></g><g fill="#f2e8d5" fill-opacity="1"><g transform="translate(166.672219, 228.611686)"><g><path d="M 1.953125 -4.734375 L 1.953125 -3.546875 L 3.875 -3.546875 L 3.875 -2.4375 L 1.953125 -2.4375 L 1.953125 -1.140625 L 4.125 -1.140625 L 4.125 0 L 0.515625 0 L 0.515625 -5.875 L 4.125 -5.875 L 4.125 -4.734375 Z M 1.953125 -4.734375 "/></g></g></g><g fill="#f2e8d5" fill-opacity="1"><g transform="translate(171.197984, 228.611686)"><g><path d="M 8.609375 -5.875 L 7.078125 0 L 5.34375 0 L 4.40625 -3.875 L 3.4375 0 L 1.703125 0 L 0.203125 -5.875 L 1.734375 -5.875 L 2.59375 -1.59375 L 3.640625 -5.875 L 5.203125 -5.875 L 6.21875 -1.59375 L 7.0625 -5.875 Z M 8.609375 -5.875 "/></g></g></g><g fill="#f2e8d5" fill-opacity="1"><g transform="translate(179.998553, 228.611686)"><g><path d="M 3.296875 0.0625 C 2.742188 0.0625 2.238281 -0.0664062 1.78125 -0.328125 C 1.320312 -0.585938 0.957031 -0.945312 0.6875 -1.40625 C 0.414062 -1.863281 0.28125 -2.378906 0.28125 -2.953125 C 0.28125 -3.523438 0.414062 -4.039062 0.6875 -4.5 C 0.957031 -4.957031 1.320312 -5.316406 1.78125 -5.578125 C 2.238281 -5.835938 2.742188 -5.96875 3.296875 -5.96875 C 3.847656 -5.96875 4.351562 -5.835938 4.8125 -5.578125 C 5.28125 -5.316406 5.644531 -4.957031 5.90625 -4.5 C 6.175781 -4.039062 6.3125 -3.523438 6.3125 -2.953125 C 6.3125 -2.378906 6.175781 -1.863281 5.90625 -1.40625 C 5.632812 -0.945312 5.269531 -0.585938 4.8125 -0.328125 C 4.351562 -0.0664062 3.847656 0.0625 3.296875 0.0625 Z M 3.296875 -1.25 C 3.765625 -1.25 4.140625 -1.40625 4.421875 -1.71875 C 4.703125 -2.03125 4.84375 -2.441406 4.84375 -2.953125 C 4.84375 -3.472656 4.703125 -3.890625 4.421875 -4.203125 C 4.140625 -4.515625 3.765625 -4.671875 3.296875 -4.671875 C 2.828125 -4.671875 2.445312 -4.515625 2.15625 -4.203125 C 1.875 -3.898438 1.734375 -3.484375 1.734375 -2.953125 C 1.734375 -2.429688 1.875 -2.015625 2.15625 -1.703125 C 2.445312 -1.398438 2.828125 -1.25 3.296875 -1.25 Z M 3.296875 -1.25 "/></g></g></g><g fill="#f2e8d5" fill-opacity="1"><g transform="translate(186.573877, 228.611686)"><g><path d="M 3.515625 0 L 2.296875 -2.21875 L 1.953125 -2.21875 L 1.953125 0 L 0.515625 0 L 0.515625 -5.875 L 2.921875 -5.875 C 3.390625 -5.875 3.785156 -5.789062 4.109375 -5.625 C 4.429688 -5.46875 4.671875 -5.25 4.828125 -4.96875 C 4.992188 -4.6875 5.078125 -4.375 5.078125 -4.03125 C 5.078125 -3.632812 4.96875 -3.28125 4.75 -2.96875 C 4.53125 -2.664062 4.207031 -2.453125 3.78125 -2.328125 L 5.140625 0 Z M 1.953125 -3.234375 L 2.84375 -3.234375 C 3.101562 -3.234375 3.296875 -3.296875 3.421875 -3.421875 C 3.554688 -3.554688 3.625 -3.738281 3.625 -3.96875 C 3.625 -4.195312 3.554688 -4.375 3.421875 -4.5 C 3.296875 -4.625 3.101562 -4.6875 2.84375 -4.6875 L 1.953125 -4.6875 Z M 1.953125 -3.234375 "/></g></g></g><g fill="#f2e8d5" fill-opacity="1"><g transform="translate(192.028224, 228.611686)"><g><path d="M 4.75 -5.875 L 4.75 -4.734375 L 3.1875 -4.734375 L 3.1875 0 L 1.765625 0 L 1.765625 -4.734375 L 0.203125 -4.734375 L 0.203125 -5.875 Z M 4.75 -5.875 "/></g></g></g><g fill="#f2e8d5" fill-opacity="1"><g transform="translate(196.972264, 228.611686)"><g><path d="M 5.609375 -5.875 L 5.609375 0 L 4.171875 0 L 4.171875 -2.421875 L 1.953125 -2.421875 L 1.953125 0 L 0.515625 0 L 0.515625 -5.875 L 1.953125 -5.875 L 1.953125 -3.578125 L 4.171875 -3.578125 L 4.171875 -5.875 Z M 5.609375 -5.875 "/></g></g></g><g fill="#f2e8d5" fill-opacity="1"><g transform="translate(203.087487, 228.611686)"><g><path d="M 5.5625 -5.875 L 3.53125 -1.9375 L 3.53125 0 L 2.09375 0 L 2.09375 -1.9375 L 0.0625 -5.875 L 1.6875 -5.875 L 2.828125 -3.421875 L 3.953125 -5.875 Z M 5.5625 -5.875 "/></g></g></g><g clip-path="url(#622e3c2887)"><g clip-path="url(#a1cce3addd)"><path fill="#fcbfa3" d="M 140.925781 221.101562 L 158.398438 221.101562 L 158.398438 240.28125 L 140.925781 240.28125 Z M 140.925781 221.101562 " fill-opacity="1" fill-rule="nonzero"/></g></g><g clip-path="url(#876b24b2b1)"><g clip-path="url(#523caee8a6)"><path fill="#fab685" d="M 137.398438 203.101562 L 160.273438 203.101562 L 160.273438 246.167969 L 137.398438 246.167969 Z M 137.398438 203.101562 " fill-opacity="1" fill-rule="nonzero"/></g></g></svg>