<svg xmlns="http://www.w3.org/2000/svg" xmlns:xlink="http://www.w3.org/1999/xlink" width="500" zoomAndPan="magnify" viewBox="0 0 375 374.999991" height="500" preserveAspectRatio="xMidYMid meet" version="1.0"><defs><clipPath id="031954aeac"><path d="M 103.816406 168 L 186 168 L 186 275 L 103.816406 275 Z M 103.816406 168 " clip-rule="nonzero"/></clipPath><clipPath id="2f6a48ec87"><path d="M 163 52.796875 L 269 52.796875 L 269 122 L 163 122 Z M 163 52.796875 " clip-rule="nonzero"/></clipPath><clipPath id="2c5bf5e180"><path d="M 216 176 L 271.03125 176 L 271.03125 242.578125 L 216 242.578125 Z M 216 176 " clip-rule="nonzero"/></clipPath><clipPath id="58080b3485"><path d="M 220.015625 279.230469 L 261.894531 279.230469 L 261.894531 322.042969 L 220.015625 322.042969 Z M 220.015625 279.230469 " clip-rule="nonzero"/></clipPath></defs><g clip-path="url(#031954aeac)"><path fill="#828442" d="M 103.859375 232.609375 C 103.890625 230.09375 104.285156 227.609375 104.621094 225.128906 C 105.242188 220.570312 105.882812 216.019531 106.609375 211.480469 C 108.011719 202.761719 109.769531 194.128906 113 185.863281 C 113.84375 183.699219 114.808594 181.597656 115.96875 179.582031 C 118.25 175.609375 121.625 173.101562 126.007812 171.875 C 128.945312 171.050781 131.957031 170.664062 134.972656 170.28125 C 138.289062 169.863281 141.605469 169.4375 144.921875 169.027344 C 147.144531 168.753906 149.371094 168.496094 151.59375 168.230469 C 151.546875 168.675781 151.765625 169.042969 151.960938 169.410156 C 152.597656 170.621094 153.277344 171.808594 153.875 173.035156 C 155.71875 176.832031 157.519531 180.644531 159.363281 184.4375 C 160.542969 186.867188 161.828125 189.246094 162.964844 191.695312 C 164.035156 194.003906 165.148438 196.289062 166.382812 198.515625 C 166.953125 199.546875 167.578125 200.539062 168.28125 201.480469 C 168.941406 202.367188 169.839844 202.667969 170.898438 202.476562 C 171.425781 202.382812 171.886719 202.097656 172.316406 201.773438 C 173.890625 200.597656 175.449219 199.390625 177.046875 198.242188 C 178.832031 196.960938 180.644531 195.722656 182.46875 194.496094 C 182.949219 194.171875 183.238281 193.566406 183.878906 193.429688 C 184.246094 194.152344 183.804688 194.753906 183.800781 195.378906 C 183.78125 198 183.640625 200.617188 183.617188 203.230469 C 183.546875 210.488281 183.398438 217.753906 183.792969 225.011719 C 183.914062 227.246094 183.785156 229.480469 183.972656 231.722656 C 184.207031 234.476562 184.113281 237.257812 184.210938 240.027344 C 184.308594 242.910156 184.652344 245.785156 184.488281 248.675781 C 184.484375 248.753906 184.476562 248.832031 184.496094 248.902344 C 184.980469 250.644531 184.59375 252.449219 184.894531 254.222656 C 185.144531 255.699219 185.089844 257.25 185.109375 258.753906 C 185.144531 261.640625 185.503906 264.511719 185.402344 267.402344 C 185.378906 268.007812 185.296875 268.644531 185.429688 269.222656 C 185.804688 270.867188 185.4375 272.5625 185.863281 274.191406 C 184.5625 273.941406 183.257812 273.695312 181.957031 273.445312 C 178.976562 272.871094 175.988281 272.347656 172.976562 271.953125 C 170.796875 271.667969 168.613281 271.414062 166.417969 271.234375 C 163.660156 271.011719 160.910156 270.667969 158.15625 270.386719 C 155.363281 270.101562 152.582031 269.742188 149.804688 269.320312 C 149.597656 268.355469 149.585938 268.292969 148.769531 268.320312 C 146.710938 268.394531 144.703125 267.929688 142.660156 267.800781 C 141.78125 267.742188 140.835938 267.753906 139.976562 267.398438 C 139.609375 266.734375 139.347656 266.039062 139.21875 265.277344 C 138.621094 261.730469 138.40625 258.140625 138.171875 254.5625 C 137.984375 251.695312 137.773438 248.816406 137.851562 245.9375 C 138.773438 245.742188 138.800781 245.742188 138.800781 244.867188 C 138.800781 242.253906 138.667969 239.636719 138.617188 237.027344 C 138.492188 230.257812 138.574219 223.488281 138.574219 216.71875 C 138.574219 216.417969 138.59375 216.109375 138.566406 215.808594 C 138.519531 215.328125 138.121094 214.9375 137.695312 214.914062 C 137.234375 214.890625 136.726562 215.3125 136.765625 215.847656 C 136.871094 217.335938 136.496094 218.785156 136.507812 220.269531 C 136.566406 228.359375 136.382812 236.453125 136.75 244.539062 C 135.230469 244.070312 133.703125 243.625 132.191406 243.128906 C 125.128906 240.8125 118.074219 238.480469 111.015625 236.152344 C 109.367188 235.609375 107.71875 235.082031 106.136719 234.566406 C 104.9375 234.109375 103.839844 234.171875 103.859375 232.609375 " fill-opacity="1" fill-rule="nonzero"/></g><path fill="#fab685" d="M 262.84375 237.125 C 262.847656 238.011719 263.136719 238.851562 263.382812 239.679688 C 264.085938 242.070312 264.207031 244.53125 264.441406 246.984375 C 264.617188 248.832031 264.839844 250.675781 265.050781 252.519531 C 265.15625 253.460938 265.1875 254.410156 265.289062 255.355469 C 265.476562 257.089844 265.484375 258.839844 265.589844 260.585938 C 265.84375 264.792969 265.894531 269.011719 266.097656 273.21875 C 266.34375 278.28125 266.273438 283.335938 266.191406 288.390625 C 266.15625 290.421875 265.929688 292.464844 265.449219 294.476562 C 264.886719 296.84375 263.71875 298.839844 262.144531 300.632812 C 261.269531 301.628906 260.46875 302.703125 259.355469 303.46875 C 259.164062 303.597656 259.003906 303.765625 258.765625 303.789062 C 258.507812 302.769531 258.226562 302.597656 257.261719 303.003906 C 255.542969 303.722656 253.84375 304.488281 252.132812 305.21875 C 250.910156 305.742188 249.664062 306.210938 248.453125 306.753906 C 247.121094 307.351562 245.765625 307.042969 244.414062 306.953125 C 242.664062 306.835938 240.925781 306.601562 239.3125 305.894531 C 237.78125 305.222656 236.296875 304.441406 234.820312 303.648438 C 233.046875 302.695312 231.65625 301.316406 230.59375 299.601562 C 229.609375 298.023438 228.582031 296.46875 227.605469 294.882812 C 225.886719 292.089844 224.449219 289.160156 223.304688 286.085938 C 222.617188 284.230469 222.089844 282.328125 221.503906 280.441406 C 221.351562 279.945312 221.28125 279.367188 220.601562 279.265625 C 220.160156 277.421875 219.71875 275.574219 219.277344 273.726562 C 218.101562 268.78125 216.949219 263.828125 216.007812 258.828125 C 214.71875 251.96875 213.402344 245.109375 211.789062 238.316406 C 209.230469 227.535156 206.40625 216.8125 203.839844 206.03125 C 203.457031 204.417969 203.023438 202.789062 202.117188 201.351562 C 202.011719 200.636719 201.582031 200.085938 201.1875 199.515625 C 200.851562 198.726562 200.304688 198.128906 199.589844 197.660156 C 198.957031 197.242188 198.324219 196.820312 197.75 196.332031 C 195.351562 194.300781 193.539062 191.890625 192.910156 188.722656 C 192.539062 186.855469 192.421875 184.972656 192.449219 183.074219 C 193.046875 183.019531 193.167969 182.625 193.167969 182.109375 C 193.167969 181.082031 193.085938 180.039062 193.230469 179.03125 C 193.441406 177.570312 193.335938 176.097656 193.5625 174.613281 C 194.109375 174.195312 194.695312 173.773438 195.253906 173.320312 C 196.015625 172.703125 196.925781 172.472656 197.828125 172.625 C 199.75 172.953125 201.707031 172.566406 203.617188 172.996094 C 204.050781 173.09375 204.496094 172.960938 204.550781 172.410156 C 204.601562 171.875 204.25 171.703125 203.769531 171.644531 C 201.847656 171.417969 199.921875 171.296875 197.988281 171.171875 C 196.265625 171.066406 194.875 171.609375 193.605469 172.691406 C 192.796875 173.386719 191.917969 174.007812 190.910156 174.382812 C 189.765625 174.808594 188.617188 174.894531 187.5625 174.101562 C 186.898438 173.601562 186.863281 173.386719 187.398438 172.71875 C 188.753906 171.023438 190.246094 169.457031 191.742188 167.886719 C 192.3125 167.285156 192.921875 167.050781 193.746094 167.03125 C 196.808594 166.964844 199.789062 167.5 202.769531 168.097656 C 203.546875 168.25 204.339844 168.351562 205.125 168.457031 C 205.449219 168.5 205.75 168.386719 205.871094 168.054688 C 206.019531 167.660156 205.777344 167.398438 205.476562 167.203125 C 205.191406 167.011719 204.867188 166.914062 204.519531 166.859375 C 203.359375 166.667969 202.207031 166.453125 201.050781 166.242188 C 198.621094 165.804688 196.1875 165.417969 193.707031 165.480469 C 192.558594 165.507812 191.503906 165.820312 190.757812 166.722656 C 189.566406 168.160156 188.113281 169.355469 186.996094 170.855469 C 186.570312 171.425781 185.945312 171.566406 185.292969 171.644531 C 183.800781 171.824219 182.425781 171.476562 181.160156 170.671875 C 180.164062 170.039062 180.121094 169.773438 180.921875 168.941406 C 181.765625 168.0625 182.640625 167.21875 183.457031 166.3125 C 185.21875 164.367188 186.933594 162.378906 188.839844 160.578125 C 189.355469 160.085938 189.929688 159.582031 190.695312 159.535156 C 191.683594 159.476562 192.683594 159.425781 193.660156 159.601562 C 196.945312 160.195312 200.179688 161.027344 203.402344 161.902344 C 204.421875 162.183594 205.464844 162.402344 206.496094 162.644531 C 206.957031 162.753906 207.367188 162.652344 207.511719 162.175781 C 207.65625 161.6875 207.328125 161.390625 206.917969 161.207031 C 206.78125 161.148438 206.621094 161.144531 206.472656 161.109375 C 205.957031 160.992188 205.4375 160.882812 204.921875 160.75 C 201.101562 159.773438 197.308594 158.6875 193.402344 158.058594 C 191.128906 157.6875 189.144531 158.023438 187.472656 159.816406 C 185.867188 161.539062 184.179688 163.191406 182.628906 164.964844 C 182.078125 165.59375 181.472656 165.640625 180.789062 165.339844 C 180.40625 165.171875 180.046875 164.949219 179.699219 164.722656 C 177.980469 163.609375 178.425781 163.410156 179.351562 162.292969 C 181.027344 160.273438 182.921875 158.445312 184.792969 156.605469 C 185.808594 155.609375 186.984375 154.996094 188.484375 155.175781 C 188.972656 155.234375 189.457031 155.320312 189.941406 155.398438 C 193.542969 155.964844 197.128906 156.589844 200.585938 157.773438 C 200.878906 157.875 201.164062 157.980469 201.472656 157.9375 C 202.03125 157.851562 202.265625 157.257812 201.917969 156.8125 C 201.742188 156.59375 201.488281 156.492188 201.238281 156.410156 C 200.445312 156.144531 199.65625 155.863281 198.847656 155.65625 C 195.722656 154.871094 192.566406 154.25 189.375 153.769531 C 187.917969 153.550781 186.570312 153.558594 185.308594 154.335938 C 184.566406 154.792969 183.824219 154.839844 183.015625 154.597656 C 182.546875 154.453125 182.054688 154.382812 181.578125 154.261719 C 179.464844 153.730469 177.414062 153.046875 175.609375 151.78125 C 174.183594 150.78125 173.199219 149.5 173.164062 147.679688 C 173.625 147.238281 174.148438 147.171875 174.691406 147.222656 C 176.199219 147.371094 177.710938 147.503906 179.210938 147.707031 C 181.351562 148 183.472656 148.398438 185.601562 148.757812 C 190.652344 149.605469 195.6875 150.503906 200.644531 151.804688 C 202.292969 152.238281 203.941406 152.699219 205.570312 153.207031 C 207.578125 153.835938 208.859375 155.355469 209.921875 157.050781 C 211.191406 159.082031 212.539062 161.070312 213.519531 163.269531 C 213.832031 163.96875 214.269531 164.292969 215.035156 164.074219 C 215.546875 166.90625 215.6875 169.765625 215.804688 172.632812 C 215.851562 173.761719 216.050781 174.882812 216.03125 176.019531 C 216.195312 177.414062 216.320312 178.8125 216.539062 180.195312 C 217.351562 185.28125 219.007812 190.136719 220.640625 194.996094 C 221.269531 196.871094 222.027344 198.691406 222.945312 200.453125 C 224.960938 204.332031 226.90625 208.25 228.9375 212.121094 C 232.011719 217.976562 235.15625 223.796875 238.230469 229.65625 C 239.945312 232.917969 241.578125 236.226562 243.246094 239.511719 C 242.949219 239.917969 242.964844 240.324219 243.121094 240.800781 C 245.3125 247.507812 247.351562 254.261719 249.332031 261.035156 C 250.210938 264.054688 251.070312 267.082031 251.695312 270.167969 C 251.90625 271.203125 252.058594 272.261719 252.5 273.242188 C 252.695312 273.683594 253.023438 273.921875 253.496094 273.734375 C 253.933594 273.5625 253.949219 273.179688 253.851562 272.773438 C 253.515625 271.335938 253.199219 269.894531 252.847656 268.457031 C 250.925781 260.605469 248.535156 252.890625 246.039062 245.207031 C 245.746094 244.308594 245.332031 243.445312 245.234375 242.488281 C 245.929688 242.554688 246.589844 242.371094 247.234375 242.148438 C 251.164062 240.796875 255.09375 239.425781 259.027344 238.082031 C 260.269531 237.65625 261.535156 237.292969 262.84375 237.125 " fill-opacity="1" fill-rule="nonzero"/><path fill="#fab685" d="M 149.804688 269.320312 C 152.582031 269.742188 155.363281 270.101562 158.15625 270.386719 C 160.910156 270.667969 163.660156 271.011719 166.417969 271.234375 C 168.613281 271.414062 170.796875 271.667969 172.976562 271.953125 C 175.988281 272.347656 178.976562 272.871094 181.957031 273.445312 C 183.257812 273.695312 184.5625 273.941406 185.863281 274.191406 C 186.53125 274.402344 187.210938 274.535156 187.90625 274.589844 C 188.304688 274.710938 188.695312 274.847656 189.101562 274.945312 C 193.160156 275.914062 197.246094 276.78125 201.378906 277.378906 C 203.480469 277.683594 205.566406 278.125 207.707031 278.128906 C 210.957031 278.132812 214.027344 278.886719 216.871094 280.496094 C 218.089844 281.1875 219.335938 281.832031 220.566406 282.5 L 220.558594 282.484375 C 220.589844 282.609375 220.671875 282.671875 220.789062 282.699219 C 220.949219 283.246094 221.097656 283.796875 221.265625 284.339844 C 222.167969 287.25 223.285156 290.066406 224.753906 292.746094 C 226.089844 295.179688 227.578125 297.519531 229.058594 299.863281 C 230.203125 301.679688 231.558594 303.308594 233.425781 304.441406 C 235.148438 305.492188 236.945312 306.394531 238.785156 307.210938 C 239.21875 307.40625 239.558594 307.652344 239.847656 308.019531 C 240.988281 309.488281 242.140625 310.949219 243.300781 312.398438 C 244.820312 314.296875 246.46875 316.085938 248.070312 317.914062 C 248.523438 318.433594 249.105469 318.902344 249.34375 319.648438 C 248.671875 320.054688 248.019531 320.214844 247.265625 320.09375 C 245.960938 319.890625 244.792969 319.390625 243.710938 318.648438 C 242.582031 317.875 241.425781 317.144531 240.300781 316.363281 C 239.054688 315.5 237.792969 314.632812 236.738281 313.542969 C 236.289062 313.078125 235.910156 312.816406 235.292969 312.894531 C 234.824219 312.753906 234.574219 312.34375 234.253906 312.03125 C 232.25 310.054688 230.351562 307.96875 228.050781 306.3125 C 226.746094 305.371094 225.378906 304.527344 223.777344 304.261719 C 222.386719 304.027344 220.953125 304.085938 219.566406 304.265625 C 217.285156 304.5625 215.105469 304.203125 212.941406 303.578125 C 211.921875 303.28125 210.914062 302.925781 209.929688 302.527344 C 208.121094 301.796875 206.269531 301.628906 204.359375 301.964844 C 202.226562 302.34375 200.078125 302.53125 197.910156 302.609375 C 194.535156 302.730469 191.15625 302.863281 187.789062 303.097656 C 184.347656 303.332031 180.910156 303.660156 177.476562 304.003906 C 175.21875 304.230469 172.96875 304.578125 170.707031 304.828125 C 168.902344 305.03125 167.082031 305.160156 165.273438 305.34375 C 163.503906 305.527344 161.734375 305.742188 159.964844 305.941406 C 157.667969 306.203125 155.367188 306.4375 153.074219 306.734375 C 150.15625 307.113281 147.226562 306.988281 144.304688 306.914062 C 142.261719 306.859375 140.226562 306.59375 138.191406 306.339844 C 136.765625 306.164062 135.332031 306.011719 133.902344 305.828125 C 130.816406 305.433594 127.75 304.949219 124.703125 304.320312 C 123.070312 303.984375 121.4375 303.644531 119.828125 303.1875 C 117.535156 302.53125 115.714844 301.164062 114.289062 299.351562 C 110.304688 294.277344 107.621094 288.574219 106.425781 282.21875 C 106.121094 280.578125 105.976562 278.914062 105.871094 277.242188 C 105.445312 270.472656 105.664062 263.695312 105.765625 256.929688 C 105.828125 253.050781 105.867188 249.171875 105.863281 245.292969 C 105.863281 242.710938 105.640625 240.128906 105.691406 237.539062 C 105.699219 237.183594 105.527344 235.171875 106.136719 234.566406 C 107.71875 235.082031 109.367188 235.609375 111.015625 236.152344 C 118.074219 238.480469 125.128906 240.8125 132.191406 243.128906 C 133.703125 243.625 135.230469 244.070312 136.75 244.539062 C 137.046875 244.679688 137.347656 244.816406 137.605469 244.933594 C 137.796875 245.277344 137.617188 245.65625 137.851562 245.9375 C 137.773438 248.816406 137.984375 251.695312 138.171875 254.5625 C 138.40625 258.140625 138.621094 261.730469 139.21875 265.277344 C 139.347656 266.039062 139.609375 266.734375 139.976562 267.398438 C 137.917969 267.136719 135.855469 266.878906 133.796875 266.621094 C 131.660156 266.351562 129.523438 266.078125 127.386719 265.828125 C 127.128906 265.796875 126.851562 265.832031 126.601562 265.898438 C 126.367188 265.960938 126.253906 266.171875 126.246094 266.425781 C 126.234375 266.679688 126.339844 266.863281 126.589844 266.945312 C 126.769531 267.003906 126.949219 267.105469 127.132812 267.113281 C 128.460938 267.15625 129.75 267.492188 131.066406 267.632812 C 132.605469 267.800781 134.136719 268.023438 135.671875 268.222656 C 137.621094 268.480469 139.566406 268.753906 141.511719 269.003906 C 143.273438 269.226562 145.035156 269.460938 146.800781 269.617188 C 147.808594 269.707031 148.851562 269.882812 149.804688 269.320312 " fill-opacity="1" fill-rule="nonzero"/><path fill="#fab583" d="M 165.164062 102.417969 C 165.535156 103.574219 165.585938 104.566406 165.375 105.605469 C 165.234375 106.308594 165.113281 107.019531 164.9375 107.71875 C 164.84375 108.078125 165.054688 108.3125 165.339844 108.449219 C 165.707031 108.621094 165.910156 108.34375 166.066406 108.082031 C 166.160156 107.925781 166.167969 107.722656 166.234375 107.546875 C 166.789062 106.042969 166.699219 104.480469 166.667969 102.925781 C 166.644531 101.832031 166.328125 100.820312 165.746094 99.910156 C 165.097656 98.902344 164.203125 98.242188 162.929688 98.273438 C 162.515625 98.28125 162.023438 98.214844 161.921875 98.769531 C 161.8125 99.351562 162.304688 99.417969 162.710938 99.527344 C 162.855469 99.5625 163.003906 99.609375 163.152344 99.636719 C 163.972656 99.792969 164.402344 100.367188 164.820312 101.101562 C 164.308594 101.328125 163.847656 101.203125 163.414062 101.265625 C 163.023438 101.320312 162.777344 101.519531 162.792969 101.9375 C 162.808594 102.347656 163.105469 102.414062 163.433594 102.417969 C 163.996094 102.421875 164.558594 102.417969 165.164062 102.417969 Z M 235.132812 127.183594 C 236.082031 125.949219 237.152344 125.492188 238.515625 125.808594 C 238.8125 125.875 239.09375 125.992188 239.382812 126.089844 C 239.777344 126.222656 240.167969 126.226562 240.355469 125.796875 C 240.546875 125.355469 240.214844 125.085938 239.890625 124.875 C 239.703125 124.753906 239.488281 124.660156 239.273438 124.59375 C 237.171875 123.929688 235.445312 124.535156 234.078125 126.355469 C 233.433594 127.210938 232.980469 128.179688 232.589844 129.164062 C 232.3125 129.863281 232.097656 130.609375 232.25 131.386719 C 232.320312 131.726562 232.550781 131.902344 232.902344 131.886719 C 233.234375 131.871094 233.371094 131.660156 233.367188 131.355469 C 233.347656 130.609375 233.660156 129.949219 233.902344 129.277344 C 234.1875 128.484375 234.359375 128.394531 235.175781 128.578125 C 235.667969 128.6875 236.15625 128.675781 236.648438 128.699219 C 237.019531 128.714844 237.496094 128.777344 237.585938 128.292969 C 237.683594 127.78125 237.3125 127.574219 236.835938 127.503906 C 236.320312 127.433594 235.816406 127.316406 235.132812 127.183594 Z M 202.183594 140.082031 C 202.972656 140.082031 203.621094 140.121094 204.261719 140.070312 C 204.757812 140.03125 205.128906 139.722656 205.191406 139.210938 C 205.257812 138.652344 204.867188 138.40625 204.394531 138.261719 C 204.066406 138.15625 203.734375 138.105469 203.390625 138.082031 C 202.015625 137.988281 200.652344 138.183594 199.308594 138.378906 C 196.519531 138.78125 193.855469 139.714844 191.21875 140.679688 C 190.4375 140.964844 189.675781 141.335938 189.101562 141.984375 C 188.785156 142.339844 188.695312 142.710938 188.984375 143.117188 C 189.296875 143.5625 189.6875 143.5 190.085938 143.257812 C 191.765625 142.242188 193.632812 141.726562 195.5 141.199219 C 197.734375 140.570312 199.992188 140.105469 202.183594 140.082031 Z M 216.621094 108.0625 C 217.648438 107.988281 218.8125 107.820312 219.972656 107.59375 C 222.417969 107.109375 224.875 107.019531 227.34375 107.429688 C 227.492188 107.457031 227.644531 107.484375 227.792969 107.5 C 228.308594 107.542969 228.695312 107.359375 228.847656 106.839844 C 228.992188 106.359375 228.71875 105.941406 228.117188 105.730469 C 227.871094 105.644531 227.601562 105.601562 227.339844 105.5625 C 224.835938 105.1875 222.335938 105.265625 219.851562 105.738281 C 218.769531 105.945312 217.691406 106.203125 216.589844 106.273438 C 215.179688 106.363281 214.550781 105.835938 214.355469 104.429688 C 214.300781 104.054688 214.320312 103.671875 214.261719 103.296875 C 214.191406 102.828125 213.914062 102.519531 213.417969 102.539062 C 212.976562 102.554688 212.757812 102.855469 212.660156 103.265625 C 212.066406 105.789062 213.910156 108.113281 216.621094 108.0625 Z M 186.726562 96.199219 C 186.082031 96.214844 185.558594 96.019531 185.023438 96.128906 C 184.578125 96.226562 184.253906 96.46875 184.230469 96.964844 C 184.210938 97.453125 184.46875 97.777344 184.929688 97.867188 C 185.449219 97.964844 185.984375 98.023438 186.511719 98.042969 C 187.890625 98.085938 189.214844 98.375 190.519531 98.8125 C 192.195312 99.375 193.703125 100.238281 195.148438 101.226562 C 195.96875 101.785156 196.804688 102.308594 197.804688 102.484375 C 199.558594 102.800781 201.40625 101.464844 201.652344 99.710938 C 201.710938 99.285156 201.585938 98.945312 201.1875 98.773438 C 200.78125 98.597656 200.4375 98.757812 200.203125 99.109375 C 200.035156 99.359375 199.925781 99.648438 199.769531 99.910156 C 199.246094 100.785156 198.597656 101 197.648438 100.625 C 196.96875 100.355469 196.394531 99.917969 195.804688 99.5 C 193.046875 97.546875 190.015625 96.355469 186.726562 96.199219 Z M 199.117188 117.566406 C 199.117188 117.039062 199.183594 116.546875 198.585938 116.382812 C 198.128906 116.257812 197.757812 116.53125 197.503906 117.164062 C 197.433594 117.335938 197.371094 117.515625 197.320312 117.699219 C 196.953125 119.039062 196.289062 120.207031 195.441406 121.3125 C 194.421875 122.636719 193.335938 123.898438 192.234375 125.148438 C 190.945312 126.617188 190.855469 128.3125 192.101562 129.519531 C 193.453125 130.824219 195.109375 131.542969 196.949219 131.851562 C 197.210938 131.898438 197.476562 131.871094 197.730469 131.757812 C 198.117188 131.589844 198.34375 131.292969 198.363281 130.882812 C 198.378906 130.5 198.109375 130.246094 197.78125 130.117188 C 197.46875 129.988281 197.132812 129.894531 196.796875 129.851562 C 195.664062 129.710938 194.703125 129.1875 193.824219 128.507812 C 193.015625 127.882812 192.972656 127.429688 193.515625 126.5625 C 193.722656 126.238281 193.972656 125.960938 194.238281 125.683594 C 195.710938 124.140625 196.960938 122.421875 198.070312 120.605469 C 198.640625 119.667969 198.957031 118.597656 199.117188 117.566406 Z M 178.566406 125.71875 C 179.527344 125.789062 180.4375 125.65625 181.257812 125.058594 C 182.410156 124.222656 182.578125 122.882812 181.625 121.804688 C 181.101562 121.214844 180.433594 120.875 179.695312 120.65625 C 178.535156 120.3125 177.367188 120.035156 176.152344 119.886719 C 175.386719 119.792969 174.710938 119.929688 174.070312 120.210938 C 172.882812 120.730469 172.535156 121.894531 173.101562 123.066406 C 173.359375 123.59375 173.71875 124.007812 174.199219 124.347656 C 175.507812 125.269531 176.921875 125.839844 178.566406 125.71875 Z M 217.796875 135.085938 C 218.320312 135.167969 218.925781 134.945312 219.523438 134.691406 C 220.050781 134.464844 220.40625 134.054688 220.523438 133.515625 C 220.765625 132.394531 220.492188 131.390625 219.597656 130.632812 C 218.363281 129.585938 216.90625 128.925781 215.351562 128.519531 C 214.292969 128.242188 213.226562 128.046875 212.175781 128.746094 C 211.320312 129.3125 211.082031 129.726562 211.386719 130.714844 C 212.097656 133 215.054688 135.058594 217.796875 135.085938 Z M 184.574219 105.820312 C 184.496094 106.269531 184.164062 106.445312 183.949219 106.695312 C 182.660156 108.1875 181.761719 109.886719 181.210938 111.773438 C 180.898438 112.847656 180.835938 113.941406 181.046875 115.046875 C 181.597656 117.917969 184.304688 119.09375 186.777344 117.523438 C 187.65625 116.964844 188.359375 116.226562 188.914062 115.34375 C 190.582031 112.6875 190.914062 109.808594 190.285156 106.789062 C 190.101562 105.894531 189.582031 105.195312 188.816406 104.695312 C 187.328125 103.726562 185.714844 103.507812 184.011719 103.9375 C 183.144531 104.152344 182.398438 104.609375 181.738281 105.195312 C 181.214844 105.664062 181.136719 106.191406 181.476562 106.59375 C 181.800781 106.972656 182.246094 106.992188 182.804688 106.632812 C 183.027344 106.492188 183.226562 106.308594 183.453125 106.171875 C 183.769531 105.988281 184.070312 105.730469 184.574219 105.820312 Z M 216.582031 113.679688 C 217.203125 113.859375 217.609375 114.300781 217.949219 114.816406 C 218.097656 115.039062 218.214844 115.28125 218.382812 115.484375 C 218.738281 115.910156 219.214844 116.023438 219.589844 115.765625 C 219.992188 115.496094 220.101562 115.097656 219.917969 114.667969 C 219.472656 113.625 218.78125 112.792969 217.792969 112.210938 C 215.050781 110.585938 211.84375 111 210.050781 113.28125 C 209.277344 114.265625 208.601562 115.335938 208.097656 116.488281 C 207.375 118.144531 207.1875 119.863281 207.808594 121.601562 C 208.800781 124.390625 211.46875 125.175781 213.847656 123.390625 C 214.6875 122.765625 215.308594 121.953125 215.765625 121.019531 C 216.878906 118.734375 217.09375 116.367188 216.371094 113.921875 C 216.441406 113.84375 216.511719 113.761719 216.582031 113.679688 Z M 242.28125 120.347656 C 244.128906 121.375 244.601562 123.0625 244.160156 125.019531 C 243.757812 126.816406 242.835938 128.328125 241.738281 129.75 C 240.644531 131.167969 239.371094 132.425781 238.101562 133.6875 C 237.394531 134.394531 236.585938 134.957031 235.746094 135.476562 C 234.339844 136.34375 232.8125 136.449219 231.234375 136.089844 C 230.796875 135.992188 230.363281 135.871094 229.867188 135.742188 C 228.921875 137.378906 228.007812 138.996094 227.054688 140.59375 C 225.007812 144.03125 222.710938 147.28125 219.851562 150.113281 C 217.855469 152.089844 215.535156 153.59375 213.152344 155.015625 C 212.5 155.40625 211.816406 155.742188 211.148438 156.105469 C 210.929688 155.996094 210.839844 155.78125 210.710938 155.589844 C 209.355469 153.558594 207.566406 152.167969 205.152344 151.515625 C 202.300781 150.742188 199.445312 149.984375 196.570312 149.285156 C 192.886719 148.382812 189.121094 147.941406 185.40625 147.199219 C 183.066406 146.730469 180.707031 146.386719 178.339844 146.121094 C 176.835938 145.949219 175.328125 145.71875 173.800781 145.824219 C 172.300781 145.925781 171.679688 146.585938 171.683594 148.0625 C 171.6875 148.769531 171.914062 149.402344 172.1875 150.035156 C 172.339844 150.378906 172.59375 150.683594 172.621094 151.082031 C 171.84375 150.78125 171.480469 150.054688 171.285156 149.394531 C 170.972656 148.335938 170.335938 147.535156 169.6875 146.71875 C 169.292969 146.21875 168.804688 145.800781 168.46875 145.246094 C 168.347656 145.050781 168.144531 144.933594 167.898438 144.945312 C 167.109375 142.847656 166.339844 140.746094 165.675781 138.605469 C 164.761719 135.664062 164.09375 132.675781 163.664062 129.621094 C 163.40625 127.78125 163.28125 125.929688 163.066406 124.085938 C 162.859375 122.261719 163.183594 120.449219 163.367188 118.636719 C 163.46875 117.628906 163.597656 116.621094 163.726562 115.550781 C 162.808594 115.390625 162.039062 115.105469 161.289062 114.746094 C 158.957031 113.625 157.757812 111.6875 157.367188 109.222656 C 156.84375 105.933594 156.828125 102.636719 157.78125 99.40625 C 158.257812 97.792969 158.90625 96.253906 160.386719 95.242188 C 161.3125 94.609375 162.296875 94.339844 163.402344 94.53125 C 165.058594 95.203125 166.078125 96.488281 166.757812 98.082031 C 166.945312 98.523438 167.1875 98.882812 167.695312 98.992188 C 168.09375 98.671875 167.980469 98.054688 168.4375 97.707031 C 168.667969 97.738281 168.925781 97.777344 169.183594 97.816406 C 170.996094 98.109375 172.472656 97.515625 173.671875 96.152344 C 174.402344 95.316406 175.042969 94.417969 175.527344 93.421875 C 176.175781 92.085938 176.792969 90.738281 177.421875 89.394531 C 177.90625 88.359375 178.421875 87.34375 179.128906 86.4375 C 181.542969 83.335938 184.695312 82.117188 188.578125 82.683594 C 190.070312 82.898438 191.417969 83.511719 192.792969 84.058594 C 193.207031 84.226562 193.546875 84.257812 193.976562 84.09375 C 196.054688 83.28125 198.21875 83.214844 200.382812 83.5625 C 203.707031 84.105469 206.5625 85.617188 208.960938 87.984375 C 210.617188 89.617188 212.265625 91.242188 214.164062 92.601562 C 217.929688 95.289062 222.019531 97.390625 226.273438 99.160156 C 230.988281 101.121094 235.789062 102.804688 240.996094 102.796875 C 241.578125 103.429688 241.714844 104.15625 241.671875 105.003906 C 241.550781 107.253906 241.054688 109.445312 240.773438 111.671875 C 240.683594 112.394531 240.441406 113.074219 240.15625 113.742188 C 239.25 115.878906 238.347656 118.015625 237.453125 120.15625 C 237.347656 120.40625 237.066406 120.664062 237.410156 121.011719 C 238.960938 120.382812 240.570312 119.960938 242.28125 120.347656 " fill-opacity="1" fill-rule="nonzero"/><g clip-path="url(#2f6a48ec87)"><path fill="#261916" d="M 242.28125 120.347656 C 240.570312 119.960938 238.960938 120.382812 237.410156 121.011719 C 237.066406 120.664062 237.347656 120.40625 237.453125 120.15625 C 238.347656 118.015625 239.25 115.878906 240.15625 113.742188 C 240.441406 113.074219 240.683594 112.394531 240.773438 111.671875 C 241.054688 109.445312 241.550781 107.253906 241.671875 105.003906 C 241.714844 104.15625 241.578125 103.429688 240.996094 102.796875 C 235.789062 102.804688 230.988281 101.121094 226.273438 99.160156 C 222.019531 97.390625 217.929688 95.289062 214.164062 92.601562 C 212.265625 91.242188 210.617188 89.617188 208.960938 87.984375 C 206.5625 85.617188 203.707031 84.105469 200.382812 83.5625 C 198.21875 83.214844 196.054688 83.28125 193.976562 84.09375 C 193.546875 84.257812 193.207031 84.226562 192.792969 84.058594 C 191.417969 83.511719 190.070312 82.898438 188.578125 82.683594 C 184.695312 82.117188 181.542969 83.335938 179.128906 86.4375 C 178.421875 87.34375 177.90625 88.359375 177.421875 89.394531 C 176.792969 90.738281 176.175781 92.085938 175.527344 93.421875 C 175.042969 94.417969 174.402344 95.316406 173.671875 96.152344 C 172.472656 97.515625 170.996094 98.109375 169.183594 97.816406 C 168.925781 97.777344 168.667969 97.738281 168.4375 97.707031 C 167.980469 98.054688 168.09375 98.671875 167.695312 98.992188 C 167.1875 98.882812 166.945312 98.523438 166.757812 98.082031 C 166.078125 96.488281 165.058594 95.203125 163.402344 94.53125 C 163.464844 91.488281 163.351562 88.4375 163.699219 85.402344 C 164.664062 76.875 167.796875 69.367188 174.042969 63.335938 C 176.84375 60.628906 180.0625 58.566406 183.824219 57.433594 C 184.371094 57.269531 184.929688 57.023438 185.339844 57.640625 C 192.402344 53.921875 200.023438 53.195312 207.746094 52.984375 C 214.613281 52.796875 221.21875 54.191406 227.65625 56.4375 C 232.085938 57.984375 235.992188 60.484375 239.527344 63.566406 C 240.445312 64.367188 241.335938 65.203125 242.28125 65.96875 C 246.796875 69.617188 251.996094 71.742188 257.660156 72.792969 C 259.234375 73.085938 260.835938 73.125 262.441406 73.027344 C 263.390625 72.96875 264.339844 72.941406 265.292969 72.914062 C 265.785156 72.90625 266.277344 72.953125 266.757812 73.101562 C 267.835938 73.433594 268.242188 74.035156 268.089844 75.15625 C 267.953125 76.160156 267.460938 77.03125 266.925781 77.863281 C 265.257812 80.460938 263.386719 82.910156 261.324219 85.210938 C 261.019531 85.550781 260.707031 85.886719 260.390625 86.214844 C 258.066406 88.628906 255.5 90.683594 252.339844 91.714844 C 252.089844 92.015625 252.152344 92.292969 252.148438 92.550781 C 252.125 93.777344 251.96875 94.992188 251.617188 96.160156 C 250.4375 100.09375 249.503906 104.101562 248.183594 108 C 247.636719 109.621094 246.984375 111.203125 246.195312 112.730469 C 244.886719 115.265625 243.585938 117.808594 242.28125 120.347656 " fill-opacity="1" fill-rule="nonzero"/></g><g clip-path="url(#2c5bf5e180)"><path fill="#828442" d="M 262.84375 237.125 C 261.535156 237.292969 260.269531 237.65625 259.027344 238.082031 C 255.09375 239.425781 251.164062 240.796875 247.234375 242.148438 C 246.589844 242.371094 245.929688 242.554688 245.234375 242.488281 C 244.894531 241.894531 244.722656 241.242188 244.5 240.601562 C 244.292969 240.015625 244 239.488281 243.246094 239.511719 C 241.578125 236.226562 239.945312 232.917969 238.230469 229.65625 C 235.15625 223.796875 232.011719 217.976562 228.9375 212.121094 C 226.90625 208.25 224.960938 204.332031 222.945312 200.453125 C 222.027344 198.691406 221.269531 196.871094 220.640625 194.996094 C 219.007812 190.136719 217.351562 185.28125 216.539062 180.195312 C 216.320312 178.8125 216.195312 177.414062 216.03125 176.019531 C 219.703125 177.824219 223.570312 179.035156 227.597656 179.75 C 229.921875 180.160156 232.269531 180.375 234.621094 180.515625 C 238 180.71875 241.378906 180.898438 244.746094 181.253906 C 248.203125 181.617188 251.347656 182.699219 253.921875 185.144531 C 255.488281 186.632812 256.699219 188.363281 257.617188 190.3125 C 259.601562 194.519531 261.234375 198.859375 262.511719 203.332031 C 265.058594 212.253906 267.5625 221.191406 270.238281 230.078125 C 270.585938 231.242188 270.851562 232.425781 271.03125 233.765625 C 268.332031 234.949219 265.59375 236.046875 262.84375 237.125 " fill-opacity="1" fill-rule="nonzero"/></g><path fill="#828442" d="M 153.191406 168.003906 C 154.570312 167.777344 155.949219 167.550781 157.332031 167.328125 C 157.929688 167.230469 158.527344 167.140625 159.125 167.046875 C 160.082031 167.128906 160.988281 166.773438 161.90625 166.792969 C 162.53125 165.675781 162.78125 165.636719 163.5 166.589844 C 163.984375 167.234375 164.582031 167.765625 165.074219 168.390625 C 168.914062 173.242188 173.1875 177.726562 177.148438 182.476562 C 179.382812 185.15625 181.734375 187.738281 184.035156 190.363281 C 184.035156 190.699219 183.859375 190.945312 183.605469 191.128906 C 182.097656 192.210938 180.734375 193.476562 179.167969 194.480469 C 177.765625 195.378906 176.386719 196.3125 175.074219 197.351562 C 173.742188 198.410156 172.328125 199.359375 170.976562 200.394531 C 170.496094 200.761719 170.152344 200.671875 169.804688 200.265625 C 169.65625 200.09375 169.527344 199.90625 169.390625 199.722656 C 168.464844 198.464844 167.746094 197.078125 167.054688 195.691406 C 164.332031 190.257812 161.664062 184.796875 158.980469 179.34375 C 158.894531 179.175781 158.8125 179.003906 158.734375 178.828125 C 157.664062 176.351562 156.421875 173.960938 155.132812 171.589844 C 154.484375 170.394531 153.695312 169.277344 153.191406 168.003906 " fill-opacity="1" fill-rule="nonzero"/><path fill="#fab685" d="M 184.035156 190.363281 C 181.734375 187.738281 179.382812 185.15625 177.148438 182.476562 C 173.1875 177.726562 168.914062 173.242188 165.074219 168.390625 C 164.582031 167.765625 163.984375 167.234375 163.5 166.589844 C 162.78125 165.636719 162.53125 165.675781 161.90625 166.792969 C 160.988281 166.773438 160.082031 167.128906 159.125 167.046875 C 160.203125 166.347656 161.332031 165.734375 162.488281 165.175781 C 165.152344 163.886719 166.652344 161.769531 167.113281 158.867188 C 167.25 158.007812 167.46875 157.164062 167.652344 156.316406 C 167.71875 156.34375 167.832031 156.355469 167.855469 156.40625 C 168.355469 157.519531 169.28125 158.0625 170.394531 158.464844 C 172.734375 159.3125 175.136719 159.929688 177.566406 160.449219 C 177.945312 160.53125 178.304688 160.597656 178.5625 160.914062 C 178.265625 161.308594 177.957031 161.695312 177.679688 162.101562 C 176.703125 163.550781 176.867188 164.441406 178.289062 165.460938 C 179.054688 166.011719 179.851562 166.503906 180.847656 166.894531 C 180.277344 167.492188 179.765625 167.984375 179.304688 168.527344 C 178.460938 169.519531 178.585938 170.628906 179.640625 171.378906 C 181.085938 172.410156 182.644531 173.148438 184.492188 173.039062 C 184.75 173.023438 185.023438 172.988281 185.289062 173.140625 C 185.585938 173.640625 185.617188 174.269531 186.070312 174.738281 C 187.3125 176.015625 188.75 176.507812 190.507812 176.09375 C 190.960938 175.984375 191.40625 175.695312 192.054688 175.902344 C 191.71875 178.125 191.828125 180.355469 191.777344 182.582031 C 189.542969 184.535156 187.839844 186.910156 186.28125 189.40625 C 185.359375 189.320312 184.753906 189.976562 184.035156 190.363281 " fill-opacity="1" fill-rule="nonzero"/><path fill="#757633" d="M 184.035156 190.363281 C 184.753906 189.976562 185.359375 189.320312 186.28125 189.410156 C 186.460938 189.832031 186.914062 190.121094 186.617188 190.738281 C 186.191406 191.628906 186.269531 191.640625 187.089844 192.273438 C 189.242188 193.933594 191.414062 195.574219 193.558594 197.246094 C 194.925781 198.3125 196.199219 199.503906 197.648438 200.46875 C 198.621094 201.109375 199.214844 201.046875 200.089844 200.261719 C 200.417969 199.960938 200.664062 199.53125 201.1875 199.515625 C 201.582031 200.085938 202.011719 200.636719 202.117188 201.351562 C 201.679688 201.335938 201.464844 201.691406 201.164062 201.910156 C 199.695312 203 198.550781 203.351562 196.816406 202.175781 C 195.6875 201.410156 194.644531 200.539062 193.585938 199.675781 C 191.828125 198.242188 190.019531 196.871094 188.25 195.449219 C 187.472656 194.828125 186.757812 194.089844 185.863281 193.671875 C 185.601562 193.847656 185.632812 194.046875 185.628906 194.230469 C 185.550781 198.40625 185.628906 202.582031 185.457031 206.761719 C 185.300781 210.46875 185.304688 214.195312 185.582031 217.921875 C 185.867188 221.777344 185.46875 225.664062 185.832031 229.535156 C 186.042969 231.796875 185.898438 234.078125 186.015625 236.355469 C 186.160156 239.15625 186.292969 241.964844 186.296875 244.773438 C 186.300781 247.011719 186.703125 249.234375 186.546875 251.480469 C 186.539062 251.554688 186.539062 251.632812 186.558594 251.707031 C 187.035156 253.488281 186.664062 255.324219 186.949219 257.136719 C 187.222656 258.84375 187.039062 260.609375 187.171875 262.355469 C 187.367188 264.921875 187.242188 267.507812 187.429688 270.085938 C 187.542969 271.597656 187.679688 273.097656 187.90625 274.59375 C 187.210938 274.535156 186.53125 274.402344 185.863281 274.191406 C 185.4375 272.5625 185.804688 270.867188 185.429688 269.222656 C 185.296875 268.644531 185.378906 268.007812 185.402344 267.402344 C 185.503906 264.511719 185.144531 261.640625 185.109375 258.753906 C 185.089844 257.25 185.144531 255.699219 184.894531 254.222656 C 184.59375 252.449219 184.980469 250.644531 184.496094 248.902344 C 184.476562 248.832031 184.484375 248.753906 184.488281 248.675781 C 184.652344 245.785156 184.308594 242.910156 184.210938 240.027344 C 184.113281 237.257812 184.207031 234.476562 183.972656 231.722656 C 183.785156 229.480469 183.914062 227.246094 183.792969 225.011719 C 183.398438 217.753906 183.546875 210.488281 183.617188 203.230469 C 183.640625 200.617188 183.78125 198 183.800781 195.378906 C 183.804688 194.753906 184.246094 194.152344 183.878906 193.429688 C 183.238281 193.566406 182.949219 194.171875 182.46875 194.496094 C 180.644531 195.722656 178.832031 196.960938 177.046875 198.242188 C 175.449219 199.390625 173.890625 200.597656 172.316406 201.773438 C 171.886719 202.097656 171.425781 202.382812 170.898438 202.476562 C 169.839844 202.667969 168.941406 202.367188 168.28125 201.480469 C 167.578125 200.539062 166.953125 199.546875 166.382812 198.515625 C 165.148438 196.289062 164.035156 194.003906 162.964844 191.695312 C 161.828125 189.246094 160.542969 186.867188 159.363281 184.4375 C 157.519531 180.644531 155.71875 176.832031 153.875 173.035156 C 153.277344 171.808594 152.597656 170.621094 151.960938 169.410156 C 151.765625 169.042969 151.546875 168.675781 151.59375 168.230469 C 152.054688 167.65625 152.59375 167.617188 153.191406 168.003906 C 153.695312 169.277344 154.484375 170.394531 155.132812 171.589844 C 156.421875 173.960938 157.664062 176.351562 158.734375 178.828125 C 158.8125 179.003906 158.894531 179.175781 158.980469 179.34375 C 161.664062 184.796875 164.332031 190.257812 167.054688 195.691406 C 167.746094 197.078125 168.464844 198.464844 169.390625 199.722656 C 169.527344 199.90625 169.65625 200.09375 169.804688 200.265625 C 170.152344 200.671875 170.496094 200.761719 170.976562 200.394531 C 172.328125 199.359375 173.742188 198.410156 175.074219 197.351562 C 176.386719 196.3125 177.765625 195.378906 179.167969 194.480469 C 180.734375 193.476562 182.097656 192.210938 183.605469 191.128906 C 183.859375 190.945312 184.035156 190.699219 184.035156 190.363281 " fill-opacity="1" fill-rule="nonzero"/><path fill="#da654b" d="M 191.777344 182.582031 C 191.828125 180.355469 191.71875 178.125 192.054688 175.902344 C 191.40625 175.695312 190.960938 175.984375 190.507812 176.09375 C 188.75 176.507812 187.3125 176.015625 186.070312 174.738281 C 185.617188 174.269531 185.585938 173.640625 185.289062 173.140625 C 185.023438 172.988281 184.75 173.023438 184.492188 173.039062 C 182.644531 173.148438 181.085938 172.410156 179.640625 171.378906 C 178.585938 170.628906 178.460938 169.519531 179.304688 168.527344 C 179.765625 167.984375 180.277344 167.492188 180.847656 166.894531 C 179.851562 166.503906 179.054688 166.011719 178.289062 165.460938 C 176.867188 164.441406 176.703125 163.550781 177.679688 162.101562 C 177.957031 161.695312 178.265625 161.308594 178.5625 160.914062 C 178.9375 160.492188 179.300781 160.058594 179.699219 159.65625 C 180.679688 158.652344 181.679688 157.664062 182.664062 156.664062 C 182.839844 156.488281 183.117188 156.339844 182.953125 155.960938 C 181.203125 155.75 179.527344 155.179688 177.839844 154.625 C 175.878906 153.976562 174.328125 152.730469 172.882812 151.3125 C 172.792969 151.234375 172.699219 151.152344 172.605469 151.074219 L 172.621094 151.082031 C 172.59375 150.683594 172.339844 150.378906 172.1875 150.035156 C 171.914062 149.402344 171.6875 148.769531 171.683594 148.0625 C 171.679688 146.585938 172.300781 145.925781 173.800781 145.824219 C 175.328125 145.71875 176.835938 145.949219 178.339844 146.121094 C 180.707031 146.386719 183.066406 146.730469 185.40625 147.199219 C 189.121094 147.941406 192.886719 148.382812 196.570312 149.285156 C 199.445312 149.984375 202.300781 150.742188 205.152344 151.515625 C 207.566406 152.167969 209.355469 153.558594 210.710938 155.589844 C 210.839844 155.78125 210.929688 155.996094 211.148438 156.105469 C 211.917969 157.394531 212.675781 158.695312 213.46875 159.976562 C 214.003906 160.84375 214.441406 161.757812 214.898438 162.664062 C 215.132812 163.128906 215.226562 163.582031 215.035156 164.074219 C 214.269531 164.292969 213.832031 163.96875 213.519531 163.269531 C 212.539062 161.070312 211.191406 159.082031 209.921875 157.050781 C 208.859375 155.355469 207.578125 153.835938 205.570312 153.207031 C 203.941406 152.699219 202.292969 152.238281 200.644531 151.804688 C 195.6875 150.503906 190.652344 149.605469 185.601562 148.757812 C 183.472656 148.398438 181.351562 148 179.210938 147.707031 C 177.710938 147.503906 176.199219 147.371094 174.691406 147.222656 C 174.148438 147.171875 173.625 147.238281 173.164062 147.679688 C 173.199219 149.5 174.183594 150.78125 175.609375 151.78125 C 177.414062 153.046875 179.464844 153.730469 181.578125 154.261719 C 182.054688 154.382812 182.546875 154.453125 183.015625 154.597656 C 183.824219 154.839844 184.566406 154.792969 185.308594 154.335938 C 186.570312 153.558594 187.917969 153.550781 189.375 153.769531 C 192.566406 154.25 195.722656 154.871094 198.847656 155.65625 C 199.65625 155.863281 200.445312 156.144531 201.238281 156.410156 C 201.488281 156.492188 201.742188 156.59375 201.917969 156.8125 C 202.265625 157.257812 202.03125 157.851562 201.472656 157.9375 C 201.164062 157.980469 200.878906 157.875 200.585938 157.773438 C 197.128906 156.589844 193.542969 155.964844 189.941406 155.398438 C 189.457031 155.320312 188.972656 155.234375 188.484375 155.175781 C 186.984375 154.996094 185.808594 155.609375 184.792969 156.605469 C 182.921875 158.445312 181.027344 160.273438 179.351562 162.292969 C 178.425781 163.410156 177.980469 163.609375 179.699219 164.722656 C 180.046875 164.949219 180.40625 165.171875 180.789062 165.339844 C 181.472656 165.640625 182.078125 165.59375 182.628906 164.964844 C 184.179688 163.191406 185.867188 161.539062 187.472656 159.816406 C 189.144531 158.023438 191.128906 157.6875 193.402344 158.058594 C 197.308594 158.6875 201.101562 159.773438 204.921875 160.75 C 205.4375 160.882812 205.957031 160.992188 206.472656 161.109375 C 206.621094 161.144531 206.78125 161.148438 206.917969 161.207031 C 207.328125 161.390625 207.65625 161.6875 207.511719 162.175781 C 207.367188 162.652344 206.957031 162.753906 206.496094 162.644531 C 205.464844 162.402344 204.421875 162.183594 203.402344 161.902344 C 200.179688 161.027344 196.945312 160.195312 193.660156 159.601562 C 192.683594 159.425781 191.683594 159.476562 190.695312 159.535156 C 189.929688 159.582031 189.355469 160.085938 188.839844 160.578125 C 186.933594 162.378906 185.21875 164.367188 183.457031 166.3125 C 182.640625 167.21875 181.765625 168.0625 180.921875 168.941406 C 180.121094 169.773438 180.164062 170.039062 181.160156 170.671875 C 182.425781 171.476562 183.800781 171.824219 185.292969 171.644531 C 185.945312 171.566406 186.570312 171.425781 186.996094 170.855469 C 188.113281 169.355469 189.566406 168.160156 190.757812 166.722656 C 191.503906 165.820312 192.558594 165.507812 193.707031 165.480469 C 196.1875 165.417969 198.621094 165.804688 201.050781 166.242188 C 202.207031 166.453125 203.359375 166.667969 204.519531 166.859375 C 204.867188 166.914062 205.191406 167.011719 205.476562 167.203125 C 205.777344 167.398438 206.019531 167.660156 205.871094 168.054688 C 205.75 168.386719 205.449219 168.5 205.125 168.457031 C 204.339844 168.351562 203.546875 168.25 202.769531 168.097656 C 199.789062 167.5 196.808594 166.964844 193.746094 167.03125 C 192.921875 167.050781 192.3125 167.285156 191.742188 167.886719 C 190.246094 169.457031 188.753906 171.023438 187.398438 172.71875 C 186.863281 173.386719 186.898438 173.601562 187.5625 174.101562 C 188.617188 174.894531 189.765625 174.808594 190.910156 174.382812 C 191.917969 174.007812 192.796875 173.386719 193.605469 172.691406 C 194.875 171.609375 196.265625 171.066406 197.988281 171.171875 C 199.921875 171.296875 201.847656 171.417969 203.769531 171.644531 C 204.25 171.703125 204.601562 171.875 204.550781 172.410156 C 204.496094 172.960938 204.050781 173.09375 203.617188 172.996094 C 201.707031 172.566406 199.75 172.953125 197.828125 172.625 C 196.925781 172.472656 196.015625 172.703125 195.253906 173.320312 C 194.695312 173.773438 194.109375 174.195312 193.5625 174.613281 C 193.335938 176.097656 193.441406 177.570312 193.230469 179.03125 C 193.085938 180.039062 193.167969 181.082031 193.167969 182.109375 C 193.167969 182.625 193.046875 183.019531 192.449219 183.074219 C 192.226562 182.910156 192.003906 182.746094 191.777344 182.582031 " fill-opacity="1" fill-rule="nonzero"/><g clip-path="url(#58080b3485)"><path fill="#da684c" d="M 250.09375 307.695312 C 249.984375 308.015625 250.085938 308.21875 250.203125 308.421875 C 250.691406 309.277344 251.15625 310.148438 251.675781 310.988281 C 253.199219 313.4375 254.9375 315.742188 256.632812 318.074219 C 257.289062 318.976562 257.921875 319.183594 258.9375 318.894531 C 260.503906 318.453125 260.605469 318.277344 259.753906 316.957031 C 258.128906 314.4375 256.40625 311.980469 254.984375 309.332031 C 254.554688 308.53125 254.085938 307.746094 253.628906 306.957031 C 253.449219 306.65625 253.234375 306.332031 252.824219 306.503906 C 251.890625 306.894531 250.902344 307.171875 250.09375 307.695312 Z M 256.242188 320.179688 C 256.023438 319.433594 255.59375 318.898438 255.175781 318.367188 C 253.636719 316.394531 252.148438 314.390625 250.824219 312.257812 C 250.125 311.125 249.527344 309.941406 248.824219 308.8125 C 248.59375 308.445312 248.378906 308.246094 247.921875 308.351562 C 246.71875 308.628906 245.519531 308.570312 244.3125 308.363281 C 243.546875 308.230469 242.761719 308.199219 241.992188 308.125 C 241.933594 308.394531 242.035156 308.5625 242.148438 308.710938 C 242.832031 309.570312 243.515625 310.429688 244.210938 311.28125 C 245.792969 313.222656 247.449219 315.097656 249.113281 316.960938 C 249.6875 317.605469 250.460938 318.152344 250.746094 318.980469 C 250.984375 319.664062 251.476562 319.90625 252.019531 320.167969 C 252.570312 320.433594 253.171875 320.609375 253.765625 320.628906 C 254.570312 320.660156 255.441406 320.898438 256.242188 320.179688 Z M 235.292969 312.894531 C 235.910156 312.816406 236.289062 313.078125 236.738281 313.542969 C 237.792969 314.632812 239.054688 315.5 240.300781 316.363281 C 241.425781 317.144531 242.582031 317.875 243.710938 318.648438 C 244.792969 319.390625 245.960938 319.890625 247.265625 320.09375 C 248.019531 320.214844 248.671875 320.054688 249.34375 319.648438 C 249.105469 318.902344 248.523438 318.433594 248.070312 317.914062 C 246.46875 316.085938 244.820312 314.296875 243.300781 312.398438 C 242.140625 310.949219 240.988281 309.488281 239.847656 308.019531 C 239.558594 307.652344 239.21875 307.40625 238.785156 307.210938 C 236.945312 306.394531 235.148438 305.492188 233.425781 304.441406 C 231.558594 303.308594 230.203125 301.679688 229.058594 299.863281 C 227.578125 297.519531 226.089844 295.179688 224.753906 292.746094 C 223.285156 290.066406 222.167969 287.25 221.265625 284.339844 C 221.097656 283.796875 220.949219 283.246094 220.789062 282.699219 C 220.714844 282.628906 220.636719 282.554688 220.558594 282.484375 L 220.566406 282.5 C 220.664062 281.765625 220.390625 281.089844 220.207031 280.402344 C 220.070312 279.910156 220.082031 279.507812 220.601562 279.265625 C 221.28125 279.367188 221.351562 279.945312 221.503906 280.441406 C 222.089844 282.328125 222.617188 284.230469 223.304688 286.085938 C 224.449219 289.160156 225.886719 292.089844 227.605469 294.882812 C 228.582031 296.46875 229.609375 298.023438 230.59375 299.601562 C 231.65625 301.316406 233.046875 302.695312 234.820312 303.648438 C 236.296875 304.441406 237.78125 305.222656 239.3125 305.894531 C 240.925781 306.601562 242.664062 306.835938 244.414062 306.953125 C 245.765625 307.042969 247.121094 307.351562 248.453125 306.753906 C 249.664062 306.210938 250.910156 305.742188 252.132812 305.21875 C 253.84375 304.488281 255.542969 303.722656 257.261719 303.003906 C 258.226562 302.597656 258.507812 302.769531 258.765625 303.789062 C 257.65625 304.792969 256.285156 305.386719 255.054688 306.117188 C 254.890625 306.511719 255.136719 306.746094 255.265625 307.007812 C 256.234375 308.957031 257.542969 310.691406 258.789062 312.460938 C 259.882812 314.015625 260.9375 315.585938 261.570312 317.410156 C 261.945312 318.5 261.8125 318.996094 260.804688 319.570312 C 260.574219 319.703125 260.335938 319.824219 260.085938 319.914062 C 259.363281 320.175781 258.488281 320.152344 258.089844 321.007812 C 256.660156 321.632812 255.238281 322.296875 253.605469 321.945312 C 252.75 321.761719 251.886719 321.585938 251.121094 321.140625 C 250.652344 320.867188 250.238281 320.828125 249.734375 321.0625 C 248.34375 321.714844 246.929688 321.605469 245.515625 321.105469 C 244.578125 320.777344 243.714844 320.304688 242.875 319.773438 C 240.5625 318.304688 238.359375 316.679688 236.289062 314.886719 C 235.703125 314.378906 234.996094 313.871094 235.292969 312.894531 " fill-opacity="1" fill-rule="nonzero"/></g><path fill="#f48469" d="M 172.882812 151.3125 C 174.328125 152.730469 175.878906 153.976562 177.839844 154.625 C 179.527344 155.179688 181.203125 155.75 182.953125 155.960938 C 183.117188 156.339844 182.839844 156.488281 182.664062 156.664062 C 181.679688 157.664062 180.679688 158.652344 179.699219 159.65625 C 179.300781 160.058594 178.9375 160.492188 178.5625 160.914062 C 178.304688 160.597656 177.945312 160.53125 177.566406 160.449219 C 175.136719 159.929688 172.734375 159.3125 170.394531 158.464844 C 169.28125 158.0625 168.355469 157.519531 167.855469 156.40625 C 167.832031 156.355469 167.71875 156.34375 167.652344 156.316406 C 167.773438 153.625 167.90625 150.929688 168.011719 148.238281 C 168.058594 147.140625 168.023438 146.039062 167.898438 144.945312 C 168.144531 144.933594 168.347656 145.050781 168.46875 145.246094 C 168.804688 145.800781 169.292969 146.21875 169.6875 146.71875 C 170.335938 147.535156 170.972656 148.335938 171.285156 149.394531 C 171.480469 150.054688 171.84375 150.78125 172.621094 151.082031 C 172.621094 151.082031 172.605469 151.074219 172.605469 151.074219 C 172.65625 151.203125 172.75 151.28125 172.882812 151.3125 " fill-opacity="1" fill-rule="nonzero"/><path fill="#757633" d="M 137.851562 245.9375 C 137.617188 245.65625 137.796875 245.277344 137.605469 244.933594 C 137.347656 244.816406 137.046875 244.679688 136.75 244.539062 C 136.382812 236.453125 136.566406 228.359375 136.507812 220.269531 C 136.496094 218.785156 136.871094 217.335938 136.765625 215.847656 C 136.726562 215.3125 137.234375 214.890625 137.695312 214.914062 C 138.121094 214.9375 138.519531 215.328125 138.566406 215.808594 C 138.59375 216.109375 138.574219 216.417969 138.574219 216.71875 C 138.574219 223.488281 138.492188 230.257812 138.617188 237.027344 C 138.667969 239.636719 138.800781 242.253906 138.800781 244.867188 C 138.800781 245.742188 138.773438 245.742188 137.851562 245.9375 " fill-opacity="1" fill-rule="nonzero"/><path fill="#d8664b" d="M 149.804688 269.320312 C 148.851562 269.882812 147.808594 269.707031 146.800781 269.617188 C 145.035156 269.460938 143.273438 269.226562 141.511719 269.003906 C 139.566406 268.753906 137.621094 268.480469 135.671875 268.222656 C 134.136719 268.023438 132.605469 267.800781 131.066406 267.632812 C 129.75 267.492188 128.460938 267.15625 127.132812 267.113281 C 126.949219 267.105469 126.769531 267.003906 126.589844 266.945312 C 126.339844 266.863281 126.234375 266.679688 126.246094 266.425781 C 126.253906 266.171875 126.367188 265.960938 126.601562 265.898438 C 126.851562 265.832031 127.128906 265.796875 127.386719 265.828125 C 129.523438 266.078125 131.660156 266.351562 133.796875 266.621094 C 135.855469 266.878906 137.917969 267.136719 139.976562 267.398438 C 140.835938 267.753906 141.78125 267.742188 142.660156 267.800781 C 144.703125 267.929688 146.710938 268.394531 148.769531 268.320312 C 149.585938 268.292969 149.597656 268.355469 149.804688 269.320312 " fill-opacity="1" fill-rule="nonzero"/><path fill="#828442" d="M 220.601562 279.265625 C 220.082031 279.507812 220.070312 279.910156 220.207031 280.402344 C 220.390625 281.089844 220.664062 281.765625 220.566406 282.5 C 219.335938 281.832031 218.089844 281.1875 216.871094 280.496094 C 214.027344 278.886719 210.957031 278.132812 207.707031 278.128906 C 205.566406 278.125 203.480469 277.683594 201.378906 277.378906 C 197.246094 276.78125 193.160156 275.914062 189.101562 274.945312 C 188.695312 274.847656 188.304688 274.710938 187.90625 274.589844 C 187.679688 273.097656 187.542969 271.597656 187.429688 270.085938 C 187.242188 267.507812 187.367188 264.921875 187.171875 262.355469 C 187.039062 260.609375 187.222656 258.84375 186.949219 257.136719 C 186.664062 255.324219 187.035156 253.488281 186.558594 251.707031 C 186.539062 251.632812 186.539062 251.554688 186.546875 251.480469 C 186.703125 249.234375 186.300781 247.011719 186.296875 244.773438 C 186.292969 241.964844 186.160156 239.15625 186.015625 236.355469 C 185.898438 234.078125 186.042969 231.796875 185.832031 229.535156 C 185.46875 225.664062 185.867188 221.777344 185.582031 217.921875 C 185.304688 214.195312 185.300781 210.46875 185.457031 206.761719 C 185.628906 202.582031 185.550781 198.40625 185.628906 194.230469 C 185.632812 194.046875 185.601562 193.847656 185.863281 193.671875 C 186.757812 194.089844 187.472656 194.828125 188.25 195.449219 C 190.019531 196.871094 191.828125 198.242188 193.585938 199.675781 C 194.644531 200.539062 195.6875 201.410156 196.816406 202.175781 C 198.550781 203.351562 199.695312 203 201.164062 201.910156 C 201.464844 201.691406 201.679688 201.335938 202.117188 201.351562 C 203.023438 202.789062 203.457031 204.417969 203.839844 206.03125 C 206.40625 216.8125 209.230469 227.535156 211.789062 238.316406 C 213.402344 245.109375 214.71875 251.96875 216.007812 258.828125 C 216.949219 263.828125 218.101562 268.78125 219.277344 273.726562 C 219.71875 275.574219 220.160156 277.421875 220.601562 279.265625 " fill-opacity="1" fill-rule="nonzero"/><path fill="#838343" d="M 191.777344 182.582031 C 192.003906 182.746094 192.226562 182.910156 192.449219 183.074219 C 192.421875 184.972656 192.539062 186.855469 192.910156 188.722656 C 193.539062 191.890625 195.351562 194.300781 197.75 196.332031 C 198.324219 196.820312 198.957031 197.242188 199.589844 197.660156 C 200.304688 198.128906 200.851562 198.726562 201.1875 199.515625 C 200.664062 199.53125 200.417969 199.960938 200.089844 200.261719 C 199.214844 201.046875 198.621094 201.109375 197.648438 200.46875 C 196.199219 199.503906 194.925781 198.3125 193.558594 197.246094 C 191.414062 195.574219 189.242188 193.933594 187.089844 192.273438 C 186.269531 191.640625 186.191406 191.628906 186.617188 190.738281 C 186.914062 190.121094 186.460938 189.832031 186.28125 189.410156 C 187.839844 186.910156 189.542969 184.535156 191.777344 182.582031 " fill-opacity="1" fill-rule="nonzero"/><path fill="#da654b" d="M 243.246094 239.511719 C 244 239.488281 244.292969 240.015625 244.5 240.601562 C 244.722656 241.242188 244.894531 241.894531 245.234375 242.488281 C 245.332031 243.445312 245.746094 244.308594 246.039062 245.207031 C 248.535156 252.890625 250.925781 260.605469 252.847656 268.457031 C 253.199219 269.894531 253.515625 271.335938 253.851562 272.773438 C 253.949219 273.179688 253.933594 273.5625 253.496094 273.734375 C 253.023438 273.921875 252.695312 273.683594 252.5 273.242188 C 252.058594 272.261719 251.90625 271.203125 251.695312 270.167969 C 251.070312 267.082031 250.210938 264.054688 249.332031 261.035156 C 247.351562 254.261719 245.3125 247.507812 243.121094 240.800781 C 242.964844 240.324219 242.949219 239.917969 243.246094 239.511719 " fill-opacity="1" fill-rule="nonzero"/><path fill="#828442" d="M 220.558594 282.484375 C 220.636719 282.554688 220.714844 282.628906 220.789062 282.699219 C 220.671875 282.671875 220.589844 282.609375 220.558594 282.484375 " fill-opacity="1" fill-rule="nonzero"/><path fill="#13110f" d="M 184.574219 105.820312 C 184.070312 105.730469 183.769531 105.988281 183.453125 106.171875 C 183.226562 106.308594 183.027344 106.492188 182.804688 106.632812 C 182.246094 106.992188 181.800781 106.972656 181.476562 106.59375 C 181.136719 106.191406 181.214844 105.664062 181.738281 105.195312 C 182.398438 104.609375 183.144531 104.152344 184.011719 103.9375 C 185.714844 103.507812 187.328125 103.726562 188.816406 104.695312 C 189.582031 105.195312 190.101562 105.894531 190.285156 106.789062 C 190.914062 109.808594 190.582031 112.6875 188.914062 115.34375 C 188.359375 116.226562 187.65625 116.964844 186.777344 117.523438 C 184.304688 119.09375 181.597656 117.917969 181.046875 115.046875 C 180.835938 113.941406 180.898438 112.847656 181.210938 111.773438 C 181.761719 109.886719 182.660156 108.1875 183.949219 106.695312 C 184.164062 106.445312 184.496094 106.269531 184.574219 105.820312 " fill-opacity="1" fill-rule="nonzero"/><path fill="#13110f" d="M 216.371094 113.921875 C 217.09375 116.367188 216.878906 118.734375 215.765625 121.019531 C 215.308594 121.953125 214.6875 122.765625 213.847656 123.390625 C 211.46875 125.175781 208.800781 124.390625 207.808594 121.601562 C 207.1875 119.863281 207.375 118.144531 208.097656 116.488281 C 208.601562 115.335938 209.277344 114.265625 210.050781 113.28125 C 211.84375 111 215.050781 110.585938 217.792969 112.210938 C 218.78125 112.792969 219.472656 113.625 219.917969 114.667969 C 220.101562 115.097656 219.992188 115.496094 219.589844 115.765625 C 219.214844 116.023438 218.738281 115.910156 218.382812 115.484375 C 218.214844 115.28125 218.097656 115.039062 217.949219 114.816406 C 217.609375 114.300781 217.203125 113.859375 216.582031 113.679688 C 216.492188 113.613281 216.390625 113.542969 216.300781 113.648438 C 216.214844 113.746094 216.28125 113.847656 216.371094 113.921875 " fill-opacity="1" fill-rule="nonzero"/><path fill="#ec694f" d="M 217.796875 135.085938 C 215.054688 135.058594 212.097656 133 211.386719 130.714844 C 211.082031 129.726562 211.320312 129.3125 212.175781 128.746094 C 213.226562 128.046875 214.292969 128.242188 215.351562 128.519531 C 216.90625 128.925781 218.363281 129.585938 219.597656 130.632812 C 220.492188 131.390625 220.765625 132.394531 220.523438 133.515625 C 220.40625 134.054688 220.050781 134.464844 219.523438 134.691406 C 218.925781 134.945312 218.320312 135.167969 217.796875 135.085938 " fill-opacity="1" fill-rule="nonzero"/><path fill="#ec694f" d="M 178.566406 125.71875 C 176.921875 125.839844 175.507812 125.269531 174.199219 124.347656 C 173.71875 124.007812 173.359375 123.59375 173.101562 123.066406 C 172.535156 121.894531 172.882812 120.730469 174.070312 120.210938 C 174.710938 119.929688 175.386719 119.792969 176.152344 119.886719 C 177.367188 120.035156 178.535156 120.3125 179.695312 120.65625 C 180.433594 120.875 181.101562 121.214844 181.625 121.804688 C 182.578125 122.882812 182.410156 124.222656 181.257812 125.058594 C 180.4375 125.65625 179.527344 125.789062 178.566406 125.71875 " fill-opacity="1" fill-rule="nonzero"/><path fill="#d9674a" d="M 199.117188 117.566406 C 198.957031 118.597656 198.640625 119.667969 198.070312 120.605469 C 196.960938 122.421875 195.710938 124.140625 194.238281 125.683594 C 193.972656 125.960938 193.722656 126.238281 193.515625 126.5625 C 192.972656 127.429688 193.015625 127.882812 193.824219 128.507812 C 194.703125 129.1875 195.664062 129.710938 196.796875 129.851562 C 197.132812 129.894531 197.46875 129.988281 197.78125 130.117188 C 198.109375 130.246094 198.378906 130.5 198.363281 130.882812 C 198.34375 131.292969 198.117188 131.589844 197.730469 131.757812 C 197.476562 131.871094 197.210938 131.898438 196.949219 131.851562 C 195.109375 131.542969 193.453125 130.824219 192.101562 129.519531 C 190.855469 128.3125 190.945312 126.617188 192.234375 125.148438 C 193.335938 123.898438 194.421875 122.636719 195.441406 121.3125 C 196.289062 120.207031 196.953125 119.039062 197.320312 117.699219 C 197.371094 117.515625 197.433594 117.335938 197.503906 117.164062 C 197.757812 116.53125 198.128906 116.257812 198.585938 116.382812 C 199.183594 116.546875 199.117188 117.039062 199.117188 117.566406 " fill-opacity="1" fill-rule="nonzero"/><path fill="#31201b" d="M 186.726562 96.199219 C 190.015625 96.355469 193.046875 97.546875 195.804688 99.5 C 196.394531 99.917969 196.96875 100.355469 197.648438 100.625 C 198.597656 101 199.246094 100.785156 199.769531 99.910156 C 199.925781 99.648438 200.035156 99.359375 200.203125 99.109375 C 200.4375 98.757812 200.78125 98.597656 201.1875 98.773438 C 201.585938 98.945312 201.710938 99.285156 201.652344 99.710938 C 201.40625 101.464844 199.558594 102.800781 197.804688 102.484375 C 196.804688 102.308594 195.96875 101.785156 195.148438 101.226562 C 193.703125 100.238281 192.195312 99.375 190.519531 98.8125 C 189.214844 98.375 187.890625 98.085938 186.511719 98.042969 C 185.984375 98.023438 185.449219 97.964844 184.929688 97.867188 C 184.46875 97.777344 184.210938 97.453125 184.230469 96.964844 C 184.253906 96.46875 184.578125 96.226562 185.023438 96.128906 C 185.558594 96.019531 186.082031 96.214844 186.726562 96.199219 " fill-opacity="1" fill-rule="nonzero"/><path fill="#31201b" d="M 216.621094 108.0625 C 213.910156 108.113281 212.066406 105.789062 212.660156 103.265625 C 212.757812 102.855469 212.976562 102.554688 213.417969 102.539062 C 213.914062 102.519531 214.191406 102.828125 214.261719 103.296875 C 214.320312 103.671875 214.300781 104.054688 214.355469 104.429688 C 214.550781 105.835938 215.179688 106.363281 216.589844 106.273438 C 217.691406 106.203125 218.769531 105.945312 219.851562 105.738281 C 222.335938 105.265625 224.835938 105.1875 227.339844 105.5625 C 227.601562 105.601562 227.871094 105.644531 228.117188 105.730469 C 228.71875 105.941406 228.992188 106.359375 228.847656 106.839844 C 228.695312 107.359375 228.308594 107.542969 227.792969 107.5 C 227.644531 107.484375 227.492188 107.457031 227.34375 107.429688 C 224.875 107.019531 222.417969 107.109375 219.972656 107.59375 C 218.8125 107.820312 217.648438 107.988281 216.621094 108.0625 " fill-opacity="1" fill-rule="nonzero"/><path fill="#bf5a46" d="M 202.183594 140.082031 C 199.992188 140.105469 197.734375 140.570312 195.5 141.199219 C 193.632812 141.726562 191.765625 142.242188 190.085938 143.257812 C 189.6875 143.5 189.296875 143.5625 188.984375 143.117188 C 188.695312 142.710938 188.785156 142.339844 189.101562 141.984375 C 189.675781 141.335938 190.4375 140.964844 191.21875 140.679688 C 193.855469 139.714844 196.519531 138.78125 199.308594 138.378906 C 200.652344 138.183594 202.015625 137.988281 203.390625 138.082031 C 203.734375 138.105469 204.066406 138.15625 204.394531 138.261719 C 204.867188 138.40625 205.257812 138.652344 205.191406 139.210938 C 205.128906 139.722656 204.757812 140.03125 204.261719 140.070312 C 203.621094 140.121094 202.972656 140.082031 202.183594 140.082031 " fill-opacity="1" fill-rule="nonzero"/><path fill="#db664b" d="M 235.132812 127.183594 C 235.816406 127.316406 236.320312 127.433594 236.835938 127.503906 C 237.3125 127.574219 237.683594 127.78125 237.585938 128.292969 C 237.496094 128.777344 237.019531 128.714844 236.648438 128.699219 C 236.15625 128.675781 235.667969 128.6875 235.175781 128.578125 C 234.359375 128.394531 234.1875 128.484375 233.902344 129.277344 C 233.660156 129.949219 233.347656 130.609375 233.367188 131.355469 C 233.371094 131.660156 233.234375 131.871094 232.902344 131.886719 C 232.550781 131.902344 232.320312 131.726562 232.25 131.386719 C 232.097656 130.609375 232.3125 129.863281 232.589844 129.164062 C 232.980469 128.179688 233.433594 127.210938 234.078125 126.355469 C 235.445312 124.535156 237.171875 123.929688 239.273438 124.59375 C 239.488281 124.660156 239.703125 124.753906 239.890625 124.875 C 240.214844 125.085938 240.546875 125.355469 240.355469 125.796875 C 240.167969 126.226562 239.777344 126.222656 239.382812 126.089844 C 239.09375 125.992188 238.8125 125.875 238.515625 125.808594 C 237.152344 125.492188 236.082031 125.949219 235.132812 127.183594 " fill-opacity="1" fill-rule="nonzero"/><path fill="#d9674a" d="M 165.164062 102.417969 C 164.558594 102.417969 163.996094 102.421875 163.433594 102.417969 C 163.105469 102.414062 162.808594 102.347656 162.792969 101.9375 C 162.777344 101.519531 163.023438 101.320312 163.414062 101.265625 C 163.847656 101.203125 164.308594 101.328125 164.820312 101.101562 C 164.402344 100.367188 163.972656 99.792969 163.152344 99.636719 C 163.003906 99.609375 162.855469 99.5625 162.710938 99.527344 C 162.304688 99.417969 161.8125 99.351562 161.921875 98.769531 C 162.023438 98.214844 162.515625 98.28125 162.929688 98.273438 C 164.203125 98.242188 165.097656 98.902344 165.746094 99.910156 C 166.328125 100.820312 166.644531 101.832031 166.667969 102.925781 C 166.699219 104.480469 166.789062 106.042969 166.234375 107.546875 C 166.167969 107.722656 166.160156 107.925781 166.066406 108.082031 C 165.910156 108.34375 165.707031 108.621094 165.339844 108.449219 C 165.054688 108.3125 164.84375 108.078125 164.9375 107.71875 C 165.113281 107.019531 165.234375 106.308594 165.375 105.605469 C 165.585938 104.566406 165.535156 103.574219 165.164062 102.417969 " fill-opacity="1" fill-rule="nonzero"/><path fill="#fab583" d="M 172.882812 151.3125 C 172.75 151.28125 172.65625 151.203125 172.605469 151.074219 C 172.699219 151.152344 172.792969 151.234375 172.882812 151.3125 " fill-opacity="1" fill-rule="nonzero"/><path fill="#f9b382" d="M 256.242188 320.179688 C 255.441406 320.898438 254.570312 320.660156 253.765625 320.628906 C 253.171875 320.609375 252.570312 320.433594 252.019531 320.167969 C 251.476562 319.90625 250.984375 319.664062 250.746094 318.980469 C 250.460938 318.152344 249.6875 317.605469 249.113281 316.960938 C 247.449219 315.097656 245.792969 313.222656 244.210938 311.28125 C 243.515625 310.429688 242.832031 309.570312 242.148438 308.710938 C 242.035156 308.5625 241.933594 308.394531 241.992188 308.125 C 242.761719 308.199219 243.546875 308.230469 244.3125 308.363281 C 245.519531 308.570312 246.71875 308.628906 247.921875 308.351562 C 248.378906 308.246094 248.59375 308.445312 248.824219 308.8125 C 249.527344 309.941406 250.125 311.125 250.824219 312.257812 C 252.148438 314.390625 253.636719 316.394531 255.175781 318.367188 C 255.59375 318.898438 256.023438 319.433594 256.242188 320.179688 " fill-opacity="1" fill-rule="nonzero"/><path fill="#f9b382" d="M 250.09375 307.695312 C 250.902344 307.171875 251.890625 306.894531 252.824219 306.503906 C 253.234375 306.332031 253.449219 306.65625 253.628906 306.957031 C 254.085938 307.746094 254.554688 308.53125 254.984375 309.332031 C 256.40625 311.980469 258.128906 314.4375 259.753906 316.957031 C 260.605469 318.277344 260.503906 318.453125 258.9375 318.894531 C 257.921875 319.183594 257.289062 318.976562 256.632812 318.074219 C 254.9375 315.742188 253.199219 313.4375 251.675781 310.988281 C 251.15625 310.148438 250.691406 309.277344 250.203125 308.421875 C 250.085938 308.21875 249.984375 308.015625 250.09375 307.695312 " fill-opacity="1" fill-rule="nonzero"/><path fill="#fab583" d="M 216.371094 113.921875 C 216.28125 113.847656 216.214844 113.746094 216.300781 113.648438 C 216.390625 113.542969 216.492188 113.613281 216.582031 113.679688 C 216.511719 113.761719 216.441406 113.84375 216.371094 113.921875 " fill-opacity="1" fill-rule="nonzero"/><path fill="#12110f" d="M 151.570312 69.746094 C 151.5625 73.234375 150.230469 76.21875 148.0625 78.878906 C 147.167969 79.984375 146.144531 80.96875 145.097656 81.921875 C 143.246094 83.605469 142.546875 85.660156 142.917969 88.113281 C 142.96875 88.441406 142.992188 88.777344 142.992188 89.109375 C 142.988281 90.273438 142.378906 91.097656 141.453125 91.230469 C 140.472656 91.371094 139.578125 90.707031 139.351562 89.523438 C 139.179688 88.628906 139.105469 87.699219 139.113281 86.789062 C 139.128906 84.332031 139.851562 82.109375 141.566406 80.285156 C 142.308594 79.5 143.082031 78.738281 143.851562 77.976562 C 144.890625 76.945312 145.835938 75.84375 146.550781 74.554688 C 148.613281 70.828125 148.136719 66.515625 145.539062 63.488281 C 143.234375 60.804688 138.328125 61.179688 136.660156 63.535156 C 136.253906 64.113281 135.78125 64.648438 135.300781 65.167969 C 134.585938 65.945312 133.683594 66.054688 132.964844 65.492188 C 132.292969 64.960938 132.148438 64.09375 132.660156 63.246094 C 134.757812 59.792969 137.679688 57.746094 141.882812 57.917969 C 144.054688 58.003906 145.925781 58.808594 147.523438 60.265625 C 150.136719 62.644531 151.574219 66.023438 151.570312 69.746094 " fill-opacity="1" fill-rule="nonzero"/><path fill="#131211" d="M 131.003906 93.179688 C 130.96875 95.117188 130.453125 96.957031 129.859375 98.785156 C 129.445312 100.050781 128.957031 101.289062 128.6875 102.605469 C 128.332031 104.347656 128.675781 105.914062 129.703125 107.34375 C 130.140625 107.949219 130.640625 108.511719 131.089844 109.113281 C 131.640625 109.851562 131.636719 110.527344 131.109375 111.015625 C 130.59375 111.492188 129.824219 111.449219 129.210938 110.828125 C 126.542969 108.121094 125.21875 105 126.359375 101.171875 C 126.753906 99.855469 127.242188 98.566406 127.628906 97.25 C 128.175781 95.410156 128.707031 93.5625 128.261719 91.605469 C 127.886719 89.949219 127.011719 88.617188 125.671875 87.597656 C 124.648438 86.824219 123.476562 86.59375 122.234375 86.824219 C 119.925781 87.253906 118.179688 88.316406 117.78125 90.871094 C 117.726562 91.238281 117.613281 91.609375 117.449219 91.941406 C 117.179688 92.488281 116.625 92.695312 116.082031 92.515625 C 115.527344 92.328125 115.242188 91.871094 115.324219 91.355469 C 115.710938 89.011719 116.292969 86.761719 118.625 85.496094 C 121.265625 84.066406 123.953125 83.507812 126.683594 85.183594 C 128.808594 86.484375 130.117188 88.425781 130.75 90.820312 C 130.953125 91.589844 131.042969 92.378906 131.003906 93.179688 " fill-opacity="1" fill-rule="nonzero"/><path fill="#161413" d="M 143.3125 96.535156 C 143.332031 97.449219 142.582031 98.214844 141.683594 98.195312 C 140.84375 98.179688 140.101562 97.445312 140.078125 96.605469 C 140.054688 95.71875 140.828125 94.953125 141.738281 94.964844 C 142.617188 94.976562 143.296875 95.648438 143.3125 96.535156 " fill-opacity="1" fill-rule="nonzero"/><path fill="#181615" d="M 132.09375 116.074219 C 131.292969 116.066406 130.574219 115.394531 130.613281 114.6875 C 130.644531 114.085938 131.164062 113.613281 131.78125 113.625 C 132.554688 113.640625 133.300781 114.347656 133.265625 115.03125 C 133.234375 115.644531 132.746094 116.078125 132.09375 116.074219 " fill-opacity="1" fill-rule="nonzero"/></svg>