<svg xmlns="http://www.w3.org/2000/svg" xmlns:xlink="http://www.w3.org/1999/xlink" width="500" zoomAndPan="magnify" viewBox="0 0 375 374.999991" height="500" preserveAspectRatio="xMidYMid meet" version="1.0"><defs><g/><clipPath id="58f48d9ec8"><path d="M 152 258 L 261 258 L 261 325.523438 L 152 325.523438 Z M 152 258 " clip-rule="nonzero"/></clipPath><clipPath id="7903445ff4"><path d="M 88 81 L 303.652344 81 L 303.652344 268 L 88 268 Z M 88 81 " clip-rule="nonzero"/></clipPath></defs><g clip-path="url(#58f48d9ec8)"><path fill="#f2e8d5" d="M 253.089844 258.898438 L 260.867188 320.089844 C 247.335938 322.820312 212.296875 325.347656 212.296875 325.347656 L 207.277344 305.839844 L 202.761719 325.523438 C 202.761719 325.523438 167.953125 324.261719 152.460938 321.382812 L 158.242188 260.484375 L 253.089844 258.898438 " fill-opacity="1" fill-rule="evenodd"/></g><path fill="#582d2a" d="M 160.910156 267.152344 C 168.335938 268.328125 175.878906 269.210938 183.449219 269.824219 C 190.933594 270.441406 198.503906 270.765625 206.132812 270.765625 C 212.152344 270.796875 218.195312 270.589844 224.300781 270.207031 C 233.222656 269.648438 242.230469 268.621094 251.386719 267.125 C 251.503906 267.125 251.5625 267.007812 251.5625 266.886719 C 251.535156 266.769531 251.417969 266.683594 251.300781 266.683594 C 242.171875 268.121094 233.164062 269.089844 224.269531 269.648438 C 218.167969 270.003906 212.121094 270.179688 206.132812 270.179688 C 198.503906 270.148438 190.960938 269.855469 183.507812 269.269531 C 175.90625 268.679688 168.425781 267.800781 160.96875 266.683594 C 160.851562 266.652344 160.707031 266.742188 160.675781 266.886719 C 160.675781 267.007812 160.765625 267.152344 160.910156 267.152344 " fill-opacity="1" fill-rule="evenodd"/><path fill="#582d2a" d="M 208.953125 284.367188 C 208.953125 284.367188 208.660156 285.777344 208.304688 287.6875 C 208.101562 288.6875 207.894531 289.832031 207.71875 290.976562 C 207.574219 291.886719 207.484375 292.828125 207.398438 293.679688 C 207.160156 295.941406 207.101562 297.703125 207.101562 297.703125 C 207.015625 298.261719 207.398438 298.820312 207.984375 298.878906 C 208.542969 298.996094 209.070312 298.585938 209.15625 298.027344 C 209.15625 298.027344 209.597656 296.292969 210.066406 294.0625 C 210.214844 293.238281 210.390625 292.328125 210.535156 291.417969 C 210.710938 290.273438 210.832031 289.097656 210.949219 288.070312 C 211.152344 286.160156 211.269531 284.71875 211.269531 284.71875 C 211.386719 284.074219 210.949219 283.484375 210.300781 283.398438 C 209.65625 283.28125 209.070312 283.722656 208.953125 284.367188 " fill-opacity="1" fill-rule="evenodd"/><path fill="#582d2a" d="M 203.289062 278.523438 C 203.289062 278.523438 202.878906 286.542969 202.640625 293.503906 C 202.613281 294.882812 202.582031 296.234375 202.582031 297.5 C 202.523438 300.9375 202.554688 303.492188 202.554688 303.492188 C 202.554688 304.078125 202.9375 304.609375 203.550781 304.753906 L 209.566406 305.871094 C 210.125 305.988281 210.683594 305.636719 210.832031 305.078125 C 210.949219 304.519531 210.59375 303.933594 210.007812 303.816406 L 205.136719 302.550781 C 205.195312 301.492188 205.285156 299.703125 205.371094 297.558594 C 205.429688 296.324219 205.460938 294.972656 205.488281 293.5625 C 205.636719 286.628906 205.636719 278.582031 205.636719 278.582031 C 205.664062 277.933594 205.167969 277.40625 204.519531 277.375 C 203.84375 277.375 203.316406 277.875 203.289062 278.523438 " fill-opacity="1" fill-rule="evenodd"/><path fill="#fcbfa3" d="M 246.867188 104.523438 C 243.902344 104.90625 232.371094 106.109375 217.84375 100.382812 C 213.207031 98.53125 215.964844 94.125 218.136719 91.277344 C 221.746094 86.515625 238.738281 88.160156 238.738281 88.160156 C 238.738281 88.160156 235.21875 86.195312 233.957031 85.371094 C 232.136719 84.195312 232.195312 80.671875 234.484375 80.082031 C 238.476562 79.027344 252.207031 82.433594 259.132812 84.285156 C 261.601562 84.960938 266.179688 98.648438 266.179688 98.648438 L 248.480469 108.8125 L 246.867188 104.523438 " fill-opacity="1" fill-rule="evenodd"/><path fill="#f7907f" d="M 220.777344 91.011719 C 222.949219 91.714844 225.121094 92.480469 227.351562 93.039062 C 228.820312 93.421875 230.34375 93.742188 231.871094 93.949219 C 234.367188 94.300781 236.917969 94.359375 239.558594 94.066406 C 239.824219 94.066406 240 93.832031 240 93.566406 C 239.972656 93.332031 239.738281 93.125 239.472656 93.15625 C 236.917969 93.332031 234.425781 93.15625 232.046875 92.773438 C 230.550781 92.539062 229.082031 92.214844 227.617188 91.894531 C 225.414062 91.363281 223.242188 90.746094 221.070312 90.101562 C 220.808594 90.011719 220.542969 90.160156 220.457031 90.425781 C 220.398438 90.660156 220.515625 90.921875 220.777344 91.011719 " fill-opacity="1" fill-rule="evenodd"/><path fill="#f7907f" d="M 217.960938 94.273438 C 220.132812 95.007812 222.304688 95.742188 224.535156 96.300781 C 226.003906 96.679688 227.527344 97.003906 229.054688 97.210938 C 231.546875 97.5625 234.101562 97.621094 236.773438 97.355469 C 237.007812 97.328125 237.183594 97.121094 237.183594 96.855469 C 237.152344 96.59375 236.917969 96.417969 236.683594 96.417969 C 234.101562 96.621094 231.636719 96.417969 229.230469 96.035156 C 227.734375 95.800781 226.265625 95.507812 224.828125 95.152344 C 222.597656 94.625 220.425781 94.007812 218.253906 93.390625 C 217.992188 93.304688 217.726562 93.449219 217.667969 93.683594 C 217.578125 93.949219 217.726562 94.214844 217.960938 94.273438 " fill-opacity="1" fill-rule="evenodd"/><path fill="#f7907f" d="M 216.199219 97.621094 C 218.371094 98.328125 220.542969 99.089844 222.773438 99.648438 C 224.242188 100.03125 225.765625 100.351562 227.292969 100.558594 C 229.789062 100.910156 232.339844 100.96875 234.980469 100.675781 C 235.246094 100.675781 235.421875 100.441406 235.421875 100.175781 C 235.394531 99.941406 235.160156 99.734375 234.921875 99.765625 C 232.339844 99.941406 229.875 99.765625 227.46875 99.382812 C 225.972656 99.148438 224.503906 98.824219 223.039062 98.503906 C 220.835938 97.972656 218.664062 97.355469 216.492188 96.710938 C 216.230469 96.621094 215.964844 96.769531 215.878906 97.035156 C 215.820312 97.269531 215.9375 97.53125 216.199219 97.621094 " fill-opacity="1" fill-rule="evenodd"/><path fill="#fcbfa3" d="M 91.332031 177.378906 C 88.367188 177.761719 76.804688 178.964844 62.308594 173.234375 C 57.671875 171.414062 60.429688 166.980469 62.601562 164.128906 C 66.210938 159.371094 83.203125 161.015625 83.203125 161.015625 C 83.203125 161.015625 79.679688 159.046875 78.390625 158.226562 C 76.597656 157.050781 76.65625 153.554688 78.945312 152.9375 C 82.9375 151.910156 96.671875 155.316406 103.597656 157.167969 C 106.0625 157.8125 110.640625 171.503906 110.640625 171.503906 L 92.972656 181.667969 L 91.332031 177.378906 " fill-opacity="1" fill-rule="evenodd"/><path fill="#f7907f" d="M 65.242188 163.863281 C 67.414062 164.597656 69.585938 165.335938 71.816406 165.890625 C 73.28125 166.273438 74.808594 166.597656 76.335938 166.804688 C 78.800781 167.15625 81.382812 167.214844 84.023438 166.921875 C 84.289062 166.921875 84.464844 166.683594 84.433594 166.449219 C 84.433594 166.1875 84.199219 165.980469 83.9375 166.007812 C 81.382812 166.1875 78.886719 166.007812 76.511719 165.628906 C 75.015625 165.394531 73.546875 165.070312 72.078125 164.746094 C 69.878906 164.21875 67.707031 163.601562 65.507812 162.953125 C 65.269531 162.867188 65.007812 163.011719 64.917969 163.277344 C 64.832031 163.511719 64.976562 163.777344 65.242188 163.863281 " fill-opacity="1" fill-rule="evenodd"/><path fill="#f7907f" d="M 62.425781 167.125 C 64.597656 167.859375 66.769531 168.59375 69 169.183594 C 70.464844 169.5625 71.992188 169.859375 73.515625 170.09375 C 76.011719 170.417969 78.566406 170.503906 81.207031 170.210938 C 81.46875 170.179688 81.675781 169.976562 81.648438 169.710938 C 81.617188 169.445312 81.382812 169.269531 81.148438 169.300781 C 78.566406 169.476562 76.070312 169.269531 73.695312 168.886719 C 72.195312 168.652344 70.730469 168.359375 69.261719 168.007812 C 67.0625 167.476562 64.890625 166.863281 62.71875 166.246094 C 62.453125 166.15625 62.191406 166.304688 62.101562 166.539062 C 62.042969 166.804688 62.160156 167.066406 62.425781 167.125 " fill-opacity="1" fill-rule="evenodd"/><path fill="#f7907f" d="M 60.664062 170.476562 C 62.835938 171.210938 65.007812 171.945312 67.207031 172.5 C 68.703125 172.882812 70.203125 173.207031 71.757812 173.414062 C 74.25 173.765625 76.804688 173.824219 79.445312 173.53125 C 79.710938 173.53125 79.886719 173.296875 79.886719 173.058594 C 79.855469 172.796875 79.621094 172.589844 79.359375 172.621094 C 76.773438 172.824219 74.308594 172.621094 71.933594 172.238281 C 70.4375 172.003906 68.96875 171.679688 67.5 171.355469 C 65.300781 170.828125 63.128906 170.210938 60.929688 169.5625 C 60.691406 169.503906 60.429688 169.621094 60.339844 169.886719 C 60.28125 170.152344 60.398438 170.386719 60.664062 170.476562 " fill-opacity="1" fill-rule="evenodd"/><g clip-path="url(#7903445ff4)"><path fill="#6089b0" d="M 218.429688 142.773438 C 219.867188 142.800781 233.542969 141.507812 241.703125 137.042969 C 255.027344 129.730469 264.738281 117.773438 264.738281 117.773438 L 245.136719 108.960938 L 252.53125 81.40625 C 252.53125 81.40625 298.046875 88.160156 303.15625 106.992188 C 309.550781 130.492188 250.625 200.734375 250.625 200.734375 L 256.699219 264.597656 C 221.863281 269.855469 187.617188 267.800781 153.515625 264.539062 L 155.101562 231.695312 C 155.101562 231.695312 144.917969 246.207031 132.152344 246 C 111.667969 245.707031 88.394531 180.992188 88.394531 180.992188 L 115.601562 168.625 L 134.117188 196.003906 C 134.117188 196.003906 147.441406 162.691406 155.894531 153.820312 C 162.527344 146.828125 184.769531 142.742188 184.769531 142.742188 L 218.429688 142.773438 " fill-opacity="1" fill-rule="evenodd"/></g><path fill="#582d2a" d="M 180.777344 238.953125 C 184.769531 240.390625 189.40625 241.097656 194.25 241.097656 C 198.738281 241.097656 203.375 240.480469 207.808594 239.273438 C 217.316406 236.691406 225.828125 231.402344 229.730469 223.851562 C 229.847656 223.644531 229.757812 223.410156 229.582031 223.324219 C 229.40625 223.234375 229.140625 223.292969 229.054688 223.5 C 225.238281 230.871094 216.875 235.925781 207.601562 238.453125 C 203.230469 239.628906 198.679688 240.273438 194.25 240.304688 C 189.496094 240.363281 184.917969 239.714844 180.984375 238.335938 C 180.808594 238.277344 180.632812 238.363281 180.574219 238.539062 C 180.515625 238.714844 180.601562 238.894531 180.777344 238.953125 " fill-opacity="1" fill-rule="evenodd"/><path fill="#582d2a" d="M 133.941406 196.621094 C 133.941406 196.621094 134.265625 196.765625 134.707031 196.972656 C 134.941406 197.0625 135.203125 197.207031 135.496094 197.296875 C 136.289062 197.558594 137.113281 197.765625 137.113281 197.765625 C 137.492188 197.882812 137.902344 197.675781 138.019531 197.265625 C 138.167969 196.882812 137.960938 196.472656 137.582031 196.355469 C 137.582031 196.355469 136.789062 196.003906 135.996094 195.769531 C 135.703125 195.679688 135.410156 195.621094 135.144531 195.5625 C 134.675781 195.472656 134.324219 195.414062 134.324219 195.414062 C 134 195.296875 133.648438 195.472656 133.53125 195.796875 C 133.414062 196.148438 133.589844 196.503906 133.941406 196.621094 " fill-opacity="1" fill-rule="evenodd"/><path fill="#582d2a" d="M 133.53125 196.179688 C 133.53125 196.179688 133.648438 196.882812 133.882812 197.796875 C 134 198.292969 134.148438 198.851562 134.292969 199.410156 C 134.765625 201.027344 135.292969 202.582031 135.292969 202.582031 C 135.410156 202.964844 135.820312 203.199219 136.203125 203.082031 C 136.613281 202.964844 136.847656 202.554688 136.699219 202.171875 C 136.699219 202.171875 136.320312 200.554688 135.851562 198.96875 C 135.671875 198.410156 135.496094 197.855469 135.320312 197.382812 C 135 196.472656 134.734375 195.828125 134.734375 195.828125 C 134.644531 195.503906 134.292969 195.296875 133.941406 195.386719 C 133.621094 195.503906 133.414062 195.855469 133.53125 196.179688 " fill-opacity="1" fill-rule="evenodd"/><path fill="#582d2a" d="M 156.304688 200.675781 C 156.304688 200.675781 156.039062 204.757812 155.71875 210.222656 C 155.542969 213.160156 155.335938 216.476562 155.128906 219.796875 C 154.632812 229.375 154.21875 238.921875 154.21875 238.921875 C 154.191406 239.332031 154.515625 239.6875 154.925781 239.714844 C 155.335938 239.746094 155.660156 239.421875 155.6875 239.011719 C 155.6875 239.011719 156.273438 229.460938 156.746094 219.886719 C 156.921875 216.566406 157.066406 213.246094 157.183594 210.308594 C 157.417969 204.816406 157.566406 200.734375 157.566406 200.734375 C 157.59375 200.378906 157.332031 200.085938 156.980469 200.085938 C 156.628906 200.058594 156.332031 200.320312 156.304688 200.675781 " fill-opacity="1" fill-rule="evenodd"/><path fill="#582d2a" d="M 255.171875 193.976562 C 255.171875 193.976562 254.234375 194.945312 252.941406 196.296875 C 252.265625 197.03125 251.476562 197.855469 250.742188 198.675781 C 248.570312 201.085938 246.457031 203.554688 246.457031 203.554688 C 246.191406 203.847656 246.222656 204.316406 246.515625 204.582031 C 246.839844 204.875 247.308594 204.84375 247.570312 204.523438 C 247.570312 204.523438 249.773438 202.171875 251.945312 199.761719 C 252.679688 198.910156 253.410156 198.058594 254.058594 197.296875 C 255.261719 195.886719 256.140625 194.796875 256.140625 194.796875 C 256.347656 194.5625 256.347656 194.152344 256.082031 193.917969 C 255.820312 193.683594 255.40625 193.710938 255.171875 193.976562 " fill-opacity="1" fill-rule="evenodd"/><path fill="#582d2a" d="M 265.355469 117.863281 C 265.355469 117.863281 265.53125 117.304688 265.679688 116.511719 C 265.796875 116.070312 265.914062 115.601562 265.972656 115.128906 C 266.207031 113.75 266.355469 112.339844 266.355469 112.339844 C 266.414062 111.925781 266.148438 111.546875 265.738281 111.488281 C 265.328125 111.429688 264.972656 111.691406 264.886719 112.105469 C 264.886719 112.105469 264.59375 113.484375 264.386719 114.863281 C 264.328125 115.363281 264.269531 115.835938 264.242188 116.273438 C 264.152344 117.070312 264.125 117.683594 264.125 117.683594 C 264.066406 118.007812 264.300781 118.359375 264.652344 118.390625 C 264.972656 118.449219 265.328125 118.214844 265.355469 117.863281 " fill-opacity="1" fill-rule="evenodd"/><path fill="#582d2a" d="M 263.390625 120.652344 C 263.390625 120.652344 264.035156 120.125 264.886719 119.417969 C 265.328125 119.007812 265.855469 118.597656 266.355469 118.125 C 267.761719 116.804688 269.113281 115.421875 269.113281 115.421875 C 269.40625 115.128906 269.433594 114.660156 269.140625 114.367188 C 268.878906 114.070312 268.40625 114.070312 268.113281 114.335938 C 268.113281 114.335938 266.648438 115.601562 265.238281 116.949219 C 264.738281 117.421875 264.300781 117.890625 263.859375 118.332031 C 263.097656 119.125 262.539062 119.742188 262.539062 119.742188 C 262.273438 119.976562 262.273438 120.386719 262.507812 120.621094 C 262.746094 120.886719 263.15625 120.886719 263.390625 120.652344 " fill-opacity="1" fill-rule="evenodd"/><path fill="#fcbfa3" d="M 189.730469 117.1875 L 211.945312 116.863281 C 211.945312 116.863281 211.007812 132.050781 213.296875 137.160156 C 215.378906 141.804688 217.578125 141.628906 217.578125 141.628906 C 211.476562 153.996094 191.695312 156.140625 183.773438 142.15625 C 183.773438 142.15625 186.238281 141.832031 187.675781 137.515625 C 189.4375 132.167969 189.730469 117.1875 189.730469 117.1875 " fill-opacity="1" fill-rule="evenodd"/><path fill="#f7907f" d="M 212.738281 135.632812 C 198.796875 135.574219 191.167969 131.433594 188.261719 124.089844 L 211.476562 122.414062 L 212.738281 135.632812 " fill-opacity="1" fill-rule="evenodd"/><path fill="#fcbfa3" d="M 206.015625 68.039062 C 215.113281 69.214844 223.390625 72.503906 226.238281 79.613281 C 229.113281 86.691406 226.558594 97.53125 225.472656 105.492188 C 223.300781 121.621094 214.9375 132.992188 196.714844 130.726562 C 180.457031 128.703125 174.382812 114.191406 175.878906 100.589844 C 176.789062 92.304688 176.582031 82.582031 180.601562 76.46875 C 185.238281 69.359375 194.777344 66.570312 206.015625 68.039062 " fill-opacity="1" fill-rule="evenodd"/><path fill="#fcbfa3" d="M 175.789062 93.039062 C 172.738281 92.714844 170.007812 95.269531 169.65625 98.679688 C 169.304688 102.117188 171.503906 105.140625 174.558594 105.464844 C 177.609375 105.757812 180.339844 103.230469 180.691406 99.796875 C 181.042969 96.359375 178.84375 93.332031 175.789062 93.039062 " fill-opacity="1" fill-rule="evenodd"/><path fill="#fcbfa3" d="M 226.824219 98.179688 C 223.480469 97.828125 220.515625 100.351562 220.164062 103.761719 C 219.808594 107.199219 222.246094 110.253906 225.5625 110.578125 C 228.878906 110.929688 231.871094 108.433594 232.222656 104.996094 C 232.546875 101.558594 230.140625 98.503906 226.824219 98.179688 " fill-opacity="1" fill-rule="evenodd"/><path fill="#f2e8d5" d="M 216.789062 140.863281 C 216.789062 140.863281 209.863281 149.96875 199.738281 149.851562 C 189.085938 149.707031 185.09375 141.332031 185.09375 141.332031 L 181.160156 143.507812 C 181.160156 143.507812 188.203125 155.785156 198.769531 155.40625 C 214.351562 154.847656 220.25 142.917969 220.25 142.917969 L 216.789062 140.863281 " fill-opacity="1" fill-rule="evenodd"/><path fill="#582d2a" d="M 230.226562 68.804688 C 242.320312 74.765625 232.664062 100.382812 226.121094 100.03125 C 222.804688 94.535156 225.121094 82.316406 225.121094 82.316406 C 220.71875 87.839844 195.394531 86.574219 199.796875 78.113281 C 195.246094 80.671875 188.9375 83.933594 179.632812 82.433594 C 179.632812 82.433594 180.660156 90.835938 176.347656 95.359375 C 169.863281 91.894531 172.769531 81.609375 172.769531 81.609375 C 161.382812 80.40625 165.226562 64.367188 173.53125 66.921875 C 173.53125 66.921875 164.316406 56.433594 173.914062 53.703125 C 176.816406 52.878906 185.179688 59.695312 188.789062 57.582031 C 203.699219 48.828125 225.121094 52.207031 230.226562 68.804688 " fill-opacity="1" fill-rule="evenodd"/><path fill="#582d2a" d="M 188.820312 95.476562 C 187.265625 95.476562 186.003906 96.769531 186.003906 98.386719 C 185.972656 100 187.234375 101.324219 188.761719 101.324219 C 190.289062 101.351562 191.550781 100.058594 191.578125 98.445312 C 191.578125 96.828125 190.347656 95.507812 188.820312 95.476562 " fill-opacity="1" fill-rule="evenodd"/><path fill="#f7907f" d="M 185.003906 105.023438 C 181.863281 104.996094 179.28125 106.699219 179.28125 108.8125 C 179.253906 110.957031 181.777344 112.722656 184.945312 112.722656 C 188.085938 112.75 190.667969 111.046875 190.667969 108.929688 C 190.699219 106.785156 188.175781 105.054688 185.003906 105.023438 " fill-opacity="1" fill-rule="evenodd"/><path fill="#f7907f" d="M 216.347656 105.289062 C 213.179688 105.289062 210.625 106.964844 210.59375 109.105469 C 210.566406 111.222656 213.121094 112.984375 216.289062 113.015625 C 219.429688 113.042969 221.980469 111.339844 222.011719 109.195312 C 222.039062 107.082031 219.488281 105.316406 216.347656 105.289062 " fill-opacity="1" fill-rule="evenodd"/><path fill="#582d2a" d="M 211.652344 96.210938 C 210.097656 96.210938 208.835938 97.503906 208.835938 99.121094 C 208.804688 100.734375 210.066406 102.058594 211.59375 102.058594 C 213.121094 102.085938 214.382812 100.792969 214.410156 99.179688 C 214.410156 97.5625 213.179688 96.242188 211.652344 96.210938 " fill-opacity="1" fill-rule="evenodd"/><path fill="#582d2a" d="M 191.667969 91.070312 C 191.050781 90.777344 190.40625 90.601562 189.789062 90.484375 C 189.144531 90.363281 188.496094 90.363281 187.851562 90.363281 C 187.03125 90.363281 186.238281 90.425781 185.445312 90.601562 C 184.886719 90.6875 184.359375 90.835938 183.832031 91.011719 C 183.332031 91.246094 182.746094 91.011719 182.539062 90.542969 C 182.304688 90.042969 182.539062 89.453125 183.007812 89.25 C 184.035156 88.660156 185.121094 88.222656 186.265625 87.957031 C 186.765625 87.839844 187.292969 87.78125 187.792969 87.78125 C 188.320312 87.75 188.847656 87.808594 189.347656 87.898438 C 190.523438 88.132812 191.636719 88.601562 192.695312 89.335938 C 193.164062 89.628906 193.308594 90.246094 193.046875 90.71875 C 192.753906 91.1875 192.136719 91.335938 191.667969 91.070312 " fill-opacity="1" fill-rule="evenodd"/><path fill="#582d2a" d="M 207.808594 87.339844 C 208.863281 86.605469 209.980469 86.164062 211.125 85.957031 C 211.652344 85.871094 212.179688 85.839844 212.707031 85.839844 C 213.207031 85.871094 213.734375 85.929688 214.234375 86.046875 C 215.347656 86.339844 216.433594 86.8125 217.460938 87.398438 C 217.933594 87.632812 218.167969 88.191406 217.933594 88.691406 C 217.695312 89.160156 217.109375 89.394531 216.640625 89.160156 C 216.082031 88.957031 215.554688 88.835938 214.996094 88.691406 C 214.203125 88.515625 213.414062 88.457031 212.621094 88.425781 C 211.976562 88.425781 211.328125 88.425781 210.683594 88.515625 C 210.039062 88.632812 209.390625 88.777344 208.777344 89.074219 C 208.304688 89.335938 207.691406 89.160156 207.398438 88.691406 C 207.132812 88.222656 207.308594 87.605469 207.808594 87.339844 " fill-opacity="1" fill-rule="evenodd"/><path fill="#f7907f" d="M 205.929688 116.097656 C 205.3125 115.6875 204.460938 115.394531 203.433594 115.21875 C 202.203125 115.042969 200.765625 115.101562 199.328125 115.394531 C 197.183594 115.835938 195.070312 116.863281 193.691406 118.890625 C 193.457031 119.214844 193.015625 119.300781 192.695312 119.066406 C 192.371094 118.859375 192.28125 118.417969 192.488281 118.066406 C 194.042969 115.6875 196.507812 114.335938 199.003906 113.835938 C 200.351562 113.574219 201.703125 113.542969 202.90625 113.71875 C 204.492188 113.925781 205.8125 114.425781 206.664062 115.128906 C 206.925781 115.304688 206.984375 115.71875 206.78125 115.980469 C 206.574219 116.246094 206.195312 116.304688 205.929688 116.097656 " fill-opacity="1" fill-rule="evenodd"/><path fill="#f7907f" d="M 200.117188 93.65625 C 199.914062 99.121094 198.503906 103.171875 197.800781 105.933594 C 197.449219 107.402344 197.300781 108.550781 197.566406 109.371094 C 197.917969 110.515625 199.003906 111.25 201.496094 111.25 C 201.820312 111.25 202.085938 110.988281 202.085938 110.664062 C 202.085938 110.3125 201.820312 110.046875 201.496094 110.046875 C 200.589844 110.078125 199.882812 109.988281 199.414062 109.78125 C 199.03125 109.605469 198.796875 109.371094 198.679688 109.019531 C 198.476562 108.34375 198.652344 107.433594 198.945312 106.226562 C 199.648438 103.410156 201.058594 99.265625 201.292969 93.683594 C 201.320312 93.363281 201.058594 93.097656 200.734375 93.097656 C 200.414062 93.066406 200.148438 93.332031 200.117188 93.65625 " fill-opacity="1" fill-rule="evenodd"/><g fill="#f2e8d5" fill-opacity="1"><g transform="translate(168.845645, 176.209835)"><g><path d="M 5.78125 0 L 4.34375 0 L 1.953125 -3.625 L 1.953125 0 L 0.515625 0 L 0.515625 -5.875 L 1.953125 -5.875 L 4.34375 -2.234375 L 4.34375 -5.875 L 5.78125 -5.875 Z M 5.78125 0 "/></g></g></g><g fill="#f2e8d5" fill-opacity="1"><g transform="translate(175.136543, 176.209835)"><g><path d="M 3.296875 0.0625 C 2.742188 0.0625 2.238281 -0.0664062 1.78125 -0.328125 C 1.320312 -0.585938 0.957031 -0.945312 0.6875 -1.40625 C 0.414062 -1.863281 0.28125 -2.378906 0.28125 -2.953125 C 0.28125 -3.523438 0.414062 -4.039062 0.6875 -4.5 C 0.957031 -4.957031 1.320312 -5.316406 1.78125 -5.578125 C 2.238281 -5.835938 2.742188 -5.96875 3.296875 -5.96875 C 3.847656 -5.96875 4.351562 -5.835938 4.8125 -5.578125 C 5.28125 -5.316406 5.644531 -4.957031 5.90625 -4.5 C 6.175781 -4.039062 6.3125 -3.523438 6.3125 -2.953125 C 6.3125 -2.378906 6.175781 -1.863281 5.90625 -1.40625 C 5.632812 -0.945312 5.269531 -0.585938 4.8125 -0.328125 C 4.351562 -0.0664062 3.847656 0.0625 3.296875 0.0625 Z M 3.296875 -1.25 C 3.765625 -1.25 4.140625 -1.40625 4.421875 -1.71875 C 4.703125 -2.03125 4.84375 -2.441406 4.84375 -2.953125 C 4.84375 -3.472656 4.703125 -3.890625 4.421875 -4.203125 C 4.140625 -4.515625 3.765625 -4.671875 3.296875 -4.671875 C 2.828125 -4.671875 2.445312 -4.515625 2.15625 -4.203125 C 1.875 -3.898438 1.734375 -3.484375 1.734375 -2.953125 C 1.734375 -2.429688 1.875 -2.015625 2.15625 -1.703125 C 2.445312 -1.398438 2.828125 -1.25 3.296875 -1.25 Z M 3.296875 -1.25 "/></g></g></g><g fill="#f2e8d5" fill-opacity="1"><g transform="translate(181.711868, 176.209835)"><g><path d="M 4.75 -5.875 L 4.75 -4.734375 L 3.1875 -4.734375 L 3.1875 0 L 1.765625 0 L 1.765625 -4.734375 L 0.203125 -4.734375 L 0.203125 -5.875 Z M 4.75 -5.875 "/></g></g></g><g fill="#f2e8d5" fill-opacity="1"><g transform="translate(186.655909, 176.209835)"><g><path d="M 1.953125 -4.734375 L 1.953125 -3.546875 L 3.875 -3.546875 L 3.875 -2.4375 L 1.953125 -2.4375 L 1.953125 -1.140625 L 4.125 -1.140625 L 4.125 0 L 0.515625 0 L 0.515625 -5.875 L 4.125 -5.875 L 4.125 -4.734375 Z M 1.953125 -4.734375 "/></g></g></g><g fill="#f2e8d5" fill-opacity="1"><g transform="translate(191.181673, 176.209835)"><g><path d="M 8.609375 -5.875 L 7.078125 0 L 5.34375 0 L 4.40625 -3.875 L 3.4375 0 L 1.703125 0 L 0.203125 -5.875 L 1.734375 -5.875 L 2.59375 -1.59375 L 3.640625 -5.875 L 5.203125 -5.875 L 6.21875 -1.59375 L 7.0625 -5.875 Z M 8.609375 -5.875 "/></g></g></g><g fill="#f2e8d5" fill-opacity="1"><g transform="translate(199.982242, 176.209835)"><g><path d="M 3.296875 0.0625 C 2.742188 0.0625 2.238281 -0.0664062 1.78125 -0.328125 C 1.320312 -0.585938 0.957031 -0.945312 0.6875 -1.40625 C 0.414062 -1.863281 0.28125 -2.378906 0.28125 -2.953125 C 0.28125 -3.523438 0.414062 -4.039062 0.6875 -4.5 C 0.957031 -4.957031 1.320312 -5.316406 1.78125 -5.578125 C 2.238281 -5.835938 2.742188 -5.96875 3.296875 -5.96875 C 3.847656 -5.96875 4.351562 -5.835938 4.8125 -5.578125 C 5.28125 -5.316406 5.644531 -4.957031 5.90625 -4.5 C 6.175781 -4.039062 6.3125 -3.523438 6.3125 -2.953125 C 6.3125 -2.378906 6.175781 -1.863281 5.90625 -1.40625 C 5.632812 -0.945312 5.269531 -0.585938 4.8125 -0.328125 C 4.351562 -0.0664062 3.847656 0.0625 3.296875 0.0625 Z M 3.296875 -1.25 C 3.765625 -1.25 4.140625 -1.40625 4.421875 -1.71875 C 4.703125 -2.03125 4.84375 -2.441406 4.84375 -2.953125 C 4.84375 -3.472656 4.703125 -3.890625 4.421875 -4.203125 C 4.140625 -4.515625 3.765625 -4.671875 3.296875 -4.671875 C 2.828125 -4.671875 2.445312 -4.515625 2.15625 -4.203125 C 1.875 -3.898438 1.734375 -3.484375 1.734375 -2.953125 C 1.734375 -2.429688 1.875 -2.015625 2.15625 -1.703125 C 2.445312 -1.398438 2.828125 -1.25 3.296875 -1.25 Z M 3.296875 -1.25 "/></g></g></g><g fill="#f2e8d5" fill-opacity="1"><g transform="translate(206.557567, 176.209835)"><g><path d="M 3.515625 0 L 2.296875 -2.21875 L 1.953125 -2.21875 L 1.953125 0 L 0.515625 0 L 0.515625 -5.875 L 2.921875 -5.875 C 3.390625 -5.875 3.785156 -5.789062 4.109375 -5.625 C 4.429688 -5.46875 4.671875 -5.25 4.828125 -4.96875 C 4.992188 -4.6875 5.078125 -4.375 5.078125 -4.03125 C 5.078125 -3.632812 4.96875 -3.28125 4.75 -2.96875 C 4.53125 -2.664062 4.207031 -2.453125 3.78125 -2.328125 L 5.140625 0 Z M 1.953125 -3.234375 L 2.84375 -3.234375 C 3.101562 -3.234375 3.296875 -3.296875 3.421875 -3.421875 C 3.554688 -3.554688 3.625 -3.738281 3.625 -3.96875 C 3.625 -4.195312 3.554688 -4.375 3.421875 -4.5 C 3.296875 -4.625 3.101562 -4.6875 2.84375 -4.6875 L 1.953125 -4.6875 Z M 1.953125 -3.234375 "/></g></g></g><g fill="#f2e8d5" fill-opacity="1"><g transform="translate(212.011914, 176.209835)"><g><path d="M 4.75 -5.875 L 4.75 -4.734375 L 3.1875 -4.734375 L 3.1875 0 L 1.765625 0 L 1.765625 -4.734375 L 0.203125 -4.734375 L 0.203125 -5.875 Z M 4.75 -5.875 "/></g></g></g><g fill="#f2e8d5" fill-opacity="1"><g transform="translate(216.955954, 176.209835)"><g><path d="M 5.609375 -5.875 L 5.609375 0 L 4.171875 0 L 4.171875 -2.421875 L 1.953125 -2.421875 L 1.953125 0 L 0.515625 0 L 0.515625 -5.875 L 1.953125 -5.875 L 1.953125 -3.578125 L 4.171875 -3.578125 L 4.171875 -5.875 Z M 5.609375 -5.875 "/></g></g></g><g fill="#f2e8d5" fill-opacity="1"><g transform="translate(223.071177, 176.209835)"><g><path d="M 5.5625 -5.875 L 3.53125 -1.9375 L 3.53125 0 L 2.09375 0 L 2.09375 -1.9375 L 0.0625 -5.875 L 1.6875 -5.875 L 2.828125 -3.421875 L 3.953125 -5.875 Z M 5.5625 -5.875 "/></g></g></g></svg>